%TF.GenerationSoftware,KiCad,Pcbnew,8.0.0*%
%TF.CreationDate,2024-03-20T12:44:37-05:00*%
%TF.ProjectId,tetrisBusinessCard,74657472-6973-4427-9573-696e65737343,rev?*%
%TF.SameCoordinates,Original*%
%TF.FileFunction,Drillmap*%
%TF.FilePolarity,Positive*%
%FSLAX45Y45*%
G04 Gerber Fmt 4.5, Leading zero omitted, Abs format (unit mm)*
G04 Created by KiCad (PCBNEW 8.0.0) date 2024-03-20 12:44:37*
%MOMM*%
%LPD*%
G01*
G04 APERTURE LIST*
%ADD10C,0.050000*%
%ADD11C,0.200000*%
%ADD12C,0.100000*%
%ADD13C,0.150000*%
G04 APERTURE END LIST*
D10*
X17320000Y-1975000D02*
X22185000Y-1975000D01*
X22185000Y-10425000D01*
X17320000Y-10425000D01*
X17320000Y-1975000D01*
D11*
D12*
X17590000Y-7005000D02*
X17600000Y-7015000D01*
X17600000Y-7005000D02*
X17590000Y-7015000D01*
X17640000Y-6580000D02*
X17650000Y-6590000D01*
X17650000Y-6580000D02*
X17640000Y-6590000D01*
X17715000Y-6595000D02*
X17725000Y-6605000D01*
X17725000Y-6595000D02*
X17715000Y-6605000D01*
X17715000Y-6815000D02*
X17725000Y-6825000D01*
X17725000Y-6815000D02*
X17715000Y-6825000D01*
X17720000Y-2160000D02*
X17730000Y-2170000D01*
X17730000Y-2160000D02*
X17720000Y-2170000D01*
X17720000Y-2365000D02*
X17730000Y-2375000D01*
X17730000Y-2365000D02*
X17720000Y-2375000D01*
X17720000Y-2565000D02*
X17730000Y-2575000D01*
X17730000Y-2565000D02*
X17720000Y-2575000D01*
X17720000Y-2765000D02*
X17730000Y-2775000D01*
X17730000Y-2765000D02*
X17720000Y-2775000D01*
X17720000Y-2980000D02*
X17730000Y-2990000D01*
X17730000Y-2980000D02*
X17720000Y-2990000D01*
X17720000Y-3210000D02*
X17730000Y-3220000D01*
X17730000Y-3210000D02*
X17720000Y-3220000D01*
X17720000Y-3445000D02*
X17730000Y-3455000D01*
X17730000Y-3445000D02*
X17720000Y-3455000D01*
X17720000Y-3665000D02*
X17730000Y-3675000D01*
X17730000Y-3665000D02*
X17720000Y-3675000D01*
X17720000Y-3890000D02*
X17730000Y-3900000D01*
X17730000Y-3890000D02*
X17720000Y-3900000D01*
X17720000Y-4115000D02*
X17730000Y-4125000D01*
X17730000Y-4115000D02*
X17720000Y-4125000D01*
X17720000Y-4345000D02*
X17730000Y-4355000D01*
X17730000Y-4345000D02*
X17720000Y-4355000D01*
X17720000Y-4565000D02*
X17730000Y-4575000D01*
X17730000Y-4565000D02*
X17720000Y-4575000D01*
X17720000Y-4780000D02*
X17730000Y-4790000D01*
X17730000Y-4780000D02*
X17720000Y-4790000D01*
X17720000Y-5005000D02*
X17730000Y-5015000D01*
X17730000Y-5005000D02*
X17720000Y-5015000D01*
X17720000Y-5240000D02*
X17730000Y-5250000D01*
X17730000Y-5240000D02*
X17720000Y-5250000D01*
X17720000Y-5480000D02*
X17730000Y-5490000D01*
X17730000Y-5480000D02*
X17720000Y-5490000D01*
X17720000Y-5715000D02*
X17730000Y-5725000D01*
X17730000Y-5715000D02*
X17720000Y-5725000D01*
X17720000Y-5965000D02*
X17730000Y-5975000D01*
X17730000Y-5965000D02*
X17720000Y-5975000D01*
X17720000Y-6195000D02*
X17730000Y-6205000D01*
X17730000Y-6195000D02*
X17720000Y-6205000D01*
X17720000Y-6375000D02*
X17730000Y-6385000D01*
X17730000Y-6375000D02*
X17720000Y-6385000D01*
X17845000Y-6420000D02*
X17855000Y-6430000D01*
X17855000Y-6420000D02*
X17845000Y-6430000D01*
X17890000Y-6770000D02*
X17900000Y-6780000D01*
X17900000Y-6770000D02*
X17890000Y-6780000D01*
X17895000Y-2165000D02*
X17905000Y-2175000D01*
X17905000Y-2165000D02*
X17895000Y-2175000D01*
X17895000Y-2365000D02*
X17905000Y-2375000D01*
X17905000Y-2365000D02*
X17895000Y-2375000D01*
X17895000Y-2565000D02*
X17905000Y-2575000D01*
X17905000Y-2565000D02*
X17895000Y-2575000D01*
X17895000Y-2770000D02*
X17905000Y-2780000D01*
X17905000Y-2770000D02*
X17895000Y-2780000D01*
X17895000Y-2985000D02*
X17905000Y-2995000D01*
X17905000Y-2985000D02*
X17895000Y-2995000D01*
X17895000Y-3215000D02*
X17905000Y-3225000D01*
X17905000Y-3215000D02*
X17895000Y-3225000D01*
X17895000Y-3450000D02*
X17905000Y-3460000D01*
X17905000Y-3450000D02*
X17895000Y-3460000D01*
X17895000Y-3665000D02*
X17905000Y-3675000D01*
X17905000Y-3665000D02*
X17895000Y-3675000D01*
X17895000Y-3890000D02*
X17905000Y-3900000D01*
X17905000Y-3890000D02*
X17895000Y-3900000D01*
X17895000Y-4115000D02*
X17905000Y-4125000D01*
X17905000Y-4115000D02*
X17895000Y-4125000D01*
X17895000Y-4340000D02*
X17905000Y-4350000D01*
X17905000Y-4340000D02*
X17895000Y-4350000D01*
X17895000Y-4565000D02*
X17905000Y-4575000D01*
X17905000Y-4565000D02*
X17895000Y-4575000D01*
X17895000Y-4785000D02*
X17905000Y-4795000D01*
X17905000Y-4785000D02*
X17895000Y-4795000D01*
X17895000Y-5005000D02*
X17905000Y-5015000D01*
X17905000Y-5005000D02*
X17895000Y-5015000D01*
X17895000Y-5240000D02*
X17905000Y-5250000D01*
X17905000Y-5240000D02*
X17895000Y-5250000D01*
X17895000Y-5480000D02*
X17905000Y-5490000D01*
X17905000Y-5480000D02*
X17895000Y-5490000D01*
X17895000Y-5715000D02*
X17905000Y-5725000D01*
X17905000Y-5715000D02*
X17895000Y-5725000D01*
X17895000Y-5965000D02*
X17905000Y-5975000D01*
X17905000Y-5965000D02*
X17895000Y-5975000D01*
X17895000Y-6230000D02*
X17905000Y-6240000D01*
X17905000Y-6230000D02*
X17895000Y-6240000D01*
X17895000Y-6380000D02*
X17905000Y-6390000D01*
X17905000Y-6380000D02*
X17895000Y-6390000D01*
X17895000Y-6595000D02*
X17905000Y-6605000D01*
X17905000Y-6595000D02*
X17895000Y-6605000D01*
X18065000Y-2155000D02*
X18075000Y-2165000D01*
X18075000Y-2155000D02*
X18065000Y-2165000D01*
X18070000Y-6190000D02*
X18080000Y-6200000D01*
X18080000Y-6190000D02*
X18070000Y-6200000D01*
X18070000Y-6380000D02*
X18080000Y-6390000D01*
X18080000Y-6380000D02*
X18070000Y-6390000D01*
X18070000Y-6595000D02*
X18080000Y-6605000D01*
X18080000Y-6595000D02*
X18070000Y-6605000D01*
X18070000Y-6780000D02*
X18080000Y-6790000D01*
X18080000Y-6780000D02*
X18070000Y-6790000D01*
X18070000Y-6960000D02*
X18080000Y-6970000D01*
X18080000Y-6960000D02*
X18070000Y-6970000D01*
X18070000Y-7305000D02*
X18080000Y-7315000D01*
X18080000Y-7305000D02*
X18070000Y-7315000D01*
X18076202Y-2365000D02*
X18086202Y-2375000D01*
X18086202Y-2365000D02*
X18076202Y-2375000D01*
X18076202Y-2565000D02*
X18086202Y-2575000D01*
X18086202Y-2565000D02*
X18076202Y-2575000D01*
X18076202Y-2770000D02*
X18086202Y-2780000D01*
X18086202Y-2770000D02*
X18076202Y-2780000D01*
X18076202Y-2980000D02*
X18086202Y-2990000D01*
X18086202Y-2980000D02*
X18076202Y-2990000D01*
X18076202Y-3215000D02*
X18086202Y-3225000D01*
X18086202Y-3215000D02*
X18076202Y-3225000D01*
X18076202Y-3445000D02*
X18086202Y-3455000D01*
X18086202Y-3445000D02*
X18076202Y-3455000D01*
X18076202Y-3665000D02*
X18086202Y-3675000D01*
X18086202Y-3665000D02*
X18076202Y-3675000D01*
X18076202Y-3890569D02*
X18086202Y-3900569D01*
X18086202Y-3890569D02*
X18076202Y-3900569D01*
X18076202Y-4105000D02*
X18086202Y-4115000D01*
X18086202Y-4105000D02*
X18076202Y-4115000D01*
X18076202Y-4340000D02*
X18086202Y-4350000D01*
X18086202Y-4340000D02*
X18076202Y-4350000D01*
X18076202Y-4560000D02*
X18086202Y-4570000D01*
X18086202Y-4560000D02*
X18076202Y-4570000D01*
X18076202Y-4770000D02*
X18086202Y-4780000D01*
X18086202Y-4770000D02*
X18076202Y-4780000D01*
X18076202Y-5000000D02*
X18086202Y-5010000D01*
X18086202Y-5000000D02*
X18076202Y-5010000D01*
X18076202Y-5230000D02*
X18086202Y-5240000D01*
X18086202Y-5230000D02*
X18076202Y-5240000D01*
X18076202Y-5485000D02*
X18086202Y-5495000D01*
X18086202Y-5485000D02*
X18076202Y-5495000D01*
X18076202Y-5715000D02*
X18086202Y-5725000D01*
X18086202Y-5715000D02*
X18076202Y-5725000D01*
X18076202Y-5965000D02*
X18086202Y-5975000D01*
X18086202Y-5965000D02*
X18076202Y-5975000D01*
X18076202Y-6140386D02*
X18086202Y-6150386D01*
X18086202Y-6140386D02*
X18076202Y-6150386D01*
X18233206Y-2156915D02*
X18243206Y-2166915D01*
X18243206Y-2156915D02*
X18233206Y-2166915D01*
X18235000Y-2365000D02*
X18245000Y-2375000D01*
X18245000Y-2365000D02*
X18235000Y-2375000D01*
X18235000Y-2570000D02*
X18245000Y-2580000D01*
X18245000Y-2570000D02*
X18235000Y-2580000D01*
X18235000Y-2770000D02*
X18245000Y-2780000D01*
X18245000Y-2770000D02*
X18235000Y-2780000D01*
X18235000Y-2980000D02*
X18245000Y-2990000D01*
X18245000Y-2980000D02*
X18235000Y-2990000D01*
X18235000Y-3215000D02*
X18245000Y-3225000D01*
X18245000Y-3215000D02*
X18235000Y-3225000D01*
X18235000Y-3445000D02*
X18245000Y-3455000D01*
X18245000Y-3445000D02*
X18235000Y-3455000D01*
X18235000Y-3665000D02*
X18245000Y-3675000D01*
X18245000Y-3665000D02*
X18235000Y-3675000D01*
X18235000Y-3895000D02*
X18245000Y-3905000D01*
X18245000Y-3895000D02*
X18235000Y-3905000D01*
X18235000Y-4115000D02*
X18245000Y-4125000D01*
X18245000Y-4115000D02*
X18235000Y-4125000D01*
X18235000Y-4345000D02*
X18245000Y-4355000D01*
X18245000Y-4345000D02*
X18235000Y-4355000D01*
X18235000Y-4565000D02*
X18245000Y-4575000D01*
X18245000Y-4565000D02*
X18235000Y-4575000D01*
X18235000Y-4780000D02*
X18245000Y-4790000D01*
X18245000Y-4780000D02*
X18235000Y-4790000D01*
X18235000Y-5005000D02*
X18245000Y-5015000D01*
X18245000Y-5005000D02*
X18235000Y-5015000D01*
X18235000Y-5235000D02*
X18245000Y-5245000D01*
X18245000Y-5235000D02*
X18235000Y-5245000D01*
X18235000Y-5480000D02*
X18245000Y-5490000D01*
X18245000Y-5480000D02*
X18235000Y-5490000D01*
X18235000Y-5705000D02*
X18245000Y-5715000D01*
X18245000Y-5705000D02*
X18235000Y-5715000D01*
X18235000Y-5915000D02*
X18245000Y-5925000D01*
X18245000Y-5915000D02*
X18235000Y-5925000D01*
X18240000Y-5965000D02*
X18250000Y-5975000D01*
X18250000Y-5965000D02*
X18240000Y-5975000D01*
X18240000Y-6190000D02*
X18250000Y-6200000D01*
X18250000Y-6190000D02*
X18240000Y-6200000D01*
X18240000Y-6380000D02*
X18250000Y-6390000D01*
X18250000Y-6380000D02*
X18240000Y-6390000D01*
X18241399Y-6598870D02*
X18251399Y-6608870D01*
X18251399Y-6598870D02*
X18241399Y-6608870D01*
X18245000Y-6775000D02*
X18255000Y-6785000D01*
X18255000Y-6775000D02*
X18245000Y-6785000D01*
X18250000Y-6970000D02*
X18260000Y-6980000D01*
X18260000Y-6970000D02*
X18250000Y-6980000D01*
X18415000Y-2365000D02*
X18425000Y-2375000D01*
X18425000Y-2365000D02*
X18415000Y-2375000D01*
X18415000Y-2565000D02*
X18425000Y-2575000D01*
X18425000Y-2565000D02*
X18415000Y-2575000D01*
X18415000Y-2765000D02*
X18425000Y-2775000D01*
X18425000Y-2765000D02*
X18415000Y-2775000D01*
X18415000Y-2985000D02*
X18425000Y-2995000D01*
X18425000Y-2985000D02*
X18415000Y-2995000D01*
X18415000Y-3205000D02*
X18425000Y-3215000D01*
X18425000Y-3205000D02*
X18415000Y-3215000D01*
X18415000Y-3435000D02*
X18425000Y-3445000D01*
X18425000Y-3435000D02*
X18415000Y-3445000D01*
X18415000Y-3665000D02*
X18425000Y-3675000D01*
X18425000Y-3665000D02*
X18415000Y-3675000D01*
X18415000Y-3890000D02*
X18425000Y-3900000D01*
X18425000Y-3890000D02*
X18415000Y-3900000D01*
X18415000Y-4110000D02*
X18425000Y-4120000D01*
X18425000Y-4110000D02*
X18415000Y-4120000D01*
X18415000Y-4340000D02*
X18425000Y-4350000D01*
X18425000Y-4340000D02*
X18415000Y-4350000D01*
X18415000Y-4560000D02*
X18425000Y-4570000D01*
X18425000Y-4560000D02*
X18415000Y-4570000D01*
X18415000Y-4775000D02*
X18425000Y-4785000D01*
X18425000Y-4775000D02*
X18415000Y-4785000D01*
X18415000Y-4992791D02*
X18425000Y-5002791D01*
X18425000Y-4992791D02*
X18415000Y-5002791D01*
X18415000Y-5230000D02*
X18425000Y-5240000D01*
X18425000Y-5230000D02*
X18415000Y-5240000D01*
X18415000Y-5470000D02*
X18425000Y-5480000D01*
X18425000Y-5470000D02*
X18415000Y-5480000D01*
X18415000Y-5660000D02*
X18425000Y-5670000D01*
X18425000Y-5660000D02*
X18415000Y-5670000D01*
X18415000Y-5710000D02*
X18425000Y-5720000D01*
X18425000Y-5710000D02*
X18415000Y-5720000D01*
X18415000Y-5965000D02*
X18425000Y-5975000D01*
X18425000Y-5965000D02*
X18415000Y-5975000D01*
X18415000Y-6194560D02*
X18425000Y-6204560D01*
X18425000Y-6194560D02*
X18415000Y-6204560D01*
X18415000Y-6595000D02*
X18425000Y-6605000D01*
X18425000Y-6595000D02*
X18415000Y-6605000D01*
X18415000Y-6820000D02*
X18425000Y-6830000D01*
X18425000Y-6820000D02*
X18415000Y-6830000D01*
X18415000Y-6959949D02*
X18425000Y-6969949D01*
X18425000Y-6959949D02*
X18415000Y-6969949D01*
X18420000Y-2160000D02*
X18430000Y-2170000D01*
X18430000Y-2160000D02*
X18420000Y-2170000D01*
X18420000Y-6375000D02*
X18430000Y-6385000D01*
X18430000Y-6375000D02*
X18420000Y-6385000D01*
X18425000Y-9225000D02*
X18435000Y-9235000D01*
X18435000Y-9225000D02*
X18425000Y-9235000D01*
X18590000Y-6595000D02*
X18600000Y-6605000D01*
X18600000Y-6595000D02*
X18590000Y-6605000D01*
X18595000Y-2160000D02*
X18605000Y-2170000D01*
X18605000Y-2160000D02*
X18595000Y-2170000D01*
X18595000Y-5475000D02*
X18605000Y-5485000D01*
X18605000Y-5475000D02*
X18595000Y-5485000D01*
X18595000Y-5715000D02*
X18605000Y-5725000D01*
X18605000Y-5715000D02*
X18595000Y-5725000D01*
X18595000Y-5970000D02*
X18605000Y-5980000D01*
X18605000Y-5970000D02*
X18595000Y-5980000D01*
X18595000Y-6195000D02*
X18605000Y-6205000D01*
X18605000Y-6195000D02*
X18595000Y-6205000D01*
X18595000Y-6375000D02*
X18605000Y-6385000D01*
X18605000Y-6375000D02*
X18595000Y-6385000D01*
X18595000Y-6820000D02*
X18605000Y-6830000D01*
X18605000Y-6820000D02*
X18595000Y-6830000D01*
X18595000Y-6959949D02*
X18605000Y-6969949D01*
X18605000Y-6959949D02*
X18595000Y-6969949D01*
X18600000Y-2365000D02*
X18610000Y-2375000D01*
X18610000Y-2365000D02*
X18600000Y-2375000D01*
X18600000Y-2555000D02*
X18610000Y-2565000D01*
X18610000Y-2555000D02*
X18600000Y-2565000D01*
X18600000Y-2765000D02*
X18610000Y-2775000D01*
X18610000Y-2765000D02*
X18600000Y-2775000D01*
X18600000Y-2975000D02*
X18610000Y-2985000D01*
X18610000Y-2975000D02*
X18600000Y-2985000D01*
X18600000Y-3205000D02*
X18610000Y-3215000D01*
X18610000Y-3205000D02*
X18600000Y-3215000D01*
X18600000Y-3435000D02*
X18610000Y-3445000D01*
X18610000Y-3435000D02*
X18600000Y-3445000D01*
X18600000Y-3650000D02*
X18610000Y-3660000D01*
X18610000Y-3650000D02*
X18600000Y-3660000D01*
X18600000Y-3865000D02*
X18610000Y-3875000D01*
X18610000Y-3865000D02*
X18600000Y-3875000D01*
X18600000Y-4105000D02*
X18610000Y-4115000D01*
X18610000Y-4105000D02*
X18600000Y-4115000D01*
X18600000Y-4320000D02*
X18610000Y-4330000D01*
X18610000Y-4320000D02*
X18600000Y-4330000D01*
X18600000Y-4560000D02*
X18610000Y-4570000D01*
X18610000Y-4560000D02*
X18600000Y-4570000D01*
X18600000Y-4770000D02*
X18610000Y-4780000D01*
X18610000Y-4770000D02*
X18600000Y-4780000D01*
X18600000Y-4990000D02*
X18610000Y-5000000D01*
X18610000Y-4990000D02*
X18600000Y-5000000D01*
X18600000Y-5225000D02*
X18610000Y-5235000D01*
X18610000Y-5225000D02*
X18600000Y-5235000D01*
X18600000Y-5425000D02*
X18610000Y-5435000D01*
X18610000Y-5425000D02*
X18600000Y-5435000D01*
X18765000Y-6595000D02*
X18775000Y-6605000D01*
X18775000Y-6595000D02*
X18765000Y-6605000D01*
X18770000Y-2160000D02*
X18780000Y-2170000D01*
X18780000Y-2160000D02*
X18770000Y-2170000D01*
X18770000Y-5230000D02*
X18780000Y-5240000D01*
X18780000Y-5230000D02*
X18770000Y-5240000D01*
X18770000Y-5490000D02*
X18780000Y-5500000D01*
X18780000Y-5490000D02*
X18770000Y-5500000D01*
X18770000Y-5715000D02*
X18780000Y-5725000D01*
X18780000Y-5715000D02*
X18770000Y-5725000D01*
X18770000Y-5965000D02*
X18780000Y-5975000D01*
X18780000Y-5965000D02*
X18770000Y-5975000D01*
X18770000Y-6190000D02*
X18780000Y-6200000D01*
X18780000Y-6190000D02*
X18770000Y-6200000D01*
X18770000Y-6370000D02*
X18780000Y-6380000D01*
X18780000Y-6370000D02*
X18770000Y-6380000D01*
X18770000Y-6815000D02*
X18780000Y-6825000D01*
X18780000Y-6815000D02*
X18770000Y-6825000D01*
X18770000Y-6959949D02*
X18780000Y-6969949D01*
X18780000Y-6959949D02*
X18770000Y-6969949D01*
X18775522Y-2360000D02*
X18785522Y-2370000D01*
X18785522Y-2360000D02*
X18775522Y-2370000D01*
X18775522Y-2515000D02*
X18785522Y-2525000D01*
X18785522Y-2515000D02*
X18775522Y-2525000D01*
X18775522Y-2760000D02*
X18785522Y-2770000D01*
X18785522Y-2760000D02*
X18775522Y-2770000D01*
X18775522Y-2970000D02*
X18785522Y-2980000D01*
X18785522Y-2970000D02*
X18775522Y-2980000D01*
X18775522Y-3210000D02*
X18785522Y-3220000D01*
X18785522Y-3210000D02*
X18775522Y-3220000D01*
X18775522Y-3445000D02*
X18785522Y-3455000D01*
X18785522Y-3445000D02*
X18775522Y-3455000D01*
X18775522Y-3665000D02*
X18785522Y-3675000D01*
X18785522Y-3665000D02*
X18775522Y-3675000D01*
X18775522Y-3885000D02*
X18785522Y-3895000D01*
X18785522Y-3885000D02*
X18775522Y-3895000D01*
X18775522Y-4115000D02*
X18785522Y-4125000D01*
X18785522Y-4115000D02*
X18775522Y-4125000D01*
X18775522Y-4340000D02*
X18785522Y-4350000D01*
X18785522Y-4340000D02*
X18775522Y-4350000D01*
X18775522Y-4570000D02*
X18785522Y-4580000D01*
X18785522Y-4570000D02*
X18775522Y-4580000D01*
X18775522Y-4780000D02*
X18785522Y-4790000D01*
X18785522Y-4780000D02*
X18775522Y-4790000D01*
X18775522Y-5000000D02*
X18785522Y-5010000D01*
X18785522Y-5000000D02*
X18775522Y-5010000D01*
X18775522Y-5180306D02*
X18785522Y-5190306D01*
X18785522Y-5180306D02*
X18775522Y-5190306D01*
X18880000Y-8320000D02*
X18890000Y-8330000D01*
X18890000Y-8320000D02*
X18880000Y-8330000D01*
X18940000Y-6595000D02*
X18950000Y-6605000D01*
X18950000Y-6595000D02*
X18940000Y-6605000D01*
X18945000Y-2160000D02*
X18955000Y-2170000D01*
X18955000Y-2160000D02*
X18945000Y-2170000D01*
X18945000Y-5245000D02*
X18955000Y-5255000D01*
X18955000Y-5245000D02*
X18945000Y-5255000D01*
X18945000Y-5490000D02*
X18955000Y-5500000D01*
X18955000Y-5490000D02*
X18945000Y-5500000D01*
X18945000Y-5725000D02*
X18955000Y-5735000D01*
X18955000Y-5725000D02*
X18945000Y-5735000D01*
X18945000Y-5965000D02*
X18955000Y-5975000D01*
X18955000Y-5965000D02*
X18945000Y-5975000D01*
X18945000Y-6190000D02*
X18955000Y-6200000D01*
X18955000Y-6190000D02*
X18945000Y-6200000D01*
X18945000Y-6375000D02*
X18955000Y-6385000D01*
X18955000Y-6375000D02*
X18945000Y-6385000D01*
X18945000Y-6815000D02*
X18955000Y-6825000D01*
X18955000Y-6815000D02*
X18945000Y-6825000D01*
X18945000Y-6957828D02*
X18955000Y-6967828D01*
X18955000Y-6957828D02*
X18945000Y-6967828D01*
X18950000Y-4995000D02*
X18960000Y-5005000D01*
X18960000Y-4995000D02*
X18950000Y-5005000D01*
X18955000Y-2335000D02*
X18965000Y-2345000D01*
X18965000Y-2335000D02*
X18955000Y-2345000D01*
X18955000Y-2545000D02*
X18965000Y-2555000D01*
X18965000Y-2545000D02*
X18955000Y-2555000D01*
X18955000Y-2740000D02*
X18965000Y-2750000D01*
X18965000Y-2740000D02*
X18955000Y-2750000D01*
X18955000Y-2965000D02*
X18965000Y-2975000D01*
X18965000Y-2965000D02*
X18955000Y-2975000D01*
X18955000Y-3180000D02*
X18965000Y-3190000D01*
X18965000Y-3180000D02*
X18955000Y-3190000D01*
X18955000Y-3420000D02*
X18965000Y-3430000D01*
X18965000Y-3420000D02*
X18955000Y-3430000D01*
X18955000Y-3640000D02*
X18965000Y-3650000D01*
X18965000Y-3640000D02*
X18955000Y-3650000D01*
X18955000Y-3870000D02*
X18965000Y-3880000D01*
X18965000Y-3870000D02*
X18955000Y-3880000D01*
X18955000Y-4090000D02*
X18965000Y-4100000D01*
X18965000Y-4090000D02*
X18955000Y-4100000D01*
X18955000Y-4335000D02*
X18965000Y-4345000D01*
X18965000Y-4335000D02*
X18955000Y-4345000D01*
X18955000Y-4550000D02*
X18965000Y-4560000D01*
X18965000Y-4550000D02*
X18955000Y-4560000D01*
X18955000Y-4765000D02*
X18965000Y-4775000D01*
X18965000Y-4765000D02*
X18955000Y-4775000D01*
X18955000Y-4945000D02*
X18965000Y-4955000D01*
X18965000Y-4945000D02*
X18955000Y-4955000D01*
X19045000Y-8765000D02*
X19055000Y-8775000D01*
X19055000Y-8765000D02*
X19045000Y-8775000D01*
X19120000Y-2155000D02*
X19130000Y-2165000D01*
X19130000Y-2155000D02*
X19120000Y-2165000D01*
X19120000Y-2365000D02*
X19130000Y-2375000D01*
X19130000Y-2365000D02*
X19120000Y-2375000D01*
X19120000Y-2565000D02*
X19130000Y-2575000D01*
X19130000Y-2565000D02*
X19120000Y-2575000D01*
X19120000Y-2765000D02*
X19130000Y-2775000D01*
X19130000Y-2765000D02*
X19120000Y-2775000D01*
X19120000Y-2980000D02*
X19130000Y-2990000D01*
X19130000Y-2980000D02*
X19120000Y-2990000D01*
X19120000Y-3210000D02*
X19130000Y-3220000D01*
X19130000Y-3210000D02*
X19120000Y-3220000D01*
X19120000Y-3445000D02*
X19130000Y-3455000D01*
X19130000Y-3445000D02*
X19120000Y-3455000D01*
X19120000Y-3665000D02*
X19130000Y-3675000D01*
X19130000Y-3665000D02*
X19120000Y-3675000D01*
X19120000Y-3895000D02*
X19130000Y-3905000D01*
X19130000Y-3895000D02*
X19120000Y-3905000D01*
X19120000Y-4120000D02*
X19130000Y-4130000D01*
X19130000Y-4120000D02*
X19120000Y-4130000D01*
X19120000Y-4340000D02*
X19130000Y-4350000D01*
X19130000Y-4340000D02*
X19120000Y-4350000D01*
X19120000Y-4560000D02*
X19130000Y-4570000D01*
X19130000Y-4560000D02*
X19120000Y-4570000D01*
X19120000Y-4725000D02*
X19130000Y-4735000D01*
X19130000Y-4725000D02*
X19120000Y-4735000D01*
X19120000Y-4775000D02*
X19130000Y-4785000D01*
X19130000Y-4775000D02*
X19120000Y-4785000D01*
X19120000Y-5005000D02*
X19130000Y-5015000D01*
X19130000Y-5005000D02*
X19120000Y-5015000D01*
X19120000Y-5240000D02*
X19130000Y-5250000D01*
X19130000Y-5240000D02*
X19120000Y-5250000D01*
X19120000Y-5480000D02*
X19130000Y-5490000D01*
X19130000Y-5480000D02*
X19120000Y-5490000D01*
X19120000Y-5715000D02*
X19130000Y-5725000D01*
X19130000Y-5715000D02*
X19120000Y-5725000D01*
X19120000Y-5965000D02*
X19130000Y-5975000D01*
X19130000Y-5965000D02*
X19120000Y-5975000D01*
X19120000Y-6190000D02*
X19130000Y-6200000D01*
X19130000Y-6190000D02*
X19120000Y-6200000D01*
X19120000Y-6380000D02*
X19130000Y-6390000D01*
X19130000Y-6380000D02*
X19120000Y-6390000D01*
X19120000Y-6595000D02*
X19130000Y-6605000D01*
X19130000Y-6595000D02*
X19120000Y-6605000D01*
X19120000Y-6815000D02*
X19130000Y-6825000D01*
X19130000Y-6815000D02*
X19120000Y-6825000D01*
X19120000Y-6957828D02*
X19130000Y-6967828D01*
X19130000Y-6957828D02*
X19120000Y-6967828D01*
X19225000Y-9780000D02*
X19235000Y-9790000D01*
X19235000Y-9780000D02*
X19225000Y-9790000D01*
X19285000Y-2160000D02*
X19295000Y-2170000D01*
X19295000Y-2160000D02*
X19285000Y-2170000D01*
X19285681Y-2365000D02*
X19295681Y-2375000D01*
X19295681Y-2365000D02*
X19285681Y-2375000D01*
X19285681Y-2560000D02*
X19295681Y-2570000D01*
X19295681Y-2560000D02*
X19285681Y-2570000D01*
X19285681Y-2765000D02*
X19295681Y-2775000D01*
X19295681Y-2765000D02*
X19285681Y-2775000D01*
X19285681Y-2985000D02*
X19295681Y-2995000D01*
X19295681Y-2985000D02*
X19285681Y-2995000D01*
X19285681Y-3204146D02*
X19295681Y-3214146D01*
X19295681Y-3204146D02*
X19285681Y-3214146D01*
X19285681Y-3440000D02*
X19295681Y-3450000D01*
X19295681Y-3440000D02*
X19285681Y-3450000D01*
X19285681Y-3660000D02*
X19295681Y-3670000D01*
X19295681Y-3660000D02*
X19285681Y-3670000D01*
X19285681Y-3885000D02*
X19295681Y-3895000D01*
X19295681Y-3885000D02*
X19285681Y-3895000D01*
X19285681Y-4110000D02*
X19295681Y-4120000D01*
X19295681Y-4110000D02*
X19285681Y-4120000D01*
X19285681Y-4325000D02*
X19295681Y-4335000D01*
X19295681Y-4325000D02*
X19285681Y-4335000D01*
X19285681Y-4515306D02*
X19295681Y-4525306D01*
X19295681Y-4515306D02*
X19285681Y-4525306D01*
X19290000Y-6595000D02*
X19300000Y-6605000D01*
X19300000Y-6595000D02*
X19290000Y-6605000D01*
X19295000Y-4565000D02*
X19305000Y-4575000D01*
X19305000Y-4565000D02*
X19295000Y-4575000D01*
X19295000Y-4790000D02*
X19305000Y-4800000D01*
X19305000Y-4790000D02*
X19295000Y-4800000D01*
X19295000Y-5005000D02*
X19305000Y-5015000D01*
X19305000Y-5005000D02*
X19295000Y-5015000D01*
X19295000Y-5240000D02*
X19305000Y-5250000D01*
X19305000Y-5240000D02*
X19295000Y-5250000D01*
X19295000Y-5485000D02*
X19305000Y-5495000D01*
X19305000Y-5485000D02*
X19295000Y-5495000D01*
X19295000Y-5710000D02*
X19305000Y-5720000D01*
X19305000Y-5710000D02*
X19295000Y-5720000D01*
X19295000Y-5965000D02*
X19305000Y-5975000D01*
X19305000Y-5965000D02*
X19295000Y-5975000D01*
X19295000Y-6190000D02*
X19305000Y-6200000D01*
X19305000Y-6190000D02*
X19295000Y-6200000D01*
X19295000Y-6380000D02*
X19305000Y-6390000D01*
X19305000Y-6380000D02*
X19295000Y-6390000D01*
X19295000Y-6815000D02*
X19305000Y-6825000D01*
X19305000Y-6815000D02*
X19295000Y-6825000D01*
X19295000Y-6959949D02*
X19305000Y-6969949D01*
X19305000Y-6959949D02*
X19295000Y-6969949D01*
X19460000Y-2160000D02*
X19470000Y-2170000D01*
X19470000Y-2160000D02*
X19460000Y-2170000D01*
X19460376Y-2365000D02*
X19470376Y-2375000D01*
X19470376Y-2365000D02*
X19460376Y-2375000D01*
X19460376Y-2560000D02*
X19470376Y-2570000D01*
X19470376Y-2560000D02*
X19460376Y-2570000D01*
X19460376Y-2760000D02*
X19470376Y-2770000D01*
X19470376Y-2760000D02*
X19460376Y-2770000D01*
X19460376Y-2975000D02*
X19470376Y-2985000D01*
X19470376Y-2975000D02*
X19460376Y-2985000D01*
X19460376Y-3210000D02*
X19470376Y-3220000D01*
X19470376Y-3210000D02*
X19460376Y-3220000D01*
X19460376Y-3440000D02*
X19470376Y-3450000D01*
X19470376Y-3440000D02*
X19460376Y-3450000D01*
X19460376Y-3660000D02*
X19470376Y-3670000D01*
X19470376Y-3660000D02*
X19460376Y-3670000D01*
X19460376Y-3885000D02*
X19470376Y-3895000D01*
X19470376Y-3885000D02*
X19460376Y-3895000D01*
X19460376Y-4110000D02*
X19470376Y-4120000D01*
X19470376Y-4110000D02*
X19460376Y-4120000D01*
X19460376Y-4285935D02*
X19470376Y-4295935D01*
X19470376Y-4285935D02*
X19460376Y-4295935D01*
X19464253Y-6593806D02*
X19474253Y-6603806D01*
X19474253Y-6593806D02*
X19464253Y-6603806D01*
X19470000Y-4335000D02*
X19480000Y-4345000D01*
X19480000Y-4335000D02*
X19470000Y-4345000D01*
X19470000Y-4565000D02*
X19480000Y-4575000D01*
X19480000Y-4565000D02*
X19470000Y-4575000D01*
X19470000Y-4780000D02*
X19480000Y-4790000D01*
X19480000Y-4780000D02*
X19470000Y-4790000D01*
X19470000Y-5000000D02*
X19480000Y-5010000D01*
X19480000Y-5000000D02*
X19470000Y-5010000D01*
X19470000Y-5240000D02*
X19480000Y-5250000D01*
X19480000Y-5240000D02*
X19470000Y-5250000D01*
X19470000Y-5485000D02*
X19480000Y-5495000D01*
X19480000Y-5485000D02*
X19470000Y-5495000D01*
X19470000Y-5720000D02*
X19480000Y-5730000D01*
X19480000Y-5720000D02*
X19470000Y-5730000D01*
X19470000Y-5970000D02*
X19480000Y-5980000D01*
X19480000Y-5970000D02*
X19470000Y-5980000D01*
X19470000Y-6190000D02*
X19480000Y-6200000D01*
X19480000Y-6190000D02*
X19470000Y-6200000D01*
X19470000Y-6380000D02*
X19480000Y-6390000D01*
X19480000Y-6380000D02*
X19470000Y-6390000D01*
X19470000Y-6815000D02*
X19480000Y-6825000D01*
X19480000Y-6815000D02*
X19470000Y-6825000D01*
X19470000Y-6957828D02*
X19480000Y-6967828D01*
X19480000Y-6957828D02*
X19470000Y-6967828D01*
X19635000Y-6815000D02*
X19645000Y-6825000D01*
X19645000Y-6815000D02*
X19635000Y-6825000D01*
X19635000Y-6957828D02*
X19645000Y-6967828D01*
X19645000Y-6957828D02*
X19635000Y-6967828D01*
X19635466Y-2370000D02*
X19645466Y-2380000D01*
X19645466Y-2370000D02*
X19635466Y-2380000D01*
X19635466Y-2565000D02*
X19645466Y-2575000D01*
X19645466Y-2565000D02*
X19635466Y-2575000D01*
X19635466Y-2765000D02*
X19645466Y-2775000D01*
X19645466Y-2765000D02*
X19635466Y-2775000D01*
X19635466Y-2980000D02*
X19645466Y-2990000D01*
X19645466Y-2980000D02*
X19635466Y-2990000D01*
X19635466Y-3215000D02*
X19645466Y-3225000D01*
X19645466Y-3215000D02*
X19635466Y-3225000D01*
X19635466Y-3440000D02*
X19645466Y-3450000D01*
X19645466Y-3440000D02*
X19635466Y-3450000D01*
X19635466Y-3660000D02*
X19645466Y-3670000D01*
X19645466Y-3660000D02*
X19635466Y-3670000D01*
X19635466Y-3885000D02*
X19645466Y-3895000D01*
X19645466Y-3885000D02*
X19635466Y-3895000D01*
X19635466Y-4065206D02*
X19645466Y-4075206D01*
X19645466Y-4065206D02*
X19635466Y-4075206D01*
X19640000Y-2160000D02*
X19650000Y-2170000D01*
X19650000Y-2160000D02*
X19640000Y-2170000D01*
X19640000Y-4115000D02*
X19650000Y-4125000D01*
X19650000Y-4115000D02*
X19640000Y-4125000D01*
X19640000Y-4350000D02*
X19650000Y-4360000D01*
X19650000Y-4350000D02*
X19640000Y-4360000D01*
X19640000Y-4570000D02*
X19650000Y-4580000D01*
X19650000Y-4570000D02*
X19640000Y-4580000D01*
X19640000Y-4785000D02*
X19650000Y-4795000D01*
X19650000Y-4785000D02*
X19640000Y-4795000D01*
X19640000Y-5015000D02*
X19650000Y-5025000D01*
X19650000Y-5015000D02*
X19640000Y-5025000D01*
X19640000Y-5245000D02*
X19650000Y-5255000D01*
X19650000Y-5245000D02*
X19640000Y-5255000D01*
X19640000Y-5485000D02*
X19650000Y-5495000D01*
X19650000Y-5485000D02*
X19640000Y-5495000D01*
X19640000Y-5720000D02*
X19650000Y-5730000D01*
X19650000Y-5720000D02*
X19640000Y-5730000D01*
X19640000Y-5965000D02*
X19650000Y-5975000D01*
X19650000Y-5965000D02*
X19640000Y-5975000D01*
X19640000Y-6190000D02*
X19650000Y-6200000D01*
X19650000Y-6190000D02*
X19640000Y-6200000D01*
X19640000Y-6380000D02*
X19650000Y-6390000D01*
X19650000Y-6380000D02*
X19640000Y-6390000D01*
X19640000Y-6595000D02*
X19650000Y-6605000D01*
X19650000Y-6595000D02*
X19640000Y-6605000D01*
X19765000Y-8700000D02*
X19775000Y-8710000D01*
X19775000Y-8700000D02*
X19765000Y-8710000D01*
X19780000Y-8540000D02*
X19790000Y-8550000D01*
X19790000Y-8540000D02*
X19780000Y-8550000D01*
X19810485Y-2365000D02*
X19820485Y-2375000D01*
X19820485Y-2365000D02*
X19810485Y-2375000D01*
X19810485Y-2570000D02*
X19820485Y-2580000D01*
X19820485Y-2570000D02*
X19810485Y-2580000D01*
X19810485Y-2770000D02*
X19820485Y-2780000D01*
X19820485Y-2770000D02*
X19810485Y-2780000D01*
X19810485Y-2985000D02*
X19820485Y-2995000D01*
X19820485Y-2985000D02*
X19810485Y-2995000D01*
X19810485Y-3215000D02*
X19820485Y-3225000D01*
X19820485Y-3215000D02*
X19810485Y-3225000D01*
X19810485Y-3445000D02*
X19820485Y-3455000D01*
X19820485Y-3445000D02*
X19810485Y-3455000D01*
X19810485Y-3660000D02*
X19820485Y-3670000D01*
X19820485Y-3660000D02*
X19810485Y-3670000D01*
X19810485Y-3845913D02*
X19820485Y-3855913D01*
X19820485Y-3845913D02*
X19810485Y-3855913D01*
X19815000Y-2165000D02*
X19825000Y-2175000D01*
X19825000Y-2165000D02*
X19815000Y-2175000D01*
X19815000Y-6595000D02*
X19825000Y-6605000D01*
X19825000Y-6595000D02*
X19815000Y-6605000D01*
X19815000Y-6815000D02*
X19825000Y-6825000D01*
X19825000Y-6815000D02*
X19815000Y-6825000D01*
X19815000Y-6959949D02*
X19825000Y-6969949D01*
X19825000Y-6959949D02*
X19815000Y-6969949D01*
X19820000Y-3895000D02*
X19830000Y-3905000D01*
X19830000Y-3895000D02*
X19820000Y-3905000D01*
X19820000Y-4125000D02*
X19830000Y-4135000D01*
X19830000Y-4125000D02*
X19820000Y-4135000D01*
X19820000Y-4350000D02*
X19830000Y-4360000D01*
X19830000Y-4350000D02*
X19820000Y-4360000D01*
X19820000Y-4575000D02*
X19830000Y-4585000D01*
X19830000Y-4575000D02*
X19820000Y-4585000D01*
X19820000Y-4790000D02*
X19830000Y-4800000D01*
X19830000Y-4790000D02*
X19820000Y-4800000D01*
X19820000Y-5010000D02*
X19830000Y-5020000D01*
X19830000Y-5010000D02*
X19820000Y-5020000D01*
X19820000Y-5245000D02*
X19830000Y-5255000D01*
X19830000Y-5245000D02*
X19820000Y-5255000D01*
X19820000Y-5490000D02*
X19830000Y-5500000D01*
X19830000Y-5490000D02*
X19820000Y-5500000D01*
X19820000Y-5720000D02*
X19830000Y-5730000D01*
X19830000Y-5720000D02*
X19820000Y-5730000D01*
X19820000Y-5970000D02*
X19830000Y-5980000D01*
X19830000Y-5970000D02*
X19820000Y-5980000D01*
X19820000Y-6195000D02*
X19830000Y-6205000D01*
X19830000Y-6195000D02*
X19820000Y-6205000D01*
X19820000Y-6380000D02*
X19830000Y-6390000D01*
X19830000Y-6380000D02*
X19820000Y-6390000D01*
X19880000Y-6975000D02*
X19890000Y-6985000D01*
X19890000Y-6975000D02*
X19880000Y-6985000D01*
X19881458Y-8176128D02*
X19891458Y-8186128D01*
X19891458Y-8176128D02*
X19881458Y-8186128D01*
X19910000Y-7871569D02*
X19920000Y-7881569D01*
X19920000Y-7871569D02*
X19910000Y-7881569D01*
X19938552Y-8222460D02*
X19948552Y-8232460D01*
X19948552Y-8222460D02*
X19938552Y-8232460D01*
X19985000Y-2160000D02*
X19995000Y-2170000D01*
X19995000Y-2160000D02*
X19985000Y-2170000D01*
X19985000Y-2370000D02*
X19995000Y-2380000D01*
X19995000Y-2370000D02*
X19985000Y-2380000D01*
X19985000Y-2560000D02*
X19995000Y-2570000D01*
X19995000Y-2560000D02*
X19985000Y-2570000D01*
X19985000Y-2775000D02*
X19995000Y-2785000D01*
X19995000Y-2775000D02*
X19985000Y-2785000D01*
X19985000Y-2980000D02*
X19995000Y-2990000D01*
X19995000Y-2980000D02*
X19985000Y-2990000D01*
X19985000Y-3215000D02*
X19995000Y-3225000D01*
X19995000Y-3215000D02*
X19985000Y-3225000D01*
X19985000Y-3445000D02*
X19995000Y-3455000D01*
X19995000Y-3445000D02*
X19985000Y-3455000D01*
X19985681Y-3611243D02*
X19995681Y-3621243D01*
X19995681Y-3611243D02*
X19985681Y-3621243D01*
X19990000Y-6595000D02*
X20000000Y-6605000D01*
X20000000Y-6595000D02*
X19990000Y-6605000D01*
X19990000Y-6815000D02*
X20000000Y-6825000D01*
X20000000Y-6815000D02*
X19990000Y-6825000D01*
X19990000Y-6975000D02*
X20000000Y-6985000D01*
X20000000Y-6975000D02*
X19990000Y-6985000D01*
X19995000Y-3665000D02*
X20005000Y-3675000D01*
X20005000Y-3665000D02*
X19995000Y-3675000D01*
X19995000Y-3890000D02*
X20005000Y-3900000D01*
X20005000Y-3890000D02*
X19995000Y-3900000D01*
X19995000Y-4120000D02*
X20005000Y-4130000D01*
X20005000Y-4120000D02*
X19995000Y-4130000D01*
X19995000Y-4345000D02*
X20005000Y-4355000D01*
X20005000Y-4345000D02*
X19995000Y-4355000D01*
X19995000Y-4565000D02*
X20005000Y-4575000D01*
X20005000Y-4565000D02*
X19995000Y-4575000D01*
X19995000Y-4785000D02*
X20005000Y-4795000D01*
X20005000Y-4785000D02*
X19995000Y-4795000D01*
X19995000Y-5000000D02*
X20005000Y-5010000D01*
X20005000Y-5000000D02*
X19995000Y-5010000D01*
X19995000Y-5245000D02*
X20005000Y-5255000D01*
X20005000Y-5245000D02*
X19995000Y-5255000D01*
X19995000Y-5480000D02*
X20005000Y-5490000D01*
X20005000Y-5480000D02*
X19995000Y-5490000D01*
X19995000Y-5715000D02*
X20005000Y-5725000D01*
X20005000Y-5715000D02*
X19995000Y-5725000D01*
X19995000Y-5965000D02*
X20005000Y-5975000D01*
X20005000Y-5965000D02*
X19995000Y-5975000D01*
X19995000Y-6190000D02*
X20005000Y-6200000D01*
X20005000Y-6190000D02*
X19995000Y-6200000D01*
X19995000Y-6370000D02*
X20005000Y-6380000D01*
X20005000Y-6370000D02*
X19995000Y-6380000D01*
X19995000Y-9350000D02*
X20005000Y-9360000D01*
X20005000Y-9350000D02*
X19995000Y-9360000D01*
X20005000Y-8225000D02*
X20015000Y-8235000D01*
X20015000Y-8225000D02*
X20005000Y-8235000D01*
X20020000Y-9295000D02*
X20030000Y-9305000D01*
X20030000Y-9295000D02*
X20020000Y-9305000D01*
X20045000Y-8700000D02*
X20055000Y-8710000D01*
X20055000Y-8700000D02*
X20045000Y-8710000D01*
X20120000Y-6980000D02*
X20130000Y-6990000D01*
X20130000Y-6980000D02*
X20120000Y-6990000D01*
X20165000Y-3445000D02*
X20175000Y-3455000D01*
X20175000Y-3445000D02*
X20165000Y-3455000D01*
X20165000Y-3665000D02*
X20175000Y-3675000D01*
X20175000Y-3665000D02*
X20165000Y-3675000D01*
X20165000Y-3890000D02*
X20175000Y-3900000D01*
X20175000Y-3890000D02*
X20165000Y-3900000D01*
X20165000Y-4115000D02*
X20175000Y-4125000D01*
X20175000Y-4115000D02*
X20165000Y-4125000D01*
X20165000Y-4344412D02*
X20175000Y-4354412D01*
X20175000Y-4344412D02*
X20165000Y-4354412D01*
X20165000Y-4565000D02*
X20175000Y-4575000D01*
X20175000Y-4565000D02*
X20165000Y-4575000D01*
X20165000Y-4785000D02*
X20175000Y-4795000D01*
X20175000Y-4785000D02*
X20165000Y-4795000D01*
X20165000Y-5005000D02*
X20175000Y-5015000D01*
X20175000Y-5005000D02*
X20165000Y-5015000D01*
X20165000Y-5240000D02*
X20175000Y-5250000D01*
X20175000Y-5240000D02*
X20165000Y-5250000D01*
X20165000Y-5480000D02*
X20175000Y-5490000D01*
X20175000Y-5480000D02*
X20165000Y-5490000D01*
X20165000Y-5715000D02*
X20175000Y-5725000D01*
X20175000Y-5715000D02*
X20165000Y-5725000D01*
X20165000Y-5965000D02*
X20175000Y-5975000D01*
X20175000Y-5965000D02*
X20165000Y-5975000D01*
X20165000Y-6190000D02*
X20175000Y-6200000D01*
X20175000Y-6190000D02*
X20165000Y-6200000D01*
X20165000Y-6380000D02*
X20175000Y-6390000D01*
X20175000Y-6380000D02*
X20165000Y-6390000D01*
X20165000Y-6595000D02*
X20175000Y-6605000D01*
X20175000Y-6595000D02*
X20165000Y-6605000D01*
X20165000Y-6815000D02*
X20175000Y-6825000D01*
X20175000Y-6815000D02*
X20165000Y-6825000D01*
X20170000Y-2155000D02*
X20180000Y-2165000D01*
X20180000Y-2155000D02*
X20170000Y-2165000D01*
X20170522Y-2365000D02*
X20180522Y-2375000D01*
X20180522Y-2365000D02*
X20170522Y-2375000D01*
X20170522Y-2565000D02*
X20180522Y-2575000D01*
X20180522Y-2565000D02*
X20170522Y-2575000D01*
X20170522Y-2765000D02*
X20180522Y-2775000D01*
X20180522Y-2765000D02*
X20170522Y-2775000D01*
X20170522Y-2980000D02*
X20180522Y-2990000D01*
X20180522Y-2980000D02*
X20170522Y-2990000D01*
X20170522Y-3210000D02*
X20180522Y-3220000D01*
X20180522Y-3210000D02*
X20170522Y-3220000D01*
X20170522Y-3395306D02*
X20180522Y-3405306D01*
X20180522Y-3395306D02*
X20170522Y-3405306D01*
X20205000Y-9350000D02*
X20215000Y-9360000D01*
X20215000Y-9350000D02*
X20205000Y-9360000D01*
X20210000Y-8265000D02*
X20220000Y-8275000D01*
X20220000Y-8265000D02*
X20210000Y-8275000D01*
X20233389Y-7783388D02*
X20243389Y-7793388D01*
X20243389Y-7783388D02*
X20233389Y-7793388D01*
X20255000Y-6975000D02*
X20265000Y-6985000D01*
X20265000Y-6975000D02*
X20255000Y-6985000D01*
X20300000Y-8250000D02*
X20310000Y-8260000D01*
X20310000Y-8250000D02*
X20300000Y-8260000D01*
X20307708Y-7772708D02*
X20317708Y-7782708D01*
X20317708Y-7772708D02*
X20307708Y-7782708D01*
X20335000Y-6815000D02*
X20345000Y-6825000D01*
X20345000Y-6815000D02*
X20335000Y-6825000D01*
X20335593Y-3165194D02*
X20345593Y-3175194D01*
X20345593Y-3165194D02*
X20335593Y-3175194D01*
X20340000Y-2160000D02*
X20350000Y-2170000D01*
X20350000Y-2160000D02*
X20340000Y-2170000D01*
X20340000Y-2365000D02*
X20350000Y-2375000D01*
X20350000Y-2365000D02*
X20340000Y-2375000D01*
X20340000Y-2565000D02*
X20350000Y-2575000D01*
X20350000Y-2565000D02*
X20340000Y-2575000D01*
X20340000Y-2770000D02*
X20350000Y-2780000D01*
X20350000Y-2770000D02*
X20340000Y-2780000D01*
X20340000Y-2980000D02*
X20350000Y-2990000D01*
X20350000Y-2980000D02*
X20340000Y-2990000D01*
X20340000Y-3215000D02*
X20350000Y-3225000D01*
X20350000Y-3215000D02*
X20340000Y-3225000D01*
X20340000Y-3450000D02*
X20350000Y-3460000D01*
X20350000Y-3450000D02*
X20340000Y-3460000D01*
X20340000Y-3660000D02*
X20350000Y-3670000D01*
X20350000Y-3660000D02*
X20340000Y-3670000D01*
X20340000Y-3890000D02*
X20350000Y-3900000D01*
X20350000Y-3890000D02*
X20340000Y-3900000D01*
X20340000Y-4120000D02*
X20350000Y-4130000D01*
X20350000Y-4120000D02*
X20340000Y-4130000D01*
X20340000Y-4345000D02*
X20350000Y-4355000D01*
X20350000Y-4345000D02*
X20340000Y-4355000D01*
X20340000Y-4565000D02*
X20350000Y-4575000D01*
X20350000Y-4565000D02*
X20340000Y-4575000D01*
X20340000Y-4780000D02*
X20350000Y-4790000D01*
X20350000Y-4780000D02*
X20340000Y-4790000D01*
X20340000Y-5005000D02*
X20350000Y-5015000D01*
X20350000Y-5005000D02*
X20340000Y-5015000D01*
X20340000Y-5240000D02*
X20350000Y-5250000D01*
X20350000Y-5240000D02*
X20340000Y-5250000D01*
X20340000Y-5480000D02*
X20350000Y-5490000D01*
X20350000Y-5480000D02*
X20340000Y-5490000D01*
X20340000Y-5710000D02*
X20350000Y-5720000D01*
X20350000Y-5710000D02*
X20340000Y-5720000D01*
X20340000Y-5964481D02*
X20350000Y-5974481D01*
X20350000Y-5964481D02*
X20340000Y-5974481D01*
X20340000Y-6191892D02*
X20350000Y-6201892D01*
X20350000Y-6191892D02*
X20340000Y-6201892D01*
X20340000Y-6375000D02*
X20350000Y-6385000D01*
X20350000Y-6375000D02*
X20340000Y-6385000D01*
X20340000Y-6590000D02*
X20350000Y-6600000D01*
X20350000Y-6590000D02*
X20340000Y-6600000D01*
X20355000Y-7790000D02*
X20365000Y-7800000D01*
X20365000Y-7790000D02*
X20355000Y-7800000D01*
X20445000Y-7770000D02*
X20455000Y-7780000D01*
X20455000Y-7770000D02*
X20445000Y-7780000D01*
X20465000Y-6990000D02*
X20475000Y-7000000D01*
X20475000Y-6990000D02*
X20465000Y-7000000D01*
X20465784Y-7820784D02*
X20475784Y-7830784D01*
X20475784Y-7820784D02*
X20465784Y-7830784D01*
X20470000Y-8445000D02*
X20480000Y-8455000D01*
X20480000Y-8445000D02*
X20470000Y-8455000D01*
X20515000Y-2975000D02*
X20525000Y-2985000D01*
X20525000Y-2975000D02*
X20515000Y-2985000D01*
X20515000Y-3215000D02*
X20525000Y-3225000D01*
X20525000Y-3215000D02*
X20515000Y-3225000D01*
X20515000Y-3445000D02*
X20525000Y-3455000D01*
X20525000Y-3445000D02*
X20515000Y-3455000D01*
X20515000Y-3665000D02*
X20525000Y-3675000D01*
X20525000Y-3665000D02*
X20515000Y-3675000D01*
X20515000Y-3895000D02*
X20525000Y-3905000D01*
X20525000Y-3895000D02*
X20515000Y-3905000D01*
X20515000Y-4120000D02*
X20525000Y-4130000D01*
X20525000Y-4120000D02*
X20515000Y-4130000D01*
X20515000Y-4345000D02*
X20525000Y-4355000D01*
X20525000Y-4345000D02*
X20515000Y-4355000D01*
X20515000Y-4570000D02*
X20525000Y-4580000D01*
X20525000Y-4570000D02*
X20515000Y-4580000D01*
X20515000Y-4785000D02*
X20525000Y-4795000D01*
X20525000Y-4785000D02*
X20515000Y-4795000D01*
X20515000Y-5005000D02*
X20525000Y-5015000D01*
X20525000Y-5005000D02*
X20515000Y-5015000D01*
X20515000Y-5240000D02*
X20525000Y-5250000D01*
X20525000Y-5240000D02*
X20515000Y-5250000D01*
X20515000Y-5480000D02*
X20525000Y-5490000D01*
X20525000Y-5480000D02*
X20515000Y-5490000D01*
X20515000Y-5715000D02*
X20525000Y-5725000D01*
X20525000Y-5715000D02*
X20515000Y-5725000D01*
X20515000Y-5965000D02*
X20525000Y-5975000D01*
X20525000Y-5965000D02*
X20515000Y-5975000D01*
X20515000Y-6185000D02*
X20525000Y-6195000D01*
X20525000Y-6185000D02*
X20515000Y-6195000D01*
X20515000Y-6375000D02*
X20525000Y-6385000D01*
X20525000Y-6375000D02*
X20515000Y-6385000D01*
X20515000Y-6595000D02*
X20525000Y-6605000D01*
X20525000Y-6595000D02*
X20515000Y-6605000D01*
X20515000Y-6815000D02*
X20525000Y-6825000D01*
X20525000Y-6815000D02*
X20515000Y-6825000D01*
X20520000Y-2165000D02*
X20530000Y-2175000D01*
X20530000Y-2165000D02*
X20520000Y-2175000D01*
X20520522Y-2367708D02*
X20530522Y-2377708D01*
X20530522Y-2367708D02*
X20520522Y-2377708D01*
X20520522Y-2565000D02*
X20530522Y-2575000D01*
X20530522Y-2565000D02*
X20520522Y-2575000D01*
X20520522Y-2765000D02*
X20530522Y-2775000D01*
X20530522Y-2765000D02*
X20520522Y-2775000D01*
X20520522Y-2925306D02*
X20530522Y-2935306D01*
X20530522Y-2925306D02*
X20520522Y-2935306D01*
X20550000Y-9520000D02*
X20560000Y-9530000D01*
X20560000Y-9520000D02*
X20550000Y-9530000D01*
X20550000Y-9770000D02*
X20560000Y-9780000D01*
X20560000Y-9770000D02*
X20550000Y-9780000D01*
X20575000Y-7000000D02*
X20585000Y-7010000D01*
X20585000Y-7000000D02*
X20575000Y-7010000D01*
X20600000Y-9350000D02*
X20610000Y-9360000D01*
X20610000Y-9350000D02*
X20600000Y-9360000D01*
X20620000Y-8445000D02*
X20630000Y-8455000D01*
X20630000Y-8445000D02*
X20620000Y-8455000D01*
X20640000Y-2820000D02*
X20650000Y-2830000D01*
X20650000Y-2820000D02*
X20640000Y-2830000D01*
X20645000Y-8695000D02*
X20655000Y-8705000D01*
X20655000Y-8695000D02*
X20645000Y-8705000D01*
X20690000Y-2765000D02*
X20700000Y-2775000D01*
X20700000Y-2765000D02*
X20690000Y-2775000D01*
X20690000Y-2975000D02*
X20700000Y-2985000D01*
X20700000Y-2975000D02*
X20690000Y-2985000D01*
X20690000Y-3215000D02*
X20700000Y-3225000D01*
X20700000Y-3215000D02*
X20690000Y-3225000D01*
X20690000Y-3442790D02*
X20700000Y-3452790D01*
X20700000Y-3442790D02*
X20690000Y-3452790D01*
X20690000Y-3665000D02*
X20700000Y-3675000D01*
X20700000Y-3665000D02*
X20690000Y-3675000D01*
X20690000Y-3890000D02*
X20700000Y-3900000D01*
X20700000Y-3890000D02*
X20690000Y-3900000D01*
X20690000Y-4115000D02*
X20700000Y-4125000D01*
X20700000Y-4115000D02*
X20690000Y-4125000D01*
X20690000Y-4340000D02*
X20700000Y-4350000D01*
X20700000Y-4340000D02*
X20690000Y-4350000D01*
X20690000Y-4565000D02*
X20700000Y-4575000D01*
X20700000Y-4565000D02*
X20690000Y-4575000D01*
X20690000Y-4780000D02*
X20700000Y-4790000D01*
X20700000Y-4780000D02*
X20690000Y-4790000D01*
X20690000Y-5000000D02*
X20700000Y-5010000D01*
X20700000Y-5000000D02*
X20690000Y-5010000D01*
X20690000Y-5234571D02*
X20700000Y-5244571D01*
X20700000Y-5234571D02*
X20690000Y-5244571D01*
X20690000Y-5485000D02*
X20700000Y-5495000D01*
X20700000Y-5485000D02*
X20690000Y-5495000D01*
X20690000Y-5715000D02*
X20700000Y-5725000D01*
X20700000Y-5715000D02*
X20690000Y-5725000D01*
X20690000Y-5965000D02*
X20700000Y-5975000D01*
X20700000Y-5965000D02*
X20690000Y-5975000D01*
X20690000Y-6185000D02*
X20700000Y-6195000D01*
X20700000Y-6185000D02*
X20690000Y-6195000D01*
X20690000Y-6380000D02*
X20700000Y-6390000D01*
X20700000Y-6380000D02*
X20690000Y-6390000D01*
X20690000Y-6595000D02*
X20700000Y-6605000D01*
X20700000Y-6595000D02*
X20690000Y-6605000D01*
X20690000Y-6815000D02*
X20700000Y-6825000D01*
X20700000Y-6815000D02*
X20690000Y-6825000D01*
X20695000Y-2155000D02*
X20705000Y-2165000D01*
X20705000Y-2155000D02*
X20695000Y-2165000D01*
X20695000Y-2360000D02*
X20705000Y-2370000D01*
X20705000Y-2360000D02*
X20695000Y-2370000D01*
X20695000Y-2570000D02*
X20705000Y-2580000D01*
X20705000Y-2570000D02*
X20695000Y-2580000D01*
X20755000Y-9135000D02*
X20765000Y-9145000D01*
X20765000Y-9135000D02*
X20755000Y-9145000D01*
X20805000Y-7570000D02*
X20815000Y-7580000D01*
X20815000Y-7570000D02*
X20805000Y-7580000D01*
X20810000Y-7710250D02*
X20820000Y-7720250D01*
X20820000Y-7710250D02*
X20810000Y-7720250D01*
X20815000Y-2605000D02*
X20825000Y-2615000D01*
X20825000Y-2605000D02*
X20815000Y-2615000D01*
X20830000Y-8435000D02*
X20840000Y-8445000D01*
X20840000Y-8435000D02*
X20830000Y-8445000D01*
X20830000Y-9260000D02*
X20840000Y-9270000D01*
X20840000Y-9260000D02*
X20830000Y-9270000D01*
X20845000Y-9205000D02*
X20855000Y-9215000D01*
X20855000Y-9205000D02*
X20845000Y-9215000D01*
X20865000Y-2165000D02*
X20875000Y-2175000D01*
X20875000Y-2165000D02*
X20865000Y-2175000D01*
X20865000Y-2570000D02*
X20875000Y-2580000D01*
X20875000Y-2570000D02*
X20865000Y-2580000D01*
X20865000Y-2765000D02*
X20875000Y-2775000D01*
X20875000Y-2765000D02*
X20865000Y-2775000D01*
X20865000Y-2985000D02*
X20875000Y-2995000D01*
X20875000Y-2985000D02*
X20865000Y-2995000D01*
X20865000Y-3210000D02*
X20875000Y-3220000D01*
X20875000Y-3210000D02*
X20865000Y-3220000D01*
X20865000Y-3445000D02*
X20875000Y-3455000D01*
X20875000Y-3445000D02*
X20865000Y-3455000D01*
X20865000Y-3665000D02*
X20875000Y-3675000D01*
X20875000Y-3665000D02*
X20865000Y-3675000D01*
X20865000Y-3895000D02*
X20875000Y-3905000D01*
X20875000Y-3895000D02*
X20865000Y-3905000D01*
X20865000Y-4115000D02*
X20875000Y-4125000D01*
X20875000Y-4115000D02*
X20865000Y-4125000D01*
X20865000Y-4340000D02*
X20875000Y-4350000D01*
X20875000Y-4340000D02*
X20865000Y-4350000D01*
X20865000Y-4565000D02*
X20875000Y-4575000D01*
X20875000Y-4565000D02*
X20865000Y-4575000D01*
X20865000Y-4785000D02*
X20875000Y-4795000D01*
X20875000Y-4785000D02*
X20865000Y-4795000D01*
X20865000Y-5000000D02*
X20875000Y-5010000D01*
X20875000Y-5000000D02*
X20865000Y-5010000D01*
X20865000Y-5240000D02*
X20875000Y-5250000D01*
X20875000Y-5240000D02*
X20865000Y-5250000D01*
X20865000Y-5480000D02*
X20875000Y-5490000D01*
X20875000Y-5480000D02*
X20865000Y-5490000D01*
X20865000Y-5720000D02*
X20875000Y-5730000D01*
X20875000Y-5720000D02*
X20865000Y-5730000D01*
X20865000Y-5965000D02*
X20875000Y-5975000D01*
X20875000Y-5965000D02*
X20865000Y-5975000D01*
X20865000Y-6190000D02*
X20875000Y-6200000D01*
X20875000Y-6190000D02*
X20865000Y-6200000D01*
X20865000Y-6375000D02*
X20875000Y-6385000D01*
X20875000Y-6375000D02*
X20865000Y-6385000D01*
X20865000Y-6595000D02*
X20875000Y-6605000D01*
X20875000Y-6595000D02*
X20865000Y-6605000D01*
X20865000Y-6815000D02*
X20875000Y-6825000D01*
X20875000Y-6815000D02*
X20865000Y-6825000D01*
X20870000Y-2365000D02*
X20880000Y-2375000D01*
X20880000Y-2365000D02*
X20870000Y-2375000D01*
X20884478Y-8705306D02*
X20894478Y-8715306D01*
X20894478Y-8705306D02*
X20884478Y-8715306D01*
X20885125Y-8655310D02*
X20895125Y-8665310D01*
X20895125Y-8655310D02*
X20885125Y-8665310D01*
X20890000Y-8755000D02*
X20900000Y-8765000D01*
X20900000Y-8755000D02*
X20890000Y-8765000D01*
X20910000Y-8354640D02*
X20920000Y-8364640D01*
X20920000Y-8354640D02*
X20910000Y-8364640D01*
X21030000Y-7605000D02*
X21040000Y-7615000D01*
X21040000Y-7605000D02*
X21030000Y-7615000D01*
X21038689Y-2363399D02*
X21048689Y-2373399D01*
X21048689Y-2363399D02*
X21038689Y-2373399D01*
X21040000Y-2160000D02*
X21050000Y-2170000D01*
X21050000Y-2160000D02*
X21040000Y-2170000D01*
X21059000Y-8186000D02*
X21069000Y-8196000D01*
X21069000Y-8186000D02*
X21059000Y-8196000D01*
X21065000Y-9705000D02*
X21075000Y-9715000D01*
X21075000Y-9705000D02*
X21065000Y-9715000D01*
X21120000Y-7955000D02*
X21130000Y-7965000D01*
X21130000Y-7955000D02*
X21120000Y-7965000D01*
X21235000Y-8828180D02*
X21245000Y-8838180D01*
X21245000Y-8828180D02*
X21235000Y-8838180D01*
X21275000Y-8865000D02*
X21285000Y-8875000D01*
X21285000Y-8865000D02*
X21275000Y-8875000D01*
X21285000Y-9015000D02*
X21295000Y-9025000D01*
X21295000Y-9015000D02*
X21285000Y-9025000D01*
X21315000Y-8910000D02*
X21325000Y-8920000D01*
X21325000Y-8910000D02*
X21315000Y-8920000D01*
X21360000Y-8955000D02*
X21370000Y-8965000D01*
X21370000Y-8955000D02*
X21360000Y-8965000D01*
X21425000Y-8530000D02*
X21435000Y-8540000D01*
X21435000Y-8530000D02*
X21425000Y-8540000D01*
X21445000Y-8625000D02*
X21455000Y-8635000D01*
X21455000Y-8625000D02*
X21445000Y-8635000D01*
X21445000Y-8855000D02*
X21455000Y-8865000D01*
X21455000Y-8855000D02*
X21445000Y-8865000D01*
X21445250Y-8675000D02*
X21455250Y-8685000D01*
X21455250Y-8675000D02*
X21445250Y-8685000D01*
X21495000Y-9010000D02*
X21505000Y-9020000D01*
X21505000Y-9010000D02*
X21495000Y-9020000D01*
X21539478Y-8625306D02*
X21549478Y-8635306D01*
X21549478Y-8625306D02*
X21539478Y-8635306D01*
X21545000Y-8675000D02*
X21555000Y-8685000D01*
X21555000Y-8675000D02*
X21545000Y-8685000D01*
X21590000Y-8719883D02*
X21600000Y-8729883D01*
X21600000Y-8719883D02*
X21590000Y-8729883D01*
D13*
X18036000Y-7545000D02*
G75*
G02*
X17886000Y-7545000I-75000J0D01*
G01*
X17886000Y-7545000D02*
G75*
G02*
X18036000Y-7545000I75000J0D01*
G01*
X20085000Y-7545000D02*
G75*
G02*
X19935000Y-7545000I-75000J0D01*
G01*
X19935000Y-7545000D02*
G75*
G02*
X20085000Y-7545000I75000J0D01*
G01*
D11*
X17578277Y-10738984D02*
X17578277Y-10538984D01*
X17578277Y-10538984D02*
X17625896Y-10538984D01*
X17625896Y-10538984D02*
X17654467Y-10548508D01*
X17654467Y-10548508D02*
X17673515Y-10567555D01*
X17673515Y-10567555D02*
X17683039Y-10586603D01*
X17683039Y-10586603D02*
X17692563Y-10624698D01*
X17692563Y-10624698D02*
X17692563Y-10653270D01*
X17692563Y-10653270D02*
X17683039Y-10691365D01*
X17683039Y-10691365D02*
X17673515Y-10710412D01*
X17673515Y-10710412D02*
X17654467Y-10729460D01*
X17654467Y-10729460D02*
X17625896Y-10738984D01*
X17625896Y-10738984D02*
X17578277Y-10738984D01*
X17778277Y-10738984D02*
X17778277Y-10605650D01*
X17778277Y-10643746D02*
X17787801Y-10624698D01*
X17787801Y-10624698D02*
X17797324Y-10615174D01*
X17797324Y-10615174D02*
X17816372Y-10605650D01*
X17816372Y-10605650D02*
X17835420Y-10605650D01*
X17902086Y-10738984D02*
X17902086Y-10605650D01*
X17902086Y-10538984D02*
X17892563Y-10548508D01*
X17892563Y-10548508D02*
X17902086Y-10558031D01*
X17902086Y-10558031D02*
X17911610Y-10548508D01*
X17911610Y-10548508D02*
X17902086Y-10538984D01*
X17902086Y-10538984D02*
X17902086Y-10558031D01*
X18025896Y-10738984D02*
X18006848Y-10729460D01*
X18006848Y-10729460D02*
X17997324Y-10710412D01*
X17997324Y-10710412D02*
X17997324Y-10538984D01*
X18130658Y-10738984D02*
X18111610Y-10729460D01*
X18111610Y-10729460D02*
X18102086Y-10710412D01*
X18102086Y-10710412D02*
X18102086Y-10538984D01*
X18359229Y-10738984D02*
X18359229Y-10538984D01*
X18359229Y-10538984D02*
X18425896Y-10681841D01*
X18425896Y-10681841D02*
X18492563Y-10538984D01*
X18492563Y-10538984D02*
X18492563Y-10738984D01*
X18673515Y-10738984D02*
X18673515Y-10634222D01*
X18673515Y-10634222D02*
X18663991Y-10615174D01*
X18663991Y-10615174D02*
X18644944Y-10605650D01*
X18644944Y-10605650D02*
X18606848Y-10605650D01*
X18606848Y-10605650D02*
X18587801Y-10615174D01*
X18673515Y-10729460D02*
X18654467Y-10738984D01*
X18654467Y-10738984D02*
X18606848Y-10738984D01*
X18606848Y-10738984D02*
X18587801Y-10729460D01*
X18587801Y-10729460D02*
X18578277Y-10710412D01*
X18578277Y-10710412D02*
X18578277Y-10691365D01*
X18578277Y-10691365D02*
X18587801Y-10672317D01*
X18587801Y-10672317D02*
X18606848Y-10662793D01*
X18606848Y-10662793D02*
X18654467Y-10662793D01*
X18654467Y-10662793D02*
X18673515Y-10653270D01*
X18768753Y-10605650D02*
X18768753Y-10805650D01*
X18768753Y-10615174D02*
X18787801Y-10605650D01*
X18787801Y-10605650D02*
X18825896Y-10605650D01*
X18825896Y-10605650D02*
X18844944Y-10615174D01*
X18844944Y-10615174D02*
X18854467Y-10624698D01*
X18854467Y-10624698D02*
X18863991Y-10643746D01*
X18863991Y-10643746D02*
X18863991Y-10700889D01*
X18863991Y-10700889D02*
X18854467Y-10719936D01*
X18854467Y-10719936D02*
X18844944Y-10729460D01*
X18844944Y-10729460D02*
X18825896Y-10738984D01*
X18825896Y-10738984D02*
X18787801Y-10738984D01*
X18787801Y-10738984D02*
X18768753Y-10729460D01*
X18949705Y-10719936D02*
X18959229Y-10729460D01*
X18959229Y-10729460D02*
X18949705Y-10738984D01*
X18949705Y-10738984D02*
X18940182Y-10729460D01*
X18940182Y-10729460D02*
X18949705Y-10719936D01*
X18949705Y-10719936D02*
X18949705Y-10738984D01*
X18949705Y-10615174D02*
X18959229Y-10624698D01*
X18959229Y-10624698D02*
X18949705Y-10634222D01*
X18949705Y-10634222D02*
X18940182Y-10624698D01*
X18940182Y-10624698D02*
X18949705Y-10615174D01*
X18949705Y-10615174D02*
X18949705Y-10634222D01*
D12*
X17307500Y-11062500D02*
X17317500Y-11072500D01*
X17317500Y-11062500D02*
X17307500Y-11072500D01*
D11*
X17616372Y-10958984D02*
X17635420Y-10958984D01*
X17635420Y-10958984D02*
X17654467Y-10968508D01*
X17654467Y-10968508D02*
X17663991Y-10978031D01*
X17663991Y-10978031D02*
X17673515Y-10997079D01*
X17673515Y-10997079D02*
X17683039Y-11035174D01*
X17683039Y-11035174D02*
X17683039Y-11082793D01*
X17683039Y-11082793D02*
X17673515Y-11120889D01*
X17673515Y-11120889D02*
X17663991Y-11139936D01*
X17663991Y-11139936D02*
X17654467Y-11149460D01*
X17654467Y-11149460D02*
X17635420Y-11158984D01*
X17635420Y-11158984D02*
X17616372Y-11158984D01*
X17616372Y-11158984D02*
X17597324Y-11149460D01*
X17597324Y-11149460D02*
X17587801Y-11139936D01*
X17587801Y-11139936D02*
X17578277Y-11120889D01*
X17578277Y-11120889D02*
X17568753Y-11082793D01*
X17568753Y-11082793D02*
X17568753Y-11035174D01*
X17568753Y-11035174D02*
X17578277Y-10997079D01*
X17578277Y-10997079D02*
X17587801Y-10978031D01*
X17587801Y-10978031D02*
X17597324Y-10968508D01*
X17597324Y-10968508D02*
X17616372Y-10958984D01*
X17768753Y-11139936D02*
X17778277Y-11149460D01*
X17778277Y-11149460D02*
X17768753Y-11158984D01*
X17768753Y-11158984D02*
X17759229Y-11149460D01*
X17759229Y-11149460D02*
X17768753Y-11139936D01*
X17768753Y-11139936D02*
X17768753Y-11158984D01*
X17968753Y-11158984D02*
X17854467Y-11158984D01*
X17911610Y-11158984D02*
X17911610Y-10958984D01*
X17911610Y-10958984D02*
X17892563Y-10987555D01*
X17892563Y-10987555D02*
X17873515Y-11006603D01*
X17873515Y-11006603D02*
X17854467Y-11016127D01*
X18092563Y-10958984D02*
X18111610Y-10958984D01*
X18111610Y-10958984D02*
X18130658Y-10968508D01*
X18130658Y-10968508D02*
X18140182Y-10978031D01*
X18140182Y-10978031D02*
X18149705Y-10997079D01*
X18149705Y-10997079D02*
X18159229Y-11035174D01*
X18159229Y-11035174D02*
X18159229Y-11082793D01*
X18159229Y-11082793D02*
X18149705Y-11120889D01*
X18149705Y-11120889D02*
X18140182Y-11139936D01*
X18140182Y-11139936D02*
X18130658Y-11149460D01*
X18130658Y-11149460D02*
X18111610Y-11158984D01*
X18111610Y-11158984D02*
X18092563Y-11158984D01*
X18092563Y-11158984D02*
X18073515Y-11149460D01*
X18073515Y-11149460D02*
X18063991Y-11139936D01*
X18063991Y-11139936D02*
X18054467Y-11120889D01*
X18054467Y-11120889D02*
X18044944Y-11082793D01*
X18044944Y-11082793D02*
X18044944Y-11035174D01*
X18044944Y-11035174D02*
X18054467Y-10997079D01*
X18054467Y-10997079D02*
X18063991Y-10978031D01*
X18063991Y-10978031D02*
X18073515Y-10968508D01*
X18073515Y-10968508D02*
X18092563Y-10958984D01*
X18283039Y-10958984D02*
X18302086Y-10958984D01*
X18302086Y-10958984D02*
X18321134Y-10968508D01*
X18321134Y-10968508D02*
X18330658Y-10978031D01*
X18330658Y-10978031D02*
X18340182Y-10997079D01*
X18340182Y-10997079D02*
X18349705Y-11035174D01*
X18349705Y-11035174D02*
X18349705Y-11082793D01*
X18349705Y-11082793D02*
X18340182Y-11120889D01*
X18340182Y-11120889D02*
X18330658Y-11139936D01*
X18330658Y-11139936D02*
X18321134Y-11149460D01*
X18321134Y-11149460D02*
X18302086Y-11158984D01*
X18302086Y-11158984D02*
X18283039Y-11158984D01*
X18283039Y-11158984D02*
X18263991Y-11149460D01*
X18263991Y-11149460D02*
X18254467Y-11139936D01*
X18254467Y-11139936D02*
X18244944Y-11120889D01*
X18244944Y-11120889D02*
X18235420Y-11082793D01*
X18235420Y-11082793D02*
X18235420Y-11035174D01*
X18235420Y-11035174D02*
X18244944Y-10997079D01*
X18244944Y-10997079D02*
X18254467Y-10978031D01*
X18254467Y-10978031D02*
X18263991Y-10968508D01*
X18263991Y-10968508D02*
X18283039Y-10958984D01*
X18435420Y-11158984D02*
X18435420Y-11025650D01*
X18435420Y-11044698D02*
X18444944Y-11035174D01*
X18444944Y-11035174D02*
X18463991Y-11025650D01*
X18463991Y-11025650D02*
X18492563Y-11025650D01*
X18492563Y-11025650D02*
X18511610Y-11035174D01*
X18511610Y-11035174D02*
X18521134Y-11054222D01*
X18521134Y-11054222D02*
X18521134Y-11158984D01*
X18521134Y-11054222D02*
X18530658Y-11035174D01*
X18530658Y-11035174D02*
X18549705Y-11025650D01*
X18549705Y-11025650D02*
X18578277Y-11025650D01*
X18578277Y-11025650D02*
X18597325Y-11035174D01*
X18597325Y-11035174D02*
X18606848Y-11054222D01*
X18606848Y-11054222D02*
X18606848Y-11158984D01*
X18702086Y-11158984D02*
X18702086Y-11025650D01*
X18702086Y-11044698D02*
X18711610Y-11035174D01*
X18711610Y-11035174D02*
X18730658Y-11025650D01*
X18730658Y-11025650D02*
X18759229Y-11025650D01*
X18759229Y-11025650D02*
X18778277Y-11035174D01*
X18778277Y-11035174D02*
X18787801Y-11054222D01*
X18787801Y-11054222D02*
X18787801Y-11158984D01*
X18787801Y-11054222D02*
X18797325Y-11035174D01*
X18797325Y-11035174D02*
X18816372Y-11025650D01*
X18816372Y-11025650D02*
X18844944Y-11025650D01*
X18844944Y-11025650D02*
X18863991Y-11035174D01*
X18863991Y-11035174D02*
X18873515Y-11054222D01*
X18873515Y-11054222D02*
X18873515Y-11158984D01*
X19263991Y-10949460D02*
X19092563Y-11206603D01*
X19521134Y-10958984D02*
X19540182Y-10958984D01*
X19540182Y-10958984D02*
X19559229Y-10968508D01*
X19559229Y-10968508D02*
X19568753Y-10978031D01*
X19568753Y-10978031D02*
X19578277Y-10997079D01*
X19578277Y-10997079D02*
X19587801Y-11035174D01*
X19587801Y-11035174D02*
X19587801Y-11082793D01*
X19587801Y-11082793D02*
X19578277Y-11120889D01*
X19578277Y-11120889D02*
X19568753Y-11139936D01*
X19568753Y-11139936D02*
X19559229Y-11149460D01*
X19559229Y-11149460D02*
X19540182Y-11158984D01*
X19540182Y-11158984D02*
X19521134Y-11158984D01*
X19521134Y-11158984D02*
X19502087Y-11149460D01*
X19502087Y-11149460D02*
X19492563Y-11139936D01*
X19492563Y-11139936D02*
X19483039Y-11120889D01*
X19483039Y-11120889D02*
X19473515Y-11082793D01*
X19473515Y-11082793D02*
X19473515Y-11035174D01*
X19473515Y-11035174D02*
X19483039Y-10997079D01*
X19483039Y-10997079D02*
X19492563Y-10978031D01*
X19492563Y-10978031D02*
X19502087Y-10968508D01*
X19502087Y-10968508D02*
X19521134Y-10958984D01*
X19673515Y-11139936D02*
X19683039Y-11149460D01*
X19683039Y-11149460D02*
X19673515Y-11158984D01*
X19673515Y-11158984D02*
X19663991Y-11149460D01*
X19663991Y-11149460D02*
X19673515Y-11139936D01*
X19673515Y-11139936D02*
X19673515Y-11158984D01*
X19806848Y-10958984D02*
X19825896Y-10958984D01*
X19825896Y-10958984D02*
X19844944Y-10968508D01*
X19844944Y-10968508D02*
X19854468Y-10978031D01*
X19854468Y-10978031D02*
X19863991Y-10997079D01*
X19863991Y-10997079D02*
X19873515Y-11035174D01*
X19873515Y-11035174D02*
X19873515Y-11082793D01*
X19873515Y-11082793D02*
X19863991Y-11120889D01*
X19863991Y-11120889D02*
X19854468Y-11139936D01*
X19854468Y-11139936D02*
X19844944Y-11149460D01*
X19844944Y-11149460D02*
X19825896Y-11158984D01*
X19825896Y-11158984D02*
X19806848Y-11158984D01*
X19806848Y-11158984D02*
X19787801Y-11149460D01*
X19787801Y-11149460D02*
X19778277Y-11139936D01*
X19778277Y-11139936D02*
X19768753Y-11120889D01*
X19768753Y-11120889D02*
X19759229Y-11082793D01*
X19759229Y-11082793D02*
X19759229Y-11035174D01*
X19759229Y-11035174D02*
X19768753Y-10997079D01*
X19768753Y-10997079D02*
X19778277Y-10978031D01*
X19778277Y-10978031D02*
X19787801Y-10968508D01*
X19787801Y-10968508D02*
X19806848Y-10958984D01*
X19997325Y-10958984D02*
X20016372Y-10958984D01*
X20016372Y-10958984D02*
X20035420Y-10968508D01*
X20035420Y-10968508D02*
X20044944Y-10978031D01*
X20044944Y-10978031D02*
X20054468Y-10997079D01*
X20054468Y-10997079D02*
X20063991Y-11035174D01*
X20063991Y-11035174D02*
X20063991Y-11082793D01*
X20063991Y-11082793D02*
X20054468Y-11120889D01*
X20054468Y-11120889D02*
X20044944Y-11139936D01*
X20044944Y-11139936D02*
X20035420Y-11149460D01*
X20035420Y-11149460D02*
X20016372Y-11158984D01*
X20016372Y-11158984D02*
X19997325Y-11158984D01*
X19997325Y-11158984D02*
X19978277Y-11149460D01*
X19978277Y-11149460D02*
X19968753Y-11139936D01*
X19968753Y-11139936D02*
X19959229Y-11120889D01*
X19959229Y-11120889D02*
X19949706Y-11082793D01*
X19949706Y-11082793D02*
X19949706Y-11035174D01*
X19949706Y-11035174D02*
X19959229Y-10997079D01*
X19959229Y-10997079D02*
X19968753Y-10978031D01*
X19968753Y-10978031D02*
X19978277Y-10968508D01*
X19978277Y-10968508D02*
X19997325Y-10958984D01*
X20130658Y-10958984D02*
X20254468Y-10958984D01*
X20254468Y-10958984D02*
X20187801Y-11035174D01*
X20187801Y-11035174D02*
X20216372Y-11035174D01*
X20216372Y-11035174D02*
X20235420Y-11044698D01*
X20235420Y-11044698D02*
X20244944Y-11054222D01*
X20244944Y-11054222D02*
X20254468Y-11073270D01*
X20254468Y-11073270D02*
X20254468Y-11120889D01*
X20254468Y-11120889D02*
X20244944Y-11139936D01*
X20244944Y-11139936D02*
X20235420Y-11149460D01*
X20235420Y-11149460D02*
X20216372Y-11158984D01*
X20216372Y-11158984D02*
X20159229Y-11158984D01*
X20159229Y-11158984D02*
X20140182Y-11149460D01*
X20140182Y-11149460D02*
X20130658Y-11139936D01*
X20349706Y-11158984D02*
X20387801Y-11158984D01*
X20387801Y-11158984D02*
X20406849Y-11149460D01*
X20406849Y-11149460D02*
X20416372Y-11139936D01*
X20416372Y-11139936D02*
X20435420Y-11111365D01*
X20435420Y-11111365D02*
X20444944Y-11073270D01*
X20444944Y-11073270D02*
X20444944Y-10997079D01*
X20444944Y-10997079D02*
X20435420Y-10978031D01*
X20435420Y-10978031D02*
X20425896Y-10968508D01*
X20425896Y-10968508D02*
X20406849Y-10958984D01*
X20406849Y-10958984D02*
X20368753Y-10958984D01*
X20368753Y-10958984D02*
X20349706Y-10968508D01*
X20349706Y-10968508D02*
X20340182Y-10978031D01*
X20340182Y-10978031D02*
X20330658Y-10997079D01*
X20330658Y-10997079D02*
X20330658Y-11044698D01*
X20330658Y-11044698D02*
X20340182Y-11063746D01*
X20340182Y-11063746D02*
X20349706Y-11073270D01*
X20349706Y-11073270D02*
X20368753Y-11082793D01*
X20368753Y-11082793D02*
X20406849Y-11082793D01*
X20406849Y-11082793D02*
X20425896Y-11073270D01*
X20425896Y-11073270D02*
X20435420Y-11063746D01*
X20435420Y-11063746D02*
X20444944Y-11044698D01*
X20521134Y-10958984D02*
X20521134Y-10997079D01*
X20597325Y-10958984D02*
X20597325Y-10997079D01*
X20892563Y-11235174D02*
X20883039Y-11225650D01*
X20883039Y-11225650D02*
X20863991Y-11197079D01*
X20863991Y-11197079D02*
X20854468Y-11178031D01*
X20854468Y-11178031D02*
X20844944Y-11149460D01*
X20844944Y-11149460D02*
X20835420Y-11101841D01*
X20835420Y-11101841D02*
X20835420Y-11063746D01*
X20835420Y-11063746D02*
X20844944Y-11016127D01*
X20844944Y-11016127D02*
X20854468Y-10987555D01*
X20854468Y-10987555D02*
X20863991Y-10968508D01*
X20863991Y-10968508D02*
X20883039Y-10939936D01*
X20883039Y-10939936D02*
X20892563Y-10930412D01*
X21063991Y-10958984D02*
X20968753Y-10958984D01*
X20968753Y-10958984D02*
X20959230Y-11054222D01*
X20959230Y-11054222D02*
X20968753Y-11044698D01*
X20968753Y-11044698D02*
X20987801Y-11035174D01*
X20987801Y-11035174D02*
X21035420Y-11035174D01*
X21035420Y-11035174D02*
X21054468Y-11044698D01*
X21054468Y-11044698D02*
X21063991Y-11054222D01*
X21063991Y-11054222D02*
X21073515Y-11073270D01*
X21073515Y-11073270D02*
X21073515Y-11120889D01*
X21073515Y-11120889D02*
X21063991Y-11139936D01*
X21063991Y-11139936D02*
X21054468Y-11149460D01*
X21054468Y-11149460D02*
X21035420Y-11158984D01*
X21035420Y-11158984D02*
X20987801Y-11158984D01*
X20987801Y-11158984D02*
X20968753Y-11149460D01*
X20968753Y-11149460D02*
X20959230Y-11139936D01*
X21263991Y-11158984D02*
X21149706Y-11158984D01*
X21206849Y-11158984D02*
X21206849Y-10958984D01*
X21206849Y-10958984D02*
X21187801Y-10987555D01*
X21187801Y-10987555D02*
X21168753Y-11006603D01*
X21168753Y-11006603D02*
X21149706Y-11016127D01*
X21340182Y-10978031D02*
X21349706Y-10968508D01*
X21349706Y-10968508D02*
X21368753Y-10958984D01*
X21368753Y-10958984D02*
X21416372Y-10958984D01*
X21416372Y-10958984D02*
X21435420Y-10968508D01*
X21435420Y-10968508D02*
X21444944Y-10978031D01*
X21444944Y-10978031D02*
X21454468Y-10997079D01*
X21454468Y-10997079D02*
X21454468Y-11016127D01*
X21454468Y-11016127D02*
X21444944Y-11044698D01*
X21444944Y-11044698D02*
X21330658Y-11158984D01*
X21330658Y-11158984D02*
X21454468Y-11158984D01*
X21692563Y-11158984D02*
X21692563Y-10958984D01*
X21778277Y-11158984D02*
X21778277Y-11054222D01*
X21778277Y-11054222D02*
X21768753Y-11035174D01*
X21768753Y-11035174D02*
X21749706Y-11025650D01*
X21749706Y-11025650D02*
X21721134Y-11025650D01*
X21721134Y-11025650D02*
X21702087Y-11035174D01*
X21702087Y-11035174D02*
X21692563Y-11044698D01*
X21902087Y-11158984D02*
X21883039Y-11149460D01*
X21883039Y-11149460D02*
X21873515Y-11139936D01*
X21873515Y-11139936D02*
X21863992Y-11120889D01*
X21863992Y-11120889D02*
X21863992Y-11063746D01*
X21863992Y-11063746D02*
X21873515Y-11044698D01*
X21873515Y-11044698D02*
X21883039Y-11035174D01*
X21883039Y-11035174D02*
X21902087Y-11025650D01*
X21902087Y-11025650D02*
X21930658Y-11025650D01*
X21930658Y-11025650D02*
X21949706Y-11035174D01*
X21949706Y-11035174D02*
X21959230Y-11044698D01*
X21959230Y-11044698D02*
X21968753Y-11063746D01*
X21968753Y-11063746D02*
X21968753Y-11120889D01*
X21968753Y-11120889D02*
X21959230Y-11139936D01*
X21959230Y-11139936D02*
X21949706Y-11149460D01*
X21949706Y-11149460D02*
X21930658Y-11158984D01*
X21930658Y-11158984D02*
X21902087Y-11158984D01*
X22083039Y-11158984D02*
X22063992Y-11149460D01*
X22063992Y-11149460D02*
X22054468Y-11130412D01*
X22054468Y-11130412D02*
X22054468Y-10958984D01*
X22235420Y-11149460D02*
X22216373Y-11158984D01*
X22216373Y-11158984D02*
X22178277Y-11158984D01*
X22178277Y-11158984D02*
X22159230Y-11149460D01*
X22159230Y-11149460D02*
X22149706Y-11130412D01*
X22149706Y-11130412D02*
X22149706Y-11054222D01*
X22149706Y-11054222D02*
X22159230Y-11035174D01*
X22159230Y-11035174D02*
X22178277Y-11025650D01*
X22178277Y-11025650D02*
X22216373Y-11025650D01*
X22216373Y-11025650D02*
X22235420Y-11035174D01*
X22235420Y-11035174D02*
X22244944Y-11054222D01*
X22244944Y-11054222D02*
X22244944Y-11073270D01*
X22244944Y-11073270D02*
X22149706Y-11092317D01*
X22321134Y-11149460D02*
X22340182Y-11158984D01*
X22340182Y-11158984D02*
X22378277Y-11158984D01*
X22378277Y-11158984D02*
X22397325Y-11149460D01*
X22397325Y-11149460D02*
X22406849Y-11130412D01*
X22406849Y-11130412D02*
X22406849Y-11120889D01*
X22406849Y-11120889D02*
X22397325Y-11101841D01*
X22397325Y-11101841D02*
X22378277Y-11092317D01*
X22378277Y-11092317D02*
X22349706Y-11092317D01*
X22349706Y-11092317D02*
X22330658Y-11082793D01*
X22330658Y-11082793D02*
X22321134Y-11063746D01*
X22321134Y-11063746D02*
X22321134Y-11054222D01*
X22321134Y-11054222D02*
X22330658Y-11035174D01*
X22330658Y-11035174D02*
X22349706Y-11025650D01*
X22349706Y-11025650D02*
X22378277Y-11025650D01*
X22378277Y-11025650D02*
X22397325Y-11035174D01*
X22473515Y-11235174D02*
X22483039Y-11225650D01*
X22483039Y-11225650D02*
X22502087Y-11197079D01*
X22502087Y-11197079D02*
X22511611Y-11178031D01*
X22511611Y-11178031D02*
X22521134Y-11149460D01*
X22521134Y-11149460D02*
X22530658Y-11101841D01*
X22530658Y-11101841D02*
X22530658Y-11063746D01*
X22530658Y-11063746D02*
X22521134Y-11016127D01*
X22521134Y-11016127D02*
X22511611Y-10987555D01*
X22511611Y-10987555D02*
X22502087Y-10968508D01*
X22502087Y-10968508D02*
X22483039Y-10939936D01*
X22483039Y-10939936D02*
X22473515Y-10930412D01*
D13*
X17317500Y-11331500D02*
G75*
G02*
X17167500Y-11331500I-75000J0D01*
G01*
X17167500Y-11331500D02*
G75*
G02*
X17317500Y-11331500I75000J0D01*
G01*
D11*
X17683039Y-11422984D02*
X17568753Y-11422984D01*
X17625896Y-11422984D02*
X17625896Y-11222984D01*
X17625896Y-11222984D02*
X17606848Y-11251555D01*
X17606848Y-11251555D02*
X17587801Y-11270603D01*
X17587801Y-11270603D02*
X17568753Y-11280127D01*
X17768753Y-11403936D02*
X17778277Y-11413460D01*
X17778277Y-11413460D02*
X17768753Y-11422984D01*
X17768753Y-11422984D02*
X17759229Y-11413460D01*
X17759229Y-11413460D02*
X17768753Y-11403936D01*
X17768753Y-11403936D02*
X17768753Y-11422984D01*
X17959229Y-11222984D02*
X17863991Y-11222984D01*
X17863991Y-11222984D02*
X17854467Y-11318222D01*
X17854467Y-11318222D02*
X17863991Y-11308698D01*
X17863991Y-11308698D02*
X17883039Y-11299174D01*
X17883039Y-11299174D02*
X17930658Y-11299174D01*
X17930658Y-11299174D02*
X17949705Y-11308698D01*
X17949705Y-11308698D02*
X17959229Y-11318222D01*
X17959229Y-11318222D02*
X17968753Y-11337269D01*
X17968753Y-11337269D02*
X17968753Y-11384888D01*
X17968753Y-11384888D02*
X17959229Y-11403936D01*
X17959229Y-11403936D02*
X17949705Y-11413460D01*
X17949705Y-11413460D02*
X17930658Y-11422984D01*
X17930658Y-11422984D02*
X17883039Y-11422984D01*
X17883039Y-11422984D02*
X17863991Y-11413460D01*
X17863991Y-11413460D02*
X17854467Y-11403936D01*
X18092563Y-11222984D02*
X18111610Y-11222984D01*
X18111610Y-11222984D02*
X18130658Y-11232508D01*
X18130658Y-11232508D02*
X18140182Y-11242031D01*
X18140182Y-11242031D02*
X18149705Y-11261079D01*
X18149705Y-11261079D02*
X18159229Y-11299174D01*
X18159229Y-11299174D02*
X18159229Y-11346793D01*
X18159229Y-11346793D02*
X18149705Y-11384888D01*
X18149705Y-11384888D02*
X18140182Y-11403936D01*
X18140182Y-11403936D02*
X18130658Y-11413460D01*
X18130658Y-11413460D02*
X18111610Y-11422984D01*
X18111610Y-11422984D02*
X18092563Y-11422984D01*
X18092563Y-11422984D02*
X18073515Y-11413460D01*
X18073515Y-11413460D02*
X18063991Y-11403936D01*
X18063991Y-11403936D02*
X18054467Y-11384888D01*
X18054467Y-11384888D02*
X18044944Y-11346793D01*
X18044944Y-11346793D02*
X18044944Y-11299174D01*
X18044944Y-11299174D02*
X18054467Y-11261079D01*
X18054467Y-11261079D02*
X18063991Y-11242031D01*
X18063991Y-11242031D02*
X18073515Y-11232508D01*
X18073515Y-11232508D02*
X18092563Y-11222984D01*
X18283039Y-11222984D02*
X18302086Y-11222984D01*
X18302086Y-11222984D02*
X18321134Y-11232508D01*
X18321134Y-11232508D02*
X18330658Y-11242031D01*
X18330658Y-11242031D02*
X18340182Y-11261079D01*
X18340182Y-11261079D02*
X18349705Y-11299174D01*
X18349705Y-11299174D02*
X18349705Y-11346793D01*
X18349705Y-11346793D02*
X18340182Y-11384888D01*
X18340182Y-11384888D02*
X18330658Y-11403936D01*
X18330658Y-11403936D02*
X18321134Y-11413460D01*
X18321134Y-11413460D02*
X18302086Y-11422984D01*
X18302086Y-11422984D02*
X18283039Y-11422984D01*
X18283039Y-11422984D02*
X18263991Y-11413460D01*
X18263991Y-11413460D02*
X18254467Y-11403936D01*
X18254467Y-11403936D02*
X18244944Y-11384888D01*
X18244944Y-11384888D02*
X18235420Y-11346793D01*
X18235420Y-11346793D02*
X18235420Y-11299174D01*
X18235420Y-11299174D02*
X18244944Y-11261079D01*
X18244944Y-11261079D02*
X18254467Y-11242031D01*
X18254467Y-11242031D02*
X18263991Y-11232508D01*
X18263991Y-11232508D02*
X18283039Y-11222984D01*
X18435420Y-11422984D02*
X18435420Y-11289650D01*
X18435420Y-11308698D02*
X18444944Y-11299174D01*
X18444944Y-11299174D02*
X18463991Y-11289650D01*
X18463991Y-11289650D02*
X18492563Y-11289650D01*
X18492563Y-11289650D02*
X18511610Y-11299174D01*
X18511610Y-11299174D02*
X18521134Y-11318222D01*
X18521134Y-11318222D02*
X18521134Y-11422984D01*
X18521134Y-11318222D02*
X18530658Y-11299174D01*
X18530658Y-11299174D02*
X18549705Y-11289650D01*
X18549705Y-11289650D02*
X18578277Y-11289650D01*
X18578277Y-11289650D02*
X18597325Y-11299174D01*
X18597325Y-11299174D02*
X18606848Y-11318222D01*
X18606848Y-11318222D02*
X18606848Y-11422984D01*
X18702086Y-11422984D02*
X18702086Y-11289650D01*
X18702086Y-11308698D02*
X18711610Y-11299174D01*
X18711610Y-11299174D02*
X18730658Y-11289650D01*
X18730658Y-11289650D02*
X18759229Y-11289650D01*
X18759229Y-11289650D02*
X18778277Y-11299174D01*
X18778277Y-11299174D02*
X18787801Y-11318222D01*
X18787801Y-11318222D02*
X18787801Y-11422984D01*
X18787801Y-11318222D02*
X18797325Y-11299174D01*
X18797325Y-11299174D02*
X18816372Y-11289650D01*
X18816372Y-11289650D02*
X18844944Y-11289650D01*
X18844944Y-11289650D02*
X18863991Y-11299174D01*
X18863991Y-11299174D02*
X18873515Y-11318222D01*
X18873515Y-11318222D02*
X18873515Y-11422984D01*
X19263991Y-11213460D02*
X19092563Y-11470603D01*
X19521134Y-11222984D02*
X19540182Y-11222984D01*
X19540182Y-11222984D02*
X19559229Y-11232508D01*
X19559229Y-11232508D02*
X19568753Y-11242031D01*
X19568753Y-11242031D02*
X19578277Y-11261079D01*
X19578277Y-11261079D02*
X19587801Y-11299174D01*
X19587801Y-11299174D02*
X19587801Y-11346793D01*
X19587801Y-11346793D02*
X19578277Y-11384888D01*
X19578277Y-11384888D02*
X19568753Y-11403936D01*
X19568753Y-11403936D02*
X19559229Y-11413460D01*
X19559229Y-11413460D02*
X19540182Y-11422984D01*
X19540182Y-11422984D02*
X19521134Y-11422984D01*
X19521134Y-11422984D02*
X19502087Y-11413460D01*
X19502087Y-11413460D02*
X19492563Y-11403936D01*
X19492563Y-11403936D02*
X19483039Y-11384888D01*
X19483039Y-11384888D02*
X19473515Y-11346793D01*
X19473515Y-11346793D02*
X19473515Y-11299174D01*
X19473515Y-11299174D02*
X19483039Y-11261079D01*
X19483039Y-11261079D02*
X19492563Y-11242031D01*
X19492563Y-11242031D02*
X19502087Y-11232508D01*
X19502087Y-11232508D02*
X19521134Y-11222984D01*
X19673515Y-11403936D02*
X19683039Y-11413460D01*
X19683039Y-11413460D02*
X19673515Y-11422984D01*
X19673515Y-11422984D02*
X19663991Y-11413460D01*
X19663991Y-11413460D02*
X19673515Y-11403936D01*
X19673515Y-11403936D02*
X19673515Y-11422984D01*
X19806848Y-11222984D02*
X19825896Y-11222984D01*
X19825896Y-11222984D02*
X19844944Y-11232508D01*
X19844944Y-11232508D02*
X19854468Y-11242031D01*
X19854468Y-11242031D02*
X19863991Y-11261079D01*
X19863991Y-11261079D02*
X19873515Y-11299174D01*
X19873515Y-11299174D02*
X19873515Y-11346793D01*
X19873515Y-11346793D02*
X19863991Y-11384888D01*
X19863991Y-11384888D02*
X19854468Y-11403936D01*
X19854468Y-11403936D02*
X19844944Y-11413460D01*
X19844944Y-11413460D02*
X19825896Y-11422984D01*
X19825896Y-11422984D02*
X19806848Y-11422984D01*
X19806848Y-11422984D02*
X19787801Y-11413460D01*
X19787801Y-11413460D02*
X19778277Y-11403936D01*
X19778277Y-11403936D02*
X19768753Y-11384888D01*
X19768753Y-11384888D02*
X19759229Y-11346793D01*
X19759229Y-11346793D02*
X19759229Y-11299174D01*
X19759229Y-11299174D02*
X19768753Y-11261079D01*
X19768753Y-11261079D02*
X19778277Y-11242031D01*
X19778277Y-11242031D02*
X19787801Y-11232508D01*
X19787801Y-11232508D02*
X19806848Y-11222984D01*
X20054468Y-11222984D02*
X19959229Y-11222984D01*
X19959229Y-11222984D02*
X19949706Y-11318222D01*
X19949706Y-11318222D02*
X19959229Y-11308698D01*
X19959229Y-11308698D02*
X19978277Y-11299174D01*
X19978277Y-11299174D02*
X20025896Y-11299174D01*
X20025896Y-11299174D02*
X20044944Y-11308698D01*
X20044944Y-11308698D02*
X20054468Y-11318222D01*
X20054468Y-11318222D02*
X20063991Y-11337269D01*
X20063991Y-11337269D02*
X20063991Y-11384888D01*
X20063991Y-11384888D02*
X20054468Y-11403936D01*
X20054468Y-11403936D02*
X20044944Y-11413460D01*
X20044944Y-11413460D02*
X20025896Y-11422984D01*
X20025896Y-11422984D02*
X19978277Y-11422984D01*
X19978277Y-11422984D02*
X19959229Y-11413460D01*
X19959229Y-11413460D02*
X19949706Y-11403936D01*
X20159229Y-11422984D02*
X20197325Y-11422984D01*
X20197325Y-11422984D02*
X20216372Y-11413460D01*
X20216372Y-11413460D02*
X20225896Y-11403936D01*
X20225896Y-11403936D02*
X20244944Y-11375365D01*
X20244944Y-11375365D02*
X20254468Y-11337269D01*
X20254468Y-11337269D02*
X20254468Y-11261079D01*
X20254468Y-11261079D02*
X20244944Y-11242031D01*
X20244944Y-11242031D02*
X20235420Y-11232508D01*
X20235420Y-11232508D02*
X20216372Y-11222984D01*
X20216372Y-11222984D02*
X20178277Y-11222984D01*
X20178277Y-11222984D02*
X20159229Y-11232508D01*
X20159229Y-11232508D02*
X20149706Y-11242031D01*
X20149706Y-11242031D02*
X20140182Y-11261079D01*
X20140182Y-11261079D02*
X20140182Y-11308698D01*
X20140182Y-11308698D02*
X20149706Y-11327746D01*
X20149706Y-11327746D02*
X20159229Y-11337269D01*
X20159229Y-11337269D02*
X20178277Y-11346793D01*
X20178277Y-11346793D02*
X20216372Y-11346793D01*
X20216372Y-11346793D02*
X20235420Y-11337269D01*
X20235420Y-11337269D02*
X20244944Y-11327746D01*
X20244944Y-11327746D02*
X20254468Y-11308698D01*
X20444944Y-11422984D02*
X20330658Y-11422984D01*
X20387801Y-11422984D02*
X20387801Y-11222984D01*
X20387801Y-11222984D02*
X20368753Y-11251555D01*
X20368753Y-11251555D02*
X20349706Y-11270603D01*
X20349706Y-11270603D02*
X20330658Y-11280127D01*
X20521134Y-11222984D02*
X20521134Y-11261079D01*
X20597325Y-11222984D02*
X20597325Y-11261079D01*
X20892563Y-11499174D02*
X20883039Y-11489650D01*
X20883039Y-11489650D02*
X20863991Y-11461079D01*
X20863991Y-11461079D02*
X20854468Y-11442031D01*
X20854468Y-11442031D02*
X20844944Y-11413460D01*
X20844944Y-11413460D02*
X20835420Y-11365841D01*
X20835420Y-11365841D02*
X20835420Y-11327746D01*
X20835420Y-11327746D02*
X20844944Y-11280127D01*
X20844944Y-11280127D02*
X20854468Y-11251555D01*
X20854468Y-11251555D02*
X20863991Y-11232508D01*
X20863991Y-11232508D02*
X20883039Y-11203936D01*
X20883039Y-11203936D02*
X20892563Y-11194412D01*
X20959230Y-11242031D02*
X20968753Y-11232508D01*
X20968753Y-11232508D02*
X20987801Y-11222984D01*
X20987801Y-11222984D02*
X21035420Y-11222984D01*
X21035420Y-11222984D02*
X21054468Y-11232508D01*
X21054468Y-11232508D02*
X21063991Y-11242031D01*
X21063991Y-11242031D02*
X21073515Y-11261079D01*
X21073515Y-11261079D02*
X21073515Y-11280127D01*
X21073515Y-11280127D02*
X21063991Y-11308698D01*
X21063991Y-11308698D02*
X20949706Y-11422984D01*
X20949706Y-11422984D02*
X21073515Y-11422984D01*
X21311611Y-11422984D02*
X21311611Y-11222984D01*
X21397325Y-11422984D02*
X21397325Y-11318222D01*
X21397325Y-11318222D02*
X21387801Y-11299174D01*
X21387801Y-11299174D02*
X21368753Y-11289650D01*
X21368753Y-11289650D02*
X21340182Y-11289650D01*
X21340182Y-11289650D02*
X21321134Y-11299174D01*
X21321134Y-11299174D02*
X21311611Y-11308698D01*
X21521134Y-11422984D02*
X21502087Y-11413460D01*
X21502087Y-11413460D02*
X21492563Y-11403936D01*
X21492563Y-11403936D02*
X21483039Y-11384888D01*
X21483039Y-11384888D02*
X21483039Y-11327746D01*
X21483039Y-11327746D02*
X21492563Y-11308698D01*
X21492563Y-11308698D02*
X21502087Y-11299174D01*
X21502087Y-11299174D02*
X21521134Y-11289650D01*
X21521134Y-11289650D02*
X21549706Y-11289650D01*
X21549706Y-11289650D02*
X21568753Y-11299174D01*
X21568753Y-11299174D02*
X21578277Y-11308698D01*
X21578277Y-11308698D02*
X21587801Y-11327746D01*
X21587801Y-11327746D02*
X21587801Y-11384888D01*
X21587801Y-11384888D02*
X21578277Y-11403936D01*
X21578277Y-11403936D02*
X21568753Y-11413460D01*
X21568753Y-11413460D02*
X21549706Y-11422984D01*
X21549706Y-11422984D02*
X21521134Y-11422984D01*
X21702087Y-11422984D02*
X21683039Y-11413460D01*
X21683039Y-11413460D02*
X21673515Y-11394412D01*
X21673515Y-11394412D02*
X21673515Y-11222984D01*
X21854468Y-11413460D02*
X21835420Y-11422984D01*
X21835420Y-11422984D02*
X21797325Y-11422984D01*
X21797325Y-11422984D02*
X21778277Y-11413460D01*
X21778277Y-11413460D02*
X21768753Y-11394412D01*
X21768753Y-11394412D02*
X21768753Y-11318222D01*
X21768753Y-11318222D02*
X21778277Y-11299174D01*
X21778277Y-11299174D02*
X21797325Y-11289650D01*
X21797325Y-11289650D02*
X21835420Y-11289650D01*
X21835420Y-11289650D02*
X21854468Y-11299174D01*
X21854468Y-11299174D02*
X21863992Y-11318222D01*
X21863992Y-11318222D02*
X21863992Y-11337269D01*
X21863992Y-11337269D02*
X21768753Y-11356317D01*
X21940182Y-11413460D02*
X21959230Y-11422984D01*
X21959230Y-11422984D02*
X21997325Y-11422984D01*
X21997325Y-11422984D02*
X22016373Y-11413460D01*
X22016373Y-11413460D02*
X22025896Y-11394412D01*
X22025896Y-11394412D02*
X22025896Y-11384888D01*
X22025896Y-11384888D02*
X22016373Y-11365841D01*
X22016373Y-11365841D02*
X21997325Y-11356317D01*
X21997325Y-11356317D02*
X21968753Y-11356317D01*
X21968753Y-11356317D02*
X21949706Y-11346793D01*
X21949706Y-11346793D02*
X21940182Y-11327746D01*
X21940182Y-11327746D02*
X21940182Y-11318222D01*
X21940182Y-11318222D02*
X21949706Y-11299174D01*
X21949706Y-11299174D02*
X21968753Y-11289650D01*
X21968753Y-11289650D02*
X21997325Y-11289650D01*
X21997325Y-11289650D02*
X22016373Y-11299174D01*
X22092563Y-11499174D02*
X22102087Y-11489650D01*
X22102087Y-11489650D02*
X22121134Y-11461079D01*
X22121134Y-11461079D02*
X22130658Y-11442031D01*
X22130658Y-11442031D02*
X22140182Y-11413460D01*
X22140182Y-11413460D02*
X22149706Y-11365841D01*
X22149706Y-11365841D02*
X22149706Y-11327746D01*
X22149706Y-11327746D02*
X22140182Y-11280127D01*
X22140182Y-11280127D02*
X22130658Y-11251555D01*
X22130658Y-11251555D02*
X22121134Y-11232508D01*
X22121134Y-11232508D02*
X22102087Y-11203936D01*
X22102087Y-11203936D02*
X22092563Y-11194412D01*
M02*
