M48
; DRILL file {KiCad 8.0.0} date 2024-03-20T12:44:35-0500
; FORMAT={-:-/ absolute / inch / decimal}
; #@! TF.CreationDate,2024-03-20T12:44:35-05:00
; #@! TF.GenerationSoftware,Kicad,Pcbnew,8.0.0
; #@! TF.FileFunction,Plated,1,2,PTH
FMAT,2
INCH
; #@! TA.AperFunction,Plated,PTH,ViaDrill
T1C0.0039
; #@! TA.AperFunction,Plated,PTH,ComponentDrill
T2C0.0591
%
G90
G05
T1
X6.9272Y-2.7598
X6.9469Y-2.5925
X6.9764Y-2.5984
X6.9764Y-2.685
X6.9783Y-0.8524
X6.9783Y-0.9331
X6.9783Y-1.0118
X6.9783Y-1.0906
X6.9783Y-1.1752
X6.9783Y-1.2657
X6.9783Y-1.3583
X6.9783Y-1.4449
X6.9783Y-1.5335
X6.9783Y-1.622
X6.9783Y-1.7126
X6.9783Y-1.7992
X6.9783Y-1.8839
X6.9783Y-1.9724
X6.9783Y-2.065
X6.9783Y-2.1594
X6.9783Y-2.252
X6.9783Y-2.3504
X6.9783Y-2.4409
X6.9783Y-2.5118
X7.0276Y-2.5295
X7.0453Y-2.6673
X7.0472Y-0.8543
X7.0472Y-0.9331
X7.0472Y-1.0118
X7.0472Y-1.0925
X7.0472Y-1.1772
X7.0472Y-1.2677
X7.0472Y-1.3602
X7.0472Y-1.4449
X7.0472Y-1.5335
X7.0472Y-1.622
X7.0472Y-1.7106
X7.0472Y-1.7992
X7.0472Y-1.8858
X7.0472Y-1.9724
X7.0472Y-2.065
X7.0472Y-2.1594
X7.0472Y-2.252
X7.0472Y-2.3504
X7.0472Y-2.4547
X7.0472Y-2.5138
X7.0472Y-2.5984
X7.1142Y-0.8504
X7.1161Y-2.439
X7.1161Y-2.5138
X7.1161Y-2.5984
X7.1161Y-2.6713
X7.1161Y-2.7421
X7.1161Y-2.878
X7.1186Y-0.9331
X7.1186Y-1.0118
X7.1186Y-1.0925
X7.1186Y-1.1752
X7.1186Y-1.2677
X7.1186Y-1.3583
X7.1186Y-1.4449
X7.1186Y-1.5337
X7.1186Y-1.6181
X7.1186Y-1.7106
X7.1186Y-1.7972
X7.1186Y-1.8799
X7.1186Y-1.9705
X7.1186Y-2.061
X7.1186Y-2.1614
X7.1186Y-2.252
X7.1186Y-2.3504
X7.1186Y-2.4194
X7.1804Y-0.8511
X7.1811Y-0.9331
X7.1811Y-1.0138
X7.1811Y-1.0925
X7.1811Y-1.1752
X7.1811Y-1.2677
X7.1811Y-1.3583
X7.1811Y-1.4449
X7.1811Y-1.5354
X7.1811Y-1.622
X7.1811Y-1.7126
X7.1811Y-1.7992
X7.1811Y-1.8839
X7.1811Y-1.9724
X7.1811Y-2.063
X7.1811Y-2.1594
X7.1811Y-2.248
X7.1811Y-2.3307
X7.1831Y-2.3504
X7.1831Y-2.439
X7.1831Y-2.5138
X7.1836Y-2.5999
X7.185Y-2.6693
X7.187Y-2.7461
X7.252Y-0.9331
X7.252Y-1.0118
X7.252Y-1.0906
X7.252Y-1.1772
X7.252Y-1.2638
X7.252Y-1.3543
X7.252Y-1.4449
X7.252Y-1.5335
X7.252Y-1.6201
X7.252Y-1.7106
X7.252Y-1.7972
X7.252Y-1.8819
X7.252Y-1.9676
X7.252Y-2.061
X7.252Y-2.1555
X7.252Y-2.2303
X7.252Y-2.25
X7.252Y-2.3504
X7.252Y-2.4408
X7.252Y-2.5984
X7.252Y-2.687
X7.252Y-2.7421
X7.2539Y-0.8524
X7.2539Y-2.5118
X7.2559Y-3.6339
X7.3209Y-2.5984
X7.3228Y-0.8524
X7.3228Y-2.1575
X7.3228Y-2.252
X7.3228Y-2.3524
X7.3228Y-2.4409
X7.3228Y-2.5118
X7.3228Y-2.687
X7.3228Y-2.7421
X7.3248Y-0.9331
X7.3248Y-1.0079
X7.3248Y-1.0906
X7.3248Y-1.1732
X7.3248Y-1.2638
X7.3248Y-1.3543
X7.3248Y-1.439
X7.3248Y-1.5236
X7.3248Y-1.6181
X7.3248Y-1.7028
X7.3248Y-1.7972
X7.3248Y-1.8799
X7.3248Y-1.9665
X7.3248Y-2.0591
X7.3248Y-2.1378
X7.3898Y-2.5984
X7.3917Y-0.8524
X7.3917Y-2.061
X7.3917Y-2.1634
X7.3917Y-2.252
X7.3917Y-2.3504
X7.3917Y-2.439
X7.3917Y-2.5098
X7.3917Y-2.685
X7.3917Y-2.7421
X7.3939Y-0.9311
X7.3939Y-0.9921
X7.3939Y-1.0886
X7.3939Y-1.1713
X7.3939Y-1.2657
X7.3939Y-1.3583
X7.3939Y-1.4449
X7.3939Y-1.5315
X7.3939Y-1.622
X7.3939Y-1.7106
X7.3939Y-1.8012
X7.3939Y-1.8839
X7.3939Y-1.9705
X7.3939Y-2.0415
X7.435Y-3.2776
X7.4587Y-2.5984
X7.4606Y-0.8524
X7.4606Y-2.0669
X7.4606Y-2.1634
X7.4606Y-2.2559
X7.4606Y-2.3504
X7.4606Y-2.439
X7.4606Y-2.5118
X7.4606Y-2.685
X7.4606Y-2.7413
X7.4626Y-1.9685
X7.4646Y-0.9213
X7.4646Y-1.0039
X7.4646Y-1.0807
X7.4646Y-1.1693
X7.4646Y-1.2539
X7.4646Y-1.3484
X7.4646Y-1.435
X7.4646Y-1.5256
X7.4646Y-1.6122
X7.4646Y-1.7087
X7.4646Y-1.7933
X7.4646Y-1.878
X7.4646Y-1.9488
X7.5Y-3.4528
X7.5295Y-0.8504
X7.5295Y-0.9331
X7.5295Y-1.0118
X7.5295Y-1.0906
X7.5295Y-1.1752
X7.5295Y-1.2657
X7.5295Y-1.3583
X7.5295Y-1.4449
X7.5295Y-1.5354
X7.5295Y-1.624
X7.5295Y-1.7106
X7.5295Y-1.7972
X7.5295Y-1.8622
X7.5295Y-1.8819
X7.5295Y-1.9724
X7.5295Y-2.065
X7.5295Y-2.1594
X7.5295Y-2.252
X7.5295Y-2.3504
X7.5295Y-2.439
X7.5295Y-2.5138
X7.5295Y-2.5984
X7.5295Y-2.685
X7.5295Y-2.7413
X7.5709Y-3.8524
X7.5945Y-0.8524
X7.5948Y-0.9331
X7.5948Y-1.0098
X7.5948Y-1.0906
X7.5948Y-1.1772
X7.5948Y-1.2634
X7.5948Y-1.3563
X7.5948Y-1.4429
X7.5948Y-1.5315
X7.5948Y-1.6201
X7.5948Y-1.7047
X7.5948Y-1.7796
X7.5965Y-2.5984
X7.5984Y-1.7992
X7.5984Y-1.8878
X7.5984Y-1.9724
X7.5984Y-2.065
X7.5984Y-2.1614
X7.5984Y-2.25
X7.5984Y-2.3504
X7.5984Y-2.439
X7.5984Y-2.5138
X7.5984Y-2.685
X7.5984Y-2.7421
X7.6634Y-0.8524
X7.6635Y-0.9331
X7.6635Y-1.0098
X7.6635Y-1.0886
X7.6635Y-1.1732
X7.6635Y-1.2657
X7.6635Y-1.3563
X7.6635Y-1.4429
X7.6635Y-1.5315
X7.6635Y-1.6201
X7.6635Y-1.6893
X7.6651Y-2.598
X7.6673Y-1.7087
X7.6673Y-1.7992
X7.6673Y-1.8839
X7.6673Y-1.9705
X7.6673Y-2.065
X7.6673Y-2.1614
X7.6673Y-2.2539
X7.6673Y-2.3524
X7.6673Y-2.439
X7.6673Y-2.5138
X7.6673Y-2.685
X7.6673Y-2.7413
X7.7323Y-2.685
X7.7323Y-2.7413
X7.7325Y-0.935
X7.7325Y-1.0118
X7.7325Y-1.0906
X7.7325Y-1.1752
X7.7325Y-1.2677
X7.7325Y-1.3563
X7.7325Y-1.4429
X7.7325Y-1.5315
X7.7325Y-1.6024
X7.7343Y-0.8524
X7.7343Y-1.622
X7.7343Y-1.7146
X7.7343Y-1.8012
X7.7343Y-1.8858
X7.7343Y-1.9764
X7.7343Y-2.0669
X7.7343Y-2.1614
X7.7343Y-2.2539
X7.7343Y-2.3504
X7.7343Y-2.439
X7.7343Y-2.5138
X7.7343Y-2.5984
X7.7835Y-3.4272
X7.7894Y-3.3642
X7.8014Y-0.9331
X7.8014Y-1.0138
X7.8014Y-1.0925
X7.8014Y-1.1772
X7.8014Y-1.2677
X7.8014Y-1.3583
X7.8014Y-1.4429
X7.8014Y-1.5161
X7.8031Y-0.8543
X7.8031Y-2.5984
X7.8031Y-2.685
X7.8031Y-2.7421
X7.8051Y-1.5354
X7.8051Y-1.626
X7.8051Y-1.7146
X7.8051Y-1.8031
X7.8051Y-1.8878
X7.8051Y-1.9744
X7.8051Y-2.0669
X7.8051Y-2.1634
X7.8051Y-2.2539
X7.8051Y-2.3524
X7.8051Y-2.4409
X7.8051Y-2.5138
X7.8287Y-2.748
X7.8293Y-3.2209
X7.8406Y-3.101
X7.8518Y-3.2392
X7.8701Y-0.8524
X7.8701Y-0.935
X7.8701Y-1.0098
X7.8701Y-1.0945
X7.8701Y-1.1752
X7.8701Y-1.2677
X7.8701Y-1.3583
X7.8703Y-1.4237
X7.872Y-2.5984
X7.872Y-2.685
X7.872Y-2.748
X7.874Y-1.4449
X7.874Y-1.5335
X7.874Y-1.624
X7.874Y-1.7126
X7.874Y-1.7992
X7.874Y-1.8858
X7.874Y-1.9705
X7.874Y-2.0669
X7.874Y-2.1594
X7.874Y-2.252
X7.874Y-2.3504
X7.874Y-2.439
X7.874Y-2.5098
X7.874Y-3.6831
X7.878Y-3.2402
X7.8839Y-3.6614
X7.8937Y-3.4272
X7.9232Y-2.75
X7.9409Y-1.3583
X7.9409Y-1.4449
X7.9409Y-1.5335
X7.9409Y-1.622
X7.9409Y-1.7124
X7.9409Y-1.7992
X7.9409Y-1.8858
X7.9409Y-1.9724
X7.9409Y-2.065
X7.9409Y-2.1594
X7.9409Y-2.252
X7.9409Y-2.3504
X7.9409Y-2.439
X7.9409Y-2.5138
X7.9409Y-2.5984
X7.9409Y-2.685
X7.9429Y-0.8504
X7.9431Y-0.9331
X7.9431Y-1.0118
X7.9431Y-1.0906
X7.9431Y-1.1752
X7.9431Y-1.2657
X7.9431Y-1.3387
X7.9567Y-3.6831
X7.9587Y-3.2559
X7.9679Y-3.0663
X7.9764Y-2.748
X7.9941Y-3.25
X7.9971Y-3.0621
X8.0079Y-2.685
X8.0081Y-1.2481
X8.0098Y-0.8524
X8.0098Y-0.9331
X8.0098Y-1.0118
X8.0098Y-1.0925
X8.0098Y-1.1752
X8.0098Y-1.2677
X8.0098Y-1.3602
X8.0098Y-1.4429
X8.0098Y-1.5335
X8.0098Y-1.624
X8.0098Y-1.7126
X8.0098Y-1.7992
X8.0098Y-1.8839
X8.0098Y-1.9724
X8.0098Y-2.065
X8.0098Y-2.1594
X8.0098Y-2.25
X8.0098Y-2.3502
X8.0098Y-2.4397
X8.0098Y-2.5118
X8.0098Y-2.5965
X8.0157Y-3.0689
X8.0512Y-3.061
X8.0591Y-2.7539
X8.0594Y-3.081
X8.061Y-3.3268
X8.0787Y-1.1732
X8.0787Y-1.2677
X8.0787Y-1.3583
X8.0787Y-1.4449
X8.0787Y-1.5354
X8.0787Y-1.624
X8.0787Y-1.7126
X8.0787Y-1.8012
X8.0787Y-1.8858
X8.0787Y-1.9724
X8.0787Y-2.065
X8.0787Y-2.1594
X8.0787Y-2.252
X8.0787Y-2.3504
X8.0787Y-2.437
X8.0787Y-2.5118
X8.0787Y-2.5984
X8.0787Y-2.685
X8.0807Y-0.8543
X8.0809Y-0.9341
X8.0809Y-1.0118
X8.0809Y-1.0906
X8.0809Y-1.1537
X8.0925Y-3.75
X8.0925Y-3.8484
X8.1024Y-2.7579
X8.1122Y-3.6831
X8.1201Y-3.3268
X8.128Y-1.1122
X8.1299Y-3.4252
X8.1476Y-1.0906
X8.1476Y-1.1732
X8.1476Y-1.2677
X8.1476Y-1.3574
X8.1476Y-1.4449
X8.1476Y-1.5335
X8.1476Y-1.622
X8.1476Y-1.7106
X8.1476Y-1.7992
X8.1476Y-1.8839
X8.1476Y-1.9705
X8.1476Y-2.0628
X8.1476Y-2.1614
X8.1476Y-2.252
X8.1476Y-2.3504
X8.1476Y-2.437
X8.1476Y-2.5138
X8.1476Y-2.5984
X8.1476Y-2.685
X8.1496Y-0.8504
X8.1496Y-0.9311
X8.1496Y-1.0138
X8.1732Y-3.5984
X8.1929Y-2.9823
X8.1949Y-3.0375
X8.1969Y-1.0276
X8.2028Y-3.3228
X8.2028Y-3.6476
X8.2087Y-3.626
X8.2165Y-0.8543
X8.2165Y-1.0138
X8.2165Y-1.0906
X8.2165Y-1.1772
X8.2165Y-1.2657
X8.2165Y-1.3583
X8.2165Y-1.4449
X8.2165Y-1.5354
X8.2165Y-1.622
X8.2165Y-1.7106
X8.2165Y-1.7992
X8.2165Y-1.8858
X8.2165Y-1.9705
X8.2165Y-2.065
X8.2165Y-2.1594
X8.2165Y-2.2539
X8.2165Y-2.3504
X8.2165Y-2.439
X8.2165Y-2.5118
X8.2165Y-2.5984
X8.2165Y-2.685
X8.2185Y-0.9331
X8.2242Y-3.4293
X8.2245Y-3.4096
X8.2264Y-3.4488
X8.2343Y-3.2912
X8.2815Y-2.9961
X8.2849Y-0.9324
X8.2854Y-0.8524
X8.2929Y-3.2248
X8.2953Y-3.8228
X8.3169Y-3.1339
X8.3622Y-3.4776
X8.378Y-3.4921
X8.3819Y-3.5512
X8.3937Y-3.5098
X8.4114Y-3.5276
X8.437Y-3.3602
X8.4449Y-3.3976
X8.4449Y-3.4882
X8.445Y-3.4173
X8.4646Y-3.5492
X8.4821Y-3.3978
X8.4843Y-3.4173
X8.502Y-3.435
T2
X7.0713Y-2.9705
X7.878Y-2.9705
M30
