%TF.GenerationSoftware,KiCad,Pcbnew,8.0.0*%
%TF.CreationDate,2024-03-20T12:42:59-05:00*%
%TF.ProjectId,tetrisBusinessCard,74657472-6973-4427-9573-696e65737343,rev?*%
%TF.SameCoordinates,Original*%
%TF.FileFunction,Soldermask,Top*%
%TF.FilePolarity,Negative*%
%FSLAX46Y46*%
G04 Gerber Fmt 4.6, Leading zero omitted, Abs format (unit mm)*
G04 Created by KiCad (PCBNEW 8.0.0) date 2024-03-20 12:42:59*
%MOMM*%
%LPD*%
G01*
G04 APERTURE LIST*
G04 Aperture macros list*
%AMRoundRect*
0 Rectangle with rounded corners*
0 $1 Rounding radius*
0 $2 $3 $4 $5 $6 $7 $8 $9 X,Y pos of 4 corners*
0 Add a 4 corners polygon primitive as box body*
4,1,4,$2,$3,$4,$5,$6,$7,$8,$9,$2,$3,0*
0 Add four circle primitives for the rounded corners*
1,1,$1+$1,$2,$3*
1,1,$1+$1,$4,$5*
1,1,$1+$1,$6,$7*
1,1,$1+$1,$8,$9*
0 Add four rect primitives between the rounded corners*
20,1,$1+$1,$2,$3,$4,$5,0*
20,1,$1+$1,$4,$5,$6,$7,0*
20,1,$1+$1,$6,$7,$8,$9,0*
20,1,$1+$1,$8,$9,$2,$3,0*%
G04 Aperture macros list end*
%ADD10RoundRect,0.100000X-0.162635X0.021213X0.021213X-0.162635X0.162635X-0.021213X-0.021213X0.162635X0*%
%ADD11RoundRect,0.100000X0.130000X0.100000X-0.130000X0.100000X-0.130000X-0.100000X0.130000X-0.100000X0*%
%ADD12RoundRect,0.100000X-0.100000X0.130000X-0.100000X-0.130000X0.100000X-0.130000X0.100000X0.130000X0*%
%ADD13R,1.000000X1.000000*%
%ADD14R,0.812800X0.254000*%
%ADD15R,0.203200X1.600200*%
%ADD16R,0.900000X1.700000*%
%ADD17R,1.000000X0.800000*%
%ADD18C,0.900000*%
%ADD19R,0.700000X1.500000*%
%ADD20R,0.812800X0.177800*%
%ADD21R,0.177800X0.812800*%
%ADD22R,3.200400X3.200400*%
%ADD23RoundRect,0.100000X0.100000X-0.130000X0.100000X0.130000X-0.100000X0.130000X-0.100000X-0.130000X0*%
%ADD24R,3.000000X3.000000*%
%ADD25C,3.000000*%
G04 APERTURE END LIST*
D10*
%TO.C,D56*%
X188106811Y-26059311D03*
X188559359Y-26511859D03*
%TD*%
%TO.C,D198*%
X196856811Y-41584311D03*
X197309359Y-42036859D03*
%TD*%
%TO.C,D290*%
X182856811Y-50464311D03*
X183309359Y-50916859D03*
%TD*%
%TO.C,D232*%
X210856811Y-46059311D03*
X211309359Y-46511859D03*
%TD*%
%TO.C,D68*%
X203856811Y-28084311D03*
X204309359Y-28536859D03*
%TD*%
%TO.C,D434*%
X188106811Y-66394311D03*
X188559359Y-66846859D03*
%TD*%
%TO.C,D57*%
X186356811Y-26059311D03*
X186809359Y-26511859D03*
%TD*%
%TO.C,D58*%
X184606811Y-26059311D03*
X185059359Y-26511859D03*
%TD*%
%TO.C,D74*%
X193356811Y-28084311D03*
X193809359Y-28536859D03*
%TD*%
%TO.C,D28*%
X200356811Y-24084311D03*
X200809359Y-24536859D03*
%TD*%
%TO.C,D430*%
X195106811Y-66394311D03*
X195559359Y-66846859D03*
%TD*%
%TO.C,D24*%
X207356811Y-24084311D03*
X207809359Y-24536859D03*
%TD*%
%TO.C,D22*%
X210856811Y-24084311D03*
X211309359Y-24536859D03*
%TD*%
D11*
%TO.C,C9*%
X201700000Y-82350000D03*
X201060000Y-82350000D03*
%TD*%
D10*
%TO.C,D242*%
X193356811Y-46059311D03*
X193809359Y-46511859D03*
%TD*%
%TO.C,D390*%
X191606811Y-62334311D03*
X192059359Y-62786859D03*
%TD*%
%TO.C,D264*%
X191606811Y-48239311D03*
X192059359Y-48691859D03*
%TD*%
%TO.C,D190*%
X210856811Y-41584311D03*
X211309359Y-42036859D03*
%TD*%
%TO.C,D399*%
X175856811Y-62334311D03*
X176309359Y-62786859D03*
%TD*%
%TO.C,D324*%
X196856811Y-55239311D03*
X197309359Y-55691859D03*
%TD*%
%TO.C,D302*%
X198606811Y-52809311D03*
X199059359Y-53261859D03*
%TD*%
%TO.C,D334*%
X179356811Y-55239311D03*
X179809359Y-55691859D03*
%TD*%
%TO.C,D201*%
X191606811Y-41584311D03*
X192059359Y-42036859D03*
%TD*%
%TO.C,D202*%
X189856811Y-41584311D03*
X190309359Y-42036859D03*
%TD*%
D12*
%TO.C,C12*%
X207500000Y-93025000D03*
X207500000Y-93665000D03*
%TD*%
D10*
%TO.C,D426*%
X202106811Y-66394311D03*
X202559359Y-66846859D03*
%TD*%
%TO.C,D180*%
X191606811Y-39334311D03*
X192059359Y-39786859D03*
%TD*%
%TO.C,D452*%
X193356811Y-68584311D03*
X193809359Y-69036859D03*
%TD*%
%TO.C,D90*%
X202106811Y-30239311D03*
X202559359Y-30691859D03*
%TD*%
%TO.C,D384*%
X202106811Y-62334311D03*
X202559359Y-62786859D03*
%TD*%
%TO.C,D422*%
X209106811Y-66394311D03*
X209559359Y-66846859D03*
%TD*%
D11*
%TO.C,C1*%
X211702500Y-83227500D03*
X211062500Y-83227500D03*
%TD*%
D10*
%TO.C,D411*%
X191606811Y-64194311D03*
X192059359Y-64646859D03*
%TD*%
%TO.C,D4*%
X205606811Y-22059311D03*
X206059359Y-22511859D03*
%TD*%
%TO.C,D355*%
X179356811Y-57559311D03*
X179809359Y-58011859D03*
%TD*%
%TO.C,D98*%
X188106811Y-30239311D03*
X188559359Y-30691859D03*
%TD*%
%TO.C,D361*%
X205606811Y-60084311D03*
X206059359Y-60536859D03*
%TD*%
%TO.C,D366*%
X196856811Y-60084311D03*
X197309359Y-60536859D03*
%TD*%
%TO.C,D27*%
X202106811Y-24084311D03*
X202559359Y-24536859D03*
%TD*%
%TO.C,D52*%
X195106812Y-26059310D03*
X195559360Y-26511858D03*
%TD*%
%TO.C,D26*%
X203856811Y-24084311D03*
X204309359Y-24536859D03*
%TD*%
%TO.C,D34*%
X189856811Y-24084311D03*
X190309359Y-24536859D03*
%TD*%
%TO.C,D197*%
X198606811Y-41584311D03*
X199059359Y-42036859D03*
%TD*%
%TO.C,D185*%
X182856811Y-39334311D03*
X183309359Y-39786859D03*
%TD*%
%TO.C,D30*%
X196856811Y-24084311D03*
X197309359Y-24536859D03*
%TD*%
%TO.C,D450*%
X196856811Y-68584311D03*
X197309359Y-69036859D03*
%TD*%
%TO.C,D453*%
X191606811Y-68584311D03*
X192059359Y-69036859D03*
%TD*%
%TO.C,D326*%
X193356811Y-55239311D03*
X193809359Y-55691859D03*
%TD*%
%TO.C,D273*%
X175856811Y-48239311D03*
X176309359Y-48691859D03*
%TD*%
%TO.C,D279*%
X202106811Y-50464311D03*
X202559359Y-50916859D03*
%TD*%
%TO.C,D266*%
X188106811Y-48239311D03*
X188559359Y-48691859D03*
%TD*%
D13*
%TO.C,REF\u002A\u002A*%
X215550000Y-82850000D03*
%TD*%
D10*
%TO.C,D121*%
X184606811Y-32559311D03*
X185059359Y-33011859D03*
%TD*%
D12*
%TO.C,C3*%
X206900000Y-79125000D03*
X206900000Y-79765000D03*
%TD*%
D10*
%TO.C,D269*%
X182856811Y-48239311D03*
X183309359Y-48691859D03*
%TD*%
%TO.C,D192*%
X207356811Y-41584311D03*
X207809359Y-42036859D03*
%TD*%
%TO.C,D109*%
X205606811Y-32559311D03*
X206059359Y-33011859D03*
%TD*%
%TO.C,D368*%
X193356811Y-60084311D03*
X193809359Y-60536859D03*
%TD*%
%TO.C,D14*%
X188106811Y-22059311D03*
X188559359Y-22511859D03*
%TD*%
%TO.C,D41*%
X177606811Y-24084311D03*
X178059359Y-24536859D03*
%TD*%
%TO.C,D439*%
X179356811Y-66384311D03*
X179809359Y-66836859D03*
%TD*%
%TO.C,D223*%
X189856811Y-43834311D03*
X190309359Y-44286859D03*
%TD*%
%TO.C,D437*%
X182856811Y-66394311D03*
X183309359Y-66846859D03*
%TD*%
%TO.C,D80*%
X182856812Y-28084310D03*
X183309360Y-28536858D03*
%TD*%
%TO.C,D50*%
X198606811Y-26059311D03*
X199059359Y-26511859D03*
%TD*%
%TO.C,D63*%
X175856811Y-26059311D03*
X176309359Y-26511859D03*
%TD*%
%TO.C,D275*%
X209106811Y-50464311D03*
X209559359Y-50916859D03*
%TD*%
%TO.C,D208*%
X179356811Y-41584311D03*
X179809359Y-42036859D03*
%TD*%
%TO.C,D292*%
X179356811Y-50464311D03*
X179809359Y-50916859D03*
%TD*%
%TO.C,D147*%
X175856811Y-34894311D03*
X176309359Y-35346859D03*
%TD*%
%TO.C,D195*%
X202106811Y-41584311D03*
X202559359Y-42036859D03*
%TD*%
%TO.C,D351*%
X186356811Y-57559311D03*
X186809359Y-58011859D03*
%TD*%
%TO.C,D99*%
X186356811Y-30239311D03*
X186809359Y-30691859D03*
%TD*%
%TO.C,D59*%
X182856811Y-26059311D03*
X183309359Y-26511859D03*
%TD*%
D13*
%TO.C,REF\u002A\u002A*%
X215550000Y-78800000D03*
%TD*%
D10*
%TO.C,D379*%
X210856811Y-62334311D03*
X211309359Y-62786859D03*
%TD*%
%TO.C,D376*%
X179356811Y-60084311D03*
X179809359Y-60536859D03*
%TD*%
%TO.C,D342*%
X202106811Y-57559311D03*
X202559359Y-58011859D03*
%TD*%
%TO.C,D409*%
X195106811Y-64194311D03*
X195559359Y-64646859D03*
%TD*%
%TO.C,D333*%
X181106811Y-55239311D03*
X181559359Y-55691859D03*
%TD*%
%TO.C,D220*%
X195106811Y-43834311D03*
X195559359Y-44286859D03*
%TD*%
%TO.C,D268*%
X184606811Y-48239311D03*
X185059359Y-48691859D03*
%TD*%
%TO.C,D35*%
X188106811Y-24084311D03*
X188559359Y-24536859D03*
%TD*%
%TO.C,D20*%
X177606811Y-22059311D03*
X178059359Y-22511859D03*
%TD*%
%TO.C,D295*%
X210856811Y-52809311D03*
X211309359Y-53261859D03*
%TD*%
%TO.C,D436*%
X184606811Y-66394311D03*
X185059359Y-66846859D03*
%TD*%
%TO.C,D454*%
X189856811Y-68584311D03*
X190309359Y-69036859D03*
%TD*%
D14*
%TO.C,U2*%
X200453200Y-78999999D03*
X200453200Y-79500000D03*
X200453200Y-80000000D03*
X200453200Y-80500001D03*
X203250000Y-80500001D03*
X203250000Y-80000000D03*
X203250000Y-79500000D03*
X203250000Y-78999999D03*
D15*
X201851600Y-79750000D03*
%TD*%
D10*
%TO.C,D116*%
X193356811Y-32559311D03*
X193809359Y-33011859D03*
%TD*%
%TO.C,D156*%
X196856811Y-37084311D03*
X197309359Y-37536859D03*
%TD*%
%TO.C,D120*%
X186356811Y-32559311D03*
X186809359Y-33011859D03*
%TD*%
%TO.C,D174*%
X202106811Y-39334311D03*
X202559359Y-39786859D03*
%TD*%
%TO.C,D66*%
X207356811Y-28084311D03*
X207809359Y-28536859D03*
%TD*%
%TO.C,D327*%
X191606811Y-55239311D03*
X192059359Y-55691859D03*
%TD*%
%TO.C,D134*%
X198606811Y-34894311D03*
X199059359Y-35346859D03*
%TD*%
%TO.C,D312*%
X181106811Y-52809311D03*
X181559359Y-53261859D03*
%TD*%
%TO.C,D33*%
X191606811Y-24084311D03*
X192059359Y-24536859D03*
%TD*%
%TO.C,D424*%
X205606811Y-66394311D03*
X206059359Y-66846859D03*
%TD*%
%TO.C,D241*%
X195106811Y-46059311D03*
X195559359Y-46511859D03*
%TD*%
%TO.C,D435*%
X186356811Y-66394311D03*
X186809359Y-66846859D03*
%TD*%
%TO.C,D86*%
X209106811Y-30239311D03*
X209559359Y-30691859D03*
%TD*%
%TO.C,D429*%
X196856811Y-66394311D03*
X197309359Y-66846859D03*
%TD*%
%TO.C,D393*%
X186356811Y-62334311D03*
X186809359Y-62786859D03*
%TD*%
%TO.C,D39*%
X181106811Y-24084311D03*
X181559359Y-24536859D03*
%TD*%
%TO.C,D154*%
X200356811Y-37084311D03*
X200809359Y-37536859D03*
%TD*%
D16*
%TO.C,SW5*%
X203500000Y-95400000D03*
X200099998Y-95400000D03*
%TD*%
D10*
%TO.C,D224*%
X188106811Y-43834311D03*
X188559359Y-44286859D03*
%TD*%
%TO.C,D389*%
X193356811Y-62334311D03*
X193809359Y-62786859D03*
%TD*%
%TO.C,D408*%
X196856811Y-64194311D03*
X197309359Y-64646859D03*
%TD*%
%TO.C,D75*%
X191606811Y-28084311D03*
X192059359Y-28536859D03*
%TD*%
%TO.C,D319*%
X205606811Y-55239311D03*
X206059359Y-55691859D03*
%TD*%
%TO.C,D303*%
X196856811Y-52809311D03*
X197309359Y-53261859D03*
%TD*%
%TO.C,D46*%
X205606811Y-26059311D03*
X206059359Y-26511859D03*
%TD*%
%TO.C,D449*%
X198606811Y-68584311D03*
X199059359Y-69036859D03*
%TD*%
%TO.C,D247*%
X184606811Y-46059311D03*
X185059359Y-46511859D03*
%TD*%
%TO.C,D136*%
X195106811Y-34894311D03*
X195559359Y-35346859D03*
%TD*%
%TO.C,D455*%
X188106811Y-68584311D03*
X188559359Y-69036859D03*
%TD*%
%TO.C,D225*%
X186356811Y-43834311D03*
X186809359Y-44286859D03*
%TD*%
D11*
%TO.C,R4*%
X211570000Y-74950000D03*
X210930000Y-74950000D03*
%TD*%
D10*
%TO.C,D441*%
X175856811Y-66394311D03*
X176309359Y-66846859D03*
%TD*%
%TO.C,D230*%
X177606811Y-43834311D03*
X178059359Y-44286859D03*
%TD*%
%TO.C,D205*%
X184606811Y-41584311D03*
X185059359Y-42036859D03*
%TD*%
%TO.C,D87*%
X207356811Y-30239311D03*
X207809359Y-30691859D03*
%TD*%
%TO.C,D128*%
X209106811Y-34894311D03*
X209559359Y-35346859D03*
%TD*%
%TO.C,D457*%
X184606811Y-68584311D03*
X185059359Y-69036859D03*
%TD*%
%TO.C,D459*%
X181106811Y-68584311D03*
X181559359Y-69036859D03*
%TD*%
%TO.C,D122*%
X182856811Y-32559311D03*
X183309359Y-33011859D03*
%TD*%
%TO.C,D343*%
X200356811Y-57559311D03*
X200809359Y-58011859D03*
%TD*%
%TO.C,D226*%
X184606811Y-43834311D03*
X185059359Y-44286859D03*
%TD*%
%TO.C,D388*%
X195106811Y-62334311D03*
X195559359Y-62786859D03*
%TD*%
%TO.C,D307*%
X189856811Y-52809311D03*
X190309359Y-53261859D03*
%TD*%
%TO.C,D346*%
X195106811Y-57559311D03*
X195559359Y-58011859D03*
%TD*%
%TO.C,D328*%
X189856811Y-55239311D03*
X190309359Y-55691859D03*
%TD*%
%TO.C,D406*%
X200356811Y-64194311D03*
X200809359Y-64646859D03*
%TD*%
%TO.C,D25*%
X205606811Y-24084311D03*
X206059359Y-24536859D03*
%TD*%
%TO.C,D391*%
X189856811Y-62334311D03*
X190309359Y-62786859D03*
%TD*%
%TO.C,D298*%
X205606811Y-52809311D03*
X206059359Y-53261859D03*
%TD*%
%TO.C,D127*%
X210856811Y-34894311D03*
X211309359Y-35346859D03*
%TD*%
%TO.C,D15*%
X186356811Y-22059311D03*
X186809359Y-22511859D03*
%TD*%
%TO.C,D374*%
X182856811Y-60084311D03*
X183309359Y-60536859D03*
%TD*%
%TO.C,D55*%
X189856811Y-26059311D03*
X190309359Y-26511859D03*
%TD*%
%TO.C,D432*%
X191606811Y-66394311D03*
X192059359Y-66846859D03*
%TD*%
%TO.C,D341*%
X203856811Y-57559311D03*
X204309359Y-58011859D03*
%TD*%
%TO.C,D256*%
X205606811Y-48239311D03*
X206059359Y-48691859D03*
%TD*%
%TO.C,D217*%
X200356811Y-43834311D03*
X200809359Y-44286859D03*
%TD*%
D12*
%TO.C,C7*%
X205400000Y-79097500D03*
X205400000Y-79737500D03*
%TD*%
D10*
%TO.C,D321*%
X202106811Y-55239311D03*
X202559359Y-55691859D03*
%TD*%
%TO.C,D357*%
X175856811Y-57559311D03*
X176309359Y-58011859D03*
%TD*%
%TO.C,D182*%
X188106811Y-39334311D03*
X188559359Y-39786859D03*
%TD*%
%TO.C,D150*%
X207356811Y-37084311D03*
X207809359Y-37536859D03*
%TD*%
%TO.C,D73*%
X195106811Y-28084311D03*
X195559359Y-28536859D03*
%TD*%
%TO.C,D177*%
X196856811Y-39334311D03*
X197309359Y-39786859D03*
%TD*%
%TO.C,D138*%
X191606811Y-34894311D03*
X192059359Y-35346859D03*
%TD*%
%TO.C,D315*%
X175856811Y-52809311D03*
X176309359Y-53261859D03*
%TD*%
%TO.C,D283*%
X195106811Y-50464311D03*
X195559359Y-50916859D03*
%TD*%
%TO.C,D288*%
X186356811Y-50464311D03*
X186809359Y-50916859D03*
%TD*%
%TO.C,D70*%
X200356811Y-28084311D03*
X200809359Y-28536859D03*
%TD*%
%TO.C,D89*%
X203856811Y-30239311D03*
X204309359Y-30691859D03*
%TD*%
%TO.C,D311*%
X182856811Y-52809311D03*
X183309359Y-53261859D03*
%TD*%
%TO.C,D442*%
X210856811Y-68584311D03*
X211309359Y-69036859D03*
%TD*%
%TO.C,D304*%
X195106811Y-52809311D03*
X195559359Y-53261859D03*
%TD*%
%TO.C,D88*%
X205606811Y-30239311D03*
X206059359Y-30691859D03*
%TD*%
%TO.C,D293*%
X177606811Y-50464311D03*
X178059359Y-50916859D03*
%TD*%
D17*
%TO.C,SW7*%
X192400000Y-100045000D03*
X192400000Y-102255000D03*
D18*
X194550000Y-101155000D03*
X197550000Y-101155000D03*
D17*
X199700000Y-100045000D03*
X199700000Y-102255000D03*
D19*
X193800000Y-99395000D03*
X196800000Y-99395000D03*
X198300000Y-99395000D03*
%TD*%
D10*
%TO.C,D32*%
X193356811Y-24084311D03*
X193809359Y-24536859D03*
%TD*%
%TO.C,D253*%
X210856811Y-48239311D03*
X211309359Y-48691859D03*
%TD*%
%TO.C,D369*%
X191606811Y-60084311D03*
X192059359Y-60536859D03*
%TD*%
%TO.C,D461*%
X177606811Y-68584311D03*
X178059359Y-69036859D03*
%TD*%
%TO.C,D168*%
X175856811Y-37084311D03*
X176309359Y-37536859D03*
%TD*%
%TO.C,D65*%
X209106811Y-28084311D03*
X209559359Y-28536859D03*
%TD*%
%TO.C,D218*%
X198606811Y-43834311D03*
X199059359Y-44286859D03*
%TD*%
%TO.C,D123*%
X181106811Y-32559311D03*
X181559359Y-33011859D03*
%TD*%
D13*
%TO.C,REF\u002A\u002A*%
X215550000Y-76800000D03*
%TD*%
D10*
%TO.C,D423*%
X207356811Y-66394311D03*
X207809359Y-66846859D03*
%TD*%
%TO.C,D214*%
X205606811Y-43834311D03*
X206059359Y-44286859D03*
%TD*%
%TO.C,D386*%
X198606811Y-62334311D03*
X199059359Y-62786859D03*
%TD*%
D16*
%TO.C,SW4*%
X188650000Y-96800000D03*
X185250000Y-96800000D03*
%TD*%
D10*
%TO.C,D31*%
X195106811Y-24084311D03*
X195559359Y-24536859D03*
%TD*%
%TO.C,D329*%
X188106811Y-55239311D03*
X188559359Y-55691859D03*
%TD*%
%TO.C,D448*%
X200356811Y-68584311D03*
X200809359Y-69036859D03*
%TD*%
%TO.C,D91*%
X200356811Y-30239311D03*
X200809359Y-30691859D03*
%TD*%
%TO.C,D29*%
X198606811Y-24084311D03*
X199059359Y-24536859D03*
%TD*%
%TO.C,D61*%
X179356811Y-26059311D03*
X179809359Y-26511859D03*
%TD*%
%TO.C,D111*%
X202106811Y-32559311D03*
X202559359Y-33011859D03*
%TD*%
%TO.C,D188*%
X177606811Y-39334311D03*
X178059359Y-39786859D03*
%TD*%
%TO.C,D316*%
X210856811Y-55239311D03*
X211309359Y-55691859D03*
%TD*%
%TO.C,D280*%
X200356811Y-50464311D03*
X200809359Y-50916859D03*
%TD*%
%TO.C,D373*%
X184606811Y-60084311D03*
X185059359Y-60536859D03*
%TD*%
%TO.C,D146*%
X177606811Y-34894311D03*
X178059359Y-35346859D03*
%TD*%
%TO.C,D259*%
X200356811Y-48239311D03*
X200809359Y-48691859D03*
%TD*%
%TO.C,D349*%
X189856811Y-57559311D03*
X190309359Y-58011859D03*
%TD*%
%TO.C,D396*%
X181106811Y-62334311D03*
X181559359Y-62786859D03*
%TD*%
%TO.C,D405*%
X202106811Y-64194311D03*
X202559359Y-64646859D03*
%TD*%
%TO.C,D17*%
X182856811Y-22059311D03*
X183309359Y-22511859D03*
%TD*%
%TO.C,D79*%
X184606811Y-28084311D03*
X185059359Y-28536859D03*
%TD*%
%TO.C,D323*%
X198606811Y-55239311D03*
X199059359Y-55691859D03*
%TD*%
%TO.C,D285*%
X191606811Y-50464311D03*
X192059359Y-50916859D03*
%TD*%
%TO.C,D416*%
X182856811Y-64194311D03*
X183309359Y-64646859D03*
%TD*%
%TO.C,D53*%
X193356811Y-26059311D03*
X193809359Y-26511859D03*
%TD*%
%TO.C,D308*%
X188106811Y-52809311D03*
X188559359Y-53261859D03*
%TD*%
%TO.C,D428*%
X198606811Y-66394311D03*
X199059359Y-66846859D03*
%TD*%
%TO.C,D10*%
X195106811Y-22059311D03*
X195559359Y-22511859D03*
%TD*%
D12*
%TO.C,C10*%
X206617500Y-93025000D03*
X206617500Y-93665000D03*
%TD*%
D10*
%TO.C,D43*%
X210856811Y-26059311D03*
X211309359Y-26511859D03*
%TD*%
%TO.C,D335*%
X177606811Y-55239311D03*
X178059359Y-55691859D03*
%TD*%
%TO.C,D236*%
X203856811Y-46059311D03*
X204309359Y-46511859D03*
%TD*%
%TO.C,D395*%
X182856811Y-62334311D03*
X183309359Y-62786859D03*
%TD*%
%TO.C,D211*%
X210856811Y-43834311D03*
X211309359Y-44286859D03*
%TD*%
%TO.C,D103*%
X179356811Y-30239311D03*
X179809359Y-30691859D03*
%TD*%
%TO.C,D78*%
X186356811Y-28084311D03*
X186809359Y-28536859D03*
%TD*%
D20*
%TO.C,U1*%
X203096400Y-84400000D03*
X203096400Y-84799999D03*
X203096400Y-85200001D03*
X203096400Y-85600000D03*
X203096400Y-85999999D03*
X203096400Y-86400001D03*
X203096400Y-86800000D03*
X203096400Y-87200000D03*
X203096400Y-87599999D03*
X203096400Y-88000001D03*
X203096400Y-88400000D03*
X203096400Y-88799999D03*
X203096400Y-89200001D03*
X203096400Y-89600000D03*
D21*
X203900000Y-90403600D03*
X204299999Y-90403600D03*
X204700001Y-90403600D03*
X205100000Y-90403600D03*
X205499999Y-90403600D03*
X205900001Y-90403600D03*
X206300000Y-90403600D03*
X206700000Y-90403600D03*
X207099999Y-90403600D03*
X207500001Y-90403600D03*
X207900000Y-90403600D03*
X208299999Y-90403600D03*
X208700001Y-90403600D03*
X209100000Y-90403600D03*
D20*
X209903600Y-89600000D03*
X209903600Y-89200001D03*
X209903600Y-88799999D03*
X209903600Y-88400000D03*
X209903600Y-88000001D03*
X209903600Y-87599999D03*
X209903600Y-87200000D03*
X209903600Y-86800000D03*
X209903600Y-86400001D03*
X209903600Y-85999999D03*
X209903600Y-85600000D03*
X209903600Y-85200001D03*
X209903600Y-84799999D03*
X209903600Y-84400000D03*
D21*
X209100000Y-83596400D03*
X208700001Y-83596400D03*
X208299999Y-83596400D03*
X207900000Y-83596400D03*
X207500001Y-83596400D03*
X207099999Y-83596400D03*
X206700000Y-83596400D03*
X206300000Y-83596400D03*
X205900001Y-83596400D03*
X205499999Y-83596400D03*
X205100000Y-83596400D03*
X204700001Y-83596400D03*
X204299999Y-83596400D03*
X203900000Y-83596400D03*
D22*
X206500000Y-87000000D03*
%TD*%
D10*
%TO.C,D446*%
X203856811Y-68584311D03*
X204309359Y-69036859D03*
%TD*%
%TO.C,D229*%
X179356811Y-43834311D03*
X179809359Y-44286859D03*
%TD*%
%TO.C,D277*%
X205606811Y-50464311D03*
X206059359Y-50916859D03*
%TD*%
%TO.C,D344*%
X198606811Y-57559311D03*
X199059359Y-58011859D03*
%TD*%
%TO.C,D272*%
X177606811Y-48239311D03*
X178059359Y-48691859D03*
%TD*%
%TO.C,D155*%
X198606811Y-37084311D03*
X199059359Y-37536859D03*
%TD*%
%TO.C,D289*%
X184606811Y-50464311D03*
X185059359Y-50916859D03*
%TD*%
%TO.C,D184*%
X184606811Y-39334311D03*
X185059359Y-39786859D03*
%TD*%
%TO.C,D84*%
X175856811Y-28084311D03*
X176309359Y-28536859D03*
%TD*%
%TO.C,D200*%
X193356811Y-41584311D03*
X193809359Y-42036859D03*
%TD*%
%TO.C,D131*%
X203856811Y-34894311D03*
X204309359Y-35346859D03*
%TD*%
%TO.C,D96*%
X191606811Y-30239311D03*
X192059359Y-30691859D03*
%TD*%
%TO.C,D250*%
X179356811Y-46059311D03*
X179809359Y-46511859D03*
%TD*%
%TO.C,D415*%
X184606811Y-64194311D03*
X185059359Y-64646859D03*
%TD*%
%TO.C,D114*%
X196856811Y-32559311D03*
X197309359Y-33011859D03*
%TD*%
%TO.C,D49*%
X200356811Y-26059311D03*
X200809359Y-26511859D03*
%TD*%
%TO.C,D309*%
X186356811Y-52809311D03*
X186809359Y-53261859D03*
%TD*%
%TO.C,D82*%
X179356811Y-28084311D03*
X179809359Y-28536859D03*
%TD*%
%TO.C,D417*%
X181106811Y-64194311D03*
X181559359Y-64646859D03*
%TD*%
%TO.C,D340*%
X205606811Y-57559311D03*
X206059359Y-58011859D03*
%TD*%
%TO.C,D380*%
X209106811Y-62334311D03*
X209559359Y-62786859D03*
%TD*%
%TO.C,D166*%
X179356811Y-37084311D03*
X179809359Y-37536859D03*
%TD*%
%TO.C,D276*%
X207356811Y-50464311D03*
X207809359Y-50916859D03*
%TD*%
%TO.C,D331*%
X184606811Y-55239311D03*
X185059359Y-55691859D03*
%TD*%
%TO.C,D402*%
X207356811Y-64194311D03*
X207809359Y-64646859D03*
%TD*%
%TO.C,D97*%
X189856811Y-30239311D03*
X190309359Y-30691859D03*
%TD*%
%TO.C,D458*%
X182856811Y-68584311D03*
X183309359Y-69036859D03*
%TD*%
%TO.C,D284*%
X193356811Y-50464311D03*
X193809359Y-50916859D03*
%TD*%
%TO.C,D400*%
X210856811Y-64194311D03*
X211309359Y-64646859D03*
%TD*%
%TO.C,D233*%
X209106811Y-46059311D03*
X209559359Y-46511859D03*
%TD*%
%TO.C,D113*%
X198606811Y-32559311D03*
X199059359Y-33011859D03*
%TD*%
%TO.C,D421*%
X210856811Y-66394311D03*
X211309359Y-66846859D03*
%TD*%
%TO.C,D301*%
X200356811Y-52809311D03*
X200809359Y-53261859D03*
%TD*%
%TO.C,D141*%
X186356811Y-34894311D03*
X186809359Y-35346859D03*
%TD*%
%TO.C,D69*%
X202106811Y-28084311D03*
X202559359Y-28536859D03*
%TD*%
D16*
%TO.C,SW6*%
X215900001Y-95500000D03*
X212499999Y-95500000D03*
%TD*%
D10*
%TO.C,D105*%
X175856811Y-30239311D03*
X176309359Y-30691859D03*
%TD*%
%TO.C,D215*%
X203856811Y-43834311D03*
X204309359Y-44286859D03*
%TD*%
%TO.C,D350*%
X188106811Y-57559311D03*
X188559359Y-58011859D03*
%TD*%
%TO.C,D92*%
X198606811Y-30239311D03*
X199059359Y-30691859D03*
%TD*%
%TO.C,D403*%
X205606811Y-64194311D03*
X206059359Y-64646859D03*
%TD*%
%TO.C,D194*%
X203856811Y-41584311D03*
X204309359Y-42036859D03*
%TD*%
%TO.C,D222*%
X191606811Y-43834311D03*
X192059359Y-44286859D03*
%TD*%
%TO.C,D142*%
X184606811Y-34894311D03*
X185059359Y-35346859D03*
%TD*%
%TO.C,D101*%
X182856811Y-30239311D03*
X183309359Y-30691859D03*
%TD*%
%TO.C,D167*%
X177606811Y-37084311D03*
X178059359Y-37536859D03*
%TD*%
%TO.C,D162*%
X186356811Y-37084311D03*
X186809359Y-37536859D03*
%TD*%
%TO.C,D317*%
X209106811Y-55239311D03*
X209559359Y-55691859D03*
%TD*%
%TO.C,D320*%
X203856811Y-55239311D03*
X204309359Y-55691859D03*
%TD*%
%TO.C,D413*%
X188106811Y-64194311D03*
X188559359Y-64646859D03*
%TD*%
%TO.C,D1*%
X210856811Y-22059311D03*
X211309359Y-22511859D03*
%TD*%
D16*
%TO.C,SW3*%
X194650000Y-92300000D03*
X191250000Y-92300000D03*
%TD*%
D10*
%TO.C,D193*%
X205606811Y-41584311D03*
X206059359Y-42036859D03*
%TD*%
%TO.C,D265*%
X189856811Y-48239311D03*
X190309359Y-48691859D03*
%TD*%
%TO.C,D433*%
X189856811Y-66394311D03*
X190309359Y-66846859D03*
%TD*%
%TO.C,D104*%
X177606811Y-30239311D03*
X178059359Y-30691859D03*
%TD*%
%TO.C,D67*%
X205606811Y-28084311D03*
X206059359Y-28536859D03*
%TD*%
%TO.C,D171*%
X207356811Y-39334311D03*
X207809359Y-39786859D03*
%TD*%
%TO.C,D8*%
X198606811Y-22059311D03*
X199059359Y-22511859D03*
%TD*%
%TO.C,D157*%
X195106811Y-37084311D03*
X195559359Y-37536859D03*
%TD*%
D11*
%TO.C,C4*%
X213500000Y-84500000D03*
X212860000Y-84500000D03*
%TD*%
D10*
%TO.C,D257*%
X203856811Y-48239311D03*
X204309359Y-48691859D03*
%TD*%
D16*
%TO.C,SW1*%
X188650000Y-87800000D03*
X185250000Y-87800000D03*
%TD*%
D10*
%TO.C,D336*%
X175856811Y-55239311D03*
X176309359Y-55691859D03*
%TD*%
%TO.C,D252*%
X175856811Y-46059311D03*
X176309359Y-46511859D03*
%TD*%
%TO.C,D115*%
X195106811Y-32559311D03*
X195559359Y-33011859D03*
%TD*%
%TO.C,D186*%
X181106811Y-39334311D03*
X181559359Y-39786859D03*
%TD*%
%TO.C,D278*%
X203856811Y-50464311D03*
X204309359Y-50916859D03*
%TD*%
%TO.C,D152*%
X203856811Y-37084311D03*
X204309359Y-37536859D03*
%TD*%
%TO.C,D204*%
X186356811Y-41584311D03*
X186809359Y-42036859D03*
%TD*%
%TO.C,D296*%
X209106811Y-52809311D03*
X209559359Y-53261859D03*
%TD*%
D11*
%TO.C,C5*%
X214952500Y-87700000D03*
X214312500Y-87700000D03*
%TD*%
D10*
%TO.C,D165*%
X181106811Y-37084311D03*
X181559359Y-37536859D03*
%TD*%
%TO.C,D363*%
X202106811Y-60084311D03*
X202559359Y-60536859D03*
%TD*%
%TO.C,D189*%
X175856811Y-39334311D03*
X176309359Y-39786859D03*
%TD*%
%TO.C,D175*%
X200356811Y-39334311D03*
X200809359Y-39786859D03*
%TD*%
%TO.C,D228*%
X181106811Y-43834311D03*
X181559359Y-44286859D03*
%TD*%
%TO.C,D348*%
X191606811Y-57559311D03*
X192059359Y-58011859D03*
%TD*%
%TO.C,D300*%
X202106811Y-52809311D03*
X202559359Y-53261859D03*
%TD*%
%TO.C,D62*%
X177606811Y-26059311D03*
X178059359Y-26511859D03*
%TD*%
%TO.C,D149*%
X209106811Y-37084311D03*
X209559359Y-37536859D03*
%TD*%
%TO.C,D140*%
X188106811Y-34894311D03*
X188559359Y-35346859D03*
%TD*%
%TO.C,D213*%
X207356811Y-43834311D03*
X207809359Y-44286859D03*
%TD*%
%TO.C,D117*%
X191606811Y-32559311D03*
X192059359Y-33011859D03*
%TD*%
%TO.C,D110*%
X203856811Y-32559311D03*
X204309359Y-33011859D03*
%TD*%
%TO.C,D382*%
X205606811Y-62334311D03*
X206059359Y-62786859D03*
%TD*%
%TO.C,D356*%
X177606811Y-57559311D03*
X178059359Y-58011859D03*
%TD*%
%TO.C,D294*%
X175856811Y-50464311D03*
X176309359Y-50916859D03*
%TD*%
%TO.C,D392*%
X188106811Y-62334311D03*
X188559359Y-62786859D03*
%TD*%
%TO.C,D12*%
X191606811Y-22059311D03*
X192059359Y-22511859D03*
%TD*%
%TO.C,D270*%
X181106811Y-48239311D03*
X181559359Y-48691859D03*
%TD*%
%TO.C,D282*%
X196856811Y-50464311D03*
X197309359Y-50916859D03*
%TD*%
%TO.C,D431*%
X193356811Y-66394311D03*
X193809359Y-66846859D03*
%TD*%
D11*
%TO.C,C11*%
X199102500Y-87450000D03*
X198462500Y-87450000D03*
%TD*%
D10*
%TO.C,D129*%
X207356811Y-34894311D03*
X207809359Y-35346859D03*
%TD*%
%TO.C,D170*%
X209106811Y-39334311D03*
X209559359Y-39786859D03*
%TD*%
%TO.C,D372*%
X186356811Y-60084311D03*
X186809359Y-60536859D03*
%TD*%
%TO.C,D227*%
X182856811Y-43834311D03*
X183309359Y-44286859D03*
%TD*%
%TO.C,D45*%
X207356811Y-26059311D03*
X207809359Y-26511859D03*
%TD*%
%TO.C,D219*%
X196856811Y-43834311D03*
X197309359Y-44286859D03*
%TD*%
%TO.C,D297*%
X207356811Y-52809311D03*
X207809359Y-53261859D03*
%TD*%
%TO.C,D125*%
X177606811Y-32559311D03*
X178059359Y-33011859D03*
%TD*%
%TO.C,D398*%
X177606811Y-62334311D03*
X178059359Y-62786859D03*
%TD*%
%TO.C,D306*%
X191606811Y-52809311D03*
X192059359Y-53261859D03*
%TD*%
%TO.C,D126*%
X175856811Y-32559311D03*
X176309359Y-33011859D03*
%TD*%
%TO.C,D176*%
X198606811Y-39334311D03*
X199059359Y-39786859D03*
%TD*%
%TO.C,D83*%
X177606811Y-28084311D03*
X178059359Y-28536859D03*
%TD*%
%TO.C,D404*%
X203856811Y-64194311D03*
X204309359Y-64646859D03*
%TD*%
%TO.C,D370*%
X189856811Y-60084311D03*
X190309359Y-60536859D03*
%TD*%
D13*
%TO.C,REF\u002A\u002A*%
X215550000Y-80850000D03*
%TD*%
D10*
%TO.C,D36*%
X186356811Y-24084311D03*
X186809359Y-24536859D03*
%TD*%
%TO.C,D72*%
X196856811Y-28084311D03*
X197309359Y-28536859D03*
%TD*%
%TO.C,D362*%
X203856811Y-60084311D03*
X204309359Y-60536859D03*
%TD*%
%TO.C,D71*%
X198606811Y-28084311D03*
X199059359Y-28536859D03*
%TD*%
%TO.C,D394*%
X184606811Y-62334311D03*
X185059359Y-62786859D03*
%TD*%
%TO.C,D451*%
X195106811Y-68584311D03*
X195559359Y-69036859D03*
%TD*%
%TO.C,D60*%
X181106811Y-26059311D03*
X181559359Y-26511859D03*
%TD*%
%TO.C,D77*%
X188106811Y-28084311D03*
X188559359Y-28536859D03*
%TD*%
%TO.C,D318*%
X207356811Y-55239311D03*
X207809359Y-55691859D03*
%TD*%
%TO.C,D255*%
X207356811Y-48239311D03*
X207809359Y-48691859D03*
%TD*%
%TO.C,D419*%
X177606811Y-64194311D03*
X178059359Y-64646859D03*
%TD*%
%TO.C,D444*%
X207356811Y-68584311D03*
X207809359Y-69036859D03*
%TD*%
%TO.C,D365*%
X198606811Y-60084311D03*
X199059359Y-60536859D03*
%TD*%
%TO.C,D345*%
X196856811Y-57559311D03*
X197309359Y-58011859D03*
%TD*%
D11*
%TO.C,R3*%
X211250000Y-77950000D03*
X210610000Y-77950000D03*
%TD*%
D10*
%TO.C,D286*%
X189856811Y-50464311D03*
X190309359Y-50916859D03*
%TD*%
%TO.C,D206*%
X182856811Y-41584311D03*
X183309359Y-42036859D03*
%TD*%
%TO.C,D18*%
X181106811Y-22059311D03*
X181559359Y-22511859D03*
%TD*%
%TO.C,D354*%
X181106811Y-57559311D03*
X181559359Y-58011859D03*
%TD*%
%TO.C,D325*%
X195106811Y-55239311D03*
X195559359Y-55691859D03*
%TD*%
%TO.C,D440*%
X177606811Y-66394311D03*
X178059359Y-66846859D03*
%TD*%
%TO.C,D209*%
X177606811Y-41584311D03*
X178059359Y-42036859D03*
%TD*%
%TO.C,D427*%
X200356811Y-66394311D03*
X200809359Y-66846859D03*
%TD*%
%TO.C,D169*%
X210856811Y-39334311D03*
X211309359Y-39786859D03*
%TD*%
%TO.C,D291*%
X181106811Y-50464311D03*
X181559359Y-50916859D03*
%TD*%
%TO.C,D124*%
X179356811Y-32559311D03*
X179809359Y-33011859D03*
%TD*%
%TO.C,D385*%
X200356811Y-62334311D03*
X200809359Y-62786859D03*
%TD*%
D23*
%TO.C,C13*%
X209202500Y-77152500D03*
X209202500Y-76512500D03*
%TD*%
D10*
%TO.C,D7*%
X200356811Y-22059311D03*
X200809359Y-22511859D03*
%TD*%
%TO.C,D139*%
X189856811Y-34894311D03*
X190309359Y-35346859D03*
%TD*%
%TO.C,D258*%
X202106811Y-48239311D03*
X202559359Y-48691859D03*
%TD*%
%TO.C,D95*%
X193356811Y-30239311D03*
X193809359Y-30691859D03*
%TD*%
%TO.C,D19*%
X179356811Y-22059311D03*
X179809359Y-22511859D03*
%TD*%
%TO.C,D371*%
X188106811Y-60084311D03*
X188559359Y-60536859D03*
%TD*%
%TO.C,D2*%
X209106811Y-22059311D03*
X209559359Y-22511859D03*
%TD*%
%TO.C,D418*%
X179356811Y-64194311D03*
X179809359Y-64646859D03*
%TD*%
%TO.C,D339*%
X207356811Y-57559311D03*
X207809359Y-58011859D03*
%TD*%
%TO.C,D76*%
X189856811Y-28084311D03*
X190309359Y-28536859D03*
%TD*%
%TO.C,D234*%
X207356811Y-46059311D03*
X207809359Y-46511859D03*
%TD*%
%TO.C,D358*%
X210856811Y-60084311D03*
X211309359Y-60536859D03*
%TD*%
D16*
%TO.C,SW2*%
X182950000Y-92300000D03*
X179550000Y-92300000D03*
%TD*%
D10*
%TO.C,D352*%
X184606811Y-57559311D03*
X185059359Y-58011859D03*
%TD*%
%TO.C,D337*%
X210856811Y-57559311D03*
X211309359Y-58011859D03*
%TD*%
%TO.C,D23*%
X209106811Y-24084311D03*
X209559359Y-24536859D03*
%TD*%
%TO.C,D159*%
X191606811Y-37084311D03*
X192059359Y-37536859D03*
%TD*%
%TO.C,D367*%
X195106811Y-60084311D03*
X195559359Y-60536859D03*
%TD*%
%TO.C,D37*%
X184606811Y-24084311D03*
X185059359Y-24536859D03*
%TD*%
%TO.C,D460*%
X179356811Y-68584311D03*
X179809359Y-69036859D03*
%TD*%
%TO.C,D381*%
X207356811Y-62334311D03*
X207809359Y-62786859D03*
%TD*%
%TO.C,D246*%
X186356811Y-46059311D03*
X186809359Y-46511859D03*
%TD*%
%TO.C,D310*%
X184606811Y-52809311D03*
X185059359Y-53261859D03*
%TD*%
%TO.C,D181*%
X189856811Y-39334311D03*
X190309359Y-39786859D03*
%TD*%
%TO.C,D251*%
X177606811Y-46059311D03*
X178059359Y-46511859D03*
%TD*%
%TO.C,D178*%
X195106811Y-39334311D03*
X195559359Y-39786859D03*
%TD*%
%TO.C,D305*%
X193356811Y-52809311D03*
X193809359Y-53261859D03*
%TD*%
%TO.C,D412*%
X189856811Y-64194311D03*
X190309359Y-64646859D03*
%TD*%
%TO.C,D6*%
X202106811Y-22059311D03*
X202559359Y-22511859D03*
%TD*%
%TO.C,D410*%
X193356811Y-64194311D03*
X193809359Y-64646859D03*
%TD*%
%TO.C,D172*%
X205606811Y-39334311D03*
X206059359Y-39786859D03*
%TD*%
%TO.C,D3*%
X207356811Y-22059311D03*
X207809359Y-22511859D03*
%TD*%
%TO.C,D274*%
X210856811Y-50464311D03*
X211309359Y-50916859D03*
%TD*%
%TO.C,D11*%
X193356811Y-22059311D03*
X193809359Y-22511859D03*
%TD*%
%TO.C,D353*%
X182856811Y-57559311D03*
X183309359Y-58011859D03*
%TD*%
D12*
%TO.C,C2*%
X206150000Y-79125000D03*
X206150000Y-79765000D03*
%TD*%
D10*
%TO.C,D314*%
X177606811Y-52809311D03*
X178059359Y-53261859D03*
%TD*%
%TO.C,D210*%
X175856811Y-41584311D03*
X176309359Y-42036859D03*
%TD*%
%TO.C,D173*%
X203856811Y-39334311D03*
X204309359Y-39786859D03*
%TD*%
%TO.C,D378*%
X175856811Y-60084311D03*
X176309359Y-60536859D03*
%TD*%
%TO.C,D364*%
X200356811Y-60084311D03*
X200809359Y-60536859D03*
%TD*%
%TO.C,D85*%
X210856811Y-30239311D03*
X211309359Y-30691859D03*
%TD*%
%TO.C,D106*%
X210856811Y-32559311D03*
X211309359Y-33011859D03*
%TD*%
%TO.C,D216*%
X202106811Y-43834311D03*
X202559359Y-44286859D03*
%TD*%
%TO.C,D347*%
X193356811Y-57559311D03*
X193809359Y-58011859D03*
%TD*%
%TO.C,D445*%
X205606811Y-68584311D03*
X206059359Y-69036859D03*
%TD*%
%TO.C,D456*%
X186356811Y-68584311D03*
X186809359Y-69036859D03*
%TD*%
%TO.C,D207*%
X181106811Y-41584311D03*
X181559359Y-42036859D03*
%TD*%
%TO.C,D40*%
X179356811Y-24084311D03*
X179809359Y-24536859D03*
%TD*%
%TO.C,D438*%
X181106811Y-66394311D03*
X181559359Y-66846859D03*
%TD*%
%TO.C,D231*%
X175856811Y-43834311D03*
X176309359Y-44286859D03*
%TD*%
%TO.C,D313*%
X179356811Y-52809311D03*
X179809359Y-53261859D03*
%TD*%
%TO.C,D179*%
X193356811Y-39334311D03*
X193809359Y-39786859D03*
%TD*%
%TO.C,D54*%
X191606811Y-26059311D03*
X192059359Y-26511859D03*
%TD*%
%TO.C,D407*%
X198606811Y-64194311D03*
X199059359Y-64646859D03*
%TD*%
%TO.C,D271*%
X179356811Y-48239311D03*
X179809359Y-48691859D03*
%TD*%
%TO.C,D153*%
X202106811Y-37084311D03*
X202559359Y-37536859D03*
%TD*%
%TO.C,D235*%
X205606811Y-46059311D03*
X206059359Y-46511859D03*
%TD*%
%TO.C,D244*%
X189856811Y-46059311D03*
X190309359Y-46511859D03*
%TD*%
%TO.C,D144*%
X181106811Y-34894311D03*
X181559359Y-35346859D03*
%TD*%
%TO.C,D262*%
X195106811Y-48239311D03*
X195559359Y-48691859D03*
%TD*%
%TO.C,D212*%
X209106811Y-43834311D03*
X209559359Y-44286859D03*
%TD*%
%TO.C,D196*%
X200356811Y-41584311D03*
X200809359Y-42036859D03*
%TD*%
%TO.C,D254*%
X209106811Y-48239311D03*
X209559359Y-48691859D03*
%TD*%
%TO.C,D238*%
X200356811Y-46059311D03*
X200809359Y-46511859D03*
%TD*%
D11*
%TO.C,C8*%
X210975000Y-82500000D03*
X210335000Y-82500000D03*
%TD*%
D10*
%TO.C,D377*%
X177606811Y-60084311D03*
X178059359Y-60536859D03*
%TD*%
%TO.C,D93*%
X196856811Y-30239311D03*
X197309359Y-30691859D03*
%TD*%
%TO.C,D447*%
X202106811Y-68584311D03*
X202559359Y-69036859D03*
%TD*%
%TO.C,D44*%
X209106811Y-26059311D03*
X209559359Y-26511859D03*
%TD*%
%TO.C,D199*%
X195106811Y-41584311D03*
X195559359Y-42036859D03*
%TD*%
%TO.C,D267*%
X186356811Y-48239311D03*
X186809359Y-48691859D03*
%TD*%
%TO.C,D281*%
X198606811Y-50464311D03*
X199059359Y-50916859D03*
%TD*%
%TO.C,D401*%
X209106811Y-64194311D03*
X209559359Y-64646859D03*
%TD*%
%TO.C,D383*%
X203856811Y-62334311D03*
X204309359Y-62786859D03*
%TD*%
%TO.C,D443*%
X209106811Y-68584311D03*
X209559359Y-69036859D03*
%TD*%
%TO.C,D51*%
X196856811Y-26059311D03*
X197309359Y-26511859D03*
%TD*%
%TO.C,D132*%
X202106811Y-34894311D03*
X202559359Y-35346859D03*
%TD*%
%TO.C,D239*%
X198606811Y-46059311D03*
X199059359Y-46511859D03*
%TD*%
%TO.C,D81*%
X181106811Y-28084311D03*
X181559359Y-28536859D03*
%TD*%
%TO.C,D237*%
X202106811Y-46059311D03*
X202559359Y-46511859D03*
%TD*%
%TO.C,D64*%
X210856811Y-28084311D03*
X211309359Y-28536859D03*
%TD*%
%TO.C,D48*%
X202106811Y-26059311D03*
X202559359Y-26511859D03*
%TD*%
%TO.C,D425*%
X203856811Y-66394311D03*
X204309359Y-66846859D03*
%TD*%
%TO.C,D151*%
X205606811Y-37084311D03*
X206059359Y-37536859D03*
%TD*%
%TO.C,D16*%
X184606811Y-22059311D03*
X185059359Y-22511859D03*
%TD*%
%TO.C,D203*%
X188106811Y-41584311D03*
X188559359Y-42036859D03*
%TD*%
%TO.C,D47*%
X203856811Y-26059311D03*
X204309359Y-26511859D03*
%TD*%
%TO.C,D163*%
X184606811Y-37084311D03*
X185059359Y-37536859D03*
%TD*%
%TO.C,D94*%
X195106811Y-30239311D03*
X195559359Y-30691859D03*
%TD*%
%TO.C,D221*%
X193356811Y-43834311D03*
X193809359Y-44286859D03*
%TD*%
%TO.C,D462*%
X175856811Y-68584311D03*
X176309359Y-69036859D03*
%TD*%
D11*
%TO.C,C6*%
X210000000Y-81500000D03*
X209360000Y-81500000D03*
%TD*%
D10*
%TO.C,D5*%
X203856811Y-22059311D03*
X204309359Y-22511859D03*
%TD*%
%TO.C,D148*%
X210856811Y-37084311D03*
X211309359Y-37536859D03*
%TD*%
%TO.C,D387*%
X196856811Y-62334311D03*
X197309359Y-62786859D03*
%TD*%
%TO.C,D130*%
X205606811Y-34894311D03*
X206059359Y-35346859D03*
%TD*%
%TO.C,D287*%
X188106811Y-50464311D03*
X188559359Y-50916859D03*
%TD*%
%TO.C,D158*%
X193356811Y-37084311D03*
X193809359Y-37536859D03*
%TD*%
%TO.C,D143*%
X182856811Y-34894311D03*
X183309359Y-35346859D03*
%TD*%
%TO.C,D164*%
X182856811Y-37084311D03*
X183309359Y-37536859D03*
%TD*%
%TO.C,D420*%
X175856811Y-64194311D03*
X176309359Y-64646859D03*
%TD*%
%TO.C,D299*%
X203856811Y-52809311D03*
X204309359Y-53261859D03*
%TD*%
%TO.C,D375*%
X181106811Y-60084311D03*
X181559359Y-60536859D03*
%TD*%
%TO.C,D9*%
X196856811Y-22059311D03*
X197309359Y-22511859D03*
%TD*%
%TO.C,D145*%
X179356811Y-34894311D03*
X179809359Y-35346859D03*
%TD*%
%TO.C,D260*%
X198606811Y-48239311D03*
X199059359Y-48691859D03*
%TD*%
%TO.C,D360*%
X207356811Y-60084311D03*
X207809359Y-60536859D03*
%TD*%
%TO.C,D133*%
X200356811Y-34894311D03*
X200809359Y-35346859D03*
%TD*%
%TO.C,D108*%
X207356811Y-32559311D03*
X207809359Y-33011859D03*
%TD*%
%TO.C,D191*%
X209106811Y-41584311D03*
X209559359Y-42036859D03*
%TD*%
%TO.C,D161*%
X188106811Y-37084311D03*
X188559359Y-37536859D03*
%TD*%
%TO.C,D38*%
X182856811Y-24084311D03*
X183309359Y-24536859D03*
%TD*%
%TO.C,D100*%
X184606811Y-30239311D03*
X185059359Y-30691859D03*
%TD*%
%TO.C,D245*%
X188106811Y-46059311D03*
X188559359Y-46511859D03*
%TD*%
%TO.C,D160*%
X189856811Y-37084311D03*
X190309359Y-37536859D03*
%TD*%
%TO.C,D414*%
X186356811Y-64194311D03*
X186809359Y-64646859D03*
%TD*%
%TO.C,D338*%
X209106811Y-57559311D03*
X209559359Y-58011859D03*
%TD*%
%TO.C,D261*%
X196856811Y-48239311D03*
X197309359Y-48691859D03*
%TD*%
%TO.C,D107*%
X209106811Y-32559311D03*
X209559359Y-33011859D03*
%TD*%
%TO.C,D21*%
X175729774Y-22179774D03*
X176182322Y-22632322D03*
%TD*%
%TO.C,D187*%
X179356811Y-39334311D03*
X179809359Y-39786859D03*
%TD*%
%TO.C,D332*%
X182856811Y-55239311D03*
X183309359Y-55691859D03*
%TD*%
%TO.C,D135*%
X196856811Y-34894311D03*
X197309359Y-35346859D03*
%TD*%
%TO.C,D263*%
X193356811Y-48239311D03*
X193809359Y-48691859D03*
%TD*%
%TO.C,D248*%
X182856811Y-46059311D03*
X183309359Y-46511859D03*
%TD*%
%TO.C,D42*%
X175856811Y-24084311D03*
X176309359Y-24536859D03*
%TD*%
%TO.C,D102*%
X181106811Y-30239311D03*
X181559359Y-30691859D03*
%TD*%
%TO.C,D137*%
X193356811Y-34894311D03*
X193809359Y-35346859D03*
%TD*%
%TO.C,D119*%
X188106811Y-32559311D03*
X188559359Y-33011859D03*
%TD*%
%TO.C,D183*%
X186356811Y-39334311D03*
X186809359Y-39786859D03*
%TD*%
%TO.C,D359*%
X209106811Y-60084311D03*
X209559359Y-60536859D03*
%TD*%
%TO.C,D240*%
X196856811Y-46059311D03*
X197309359Y-46511859D03*
%TD*%
%TO.C,D243*%
X191606811Y-46059311D03*
X192059359Y-46511859D03*
%TD*%
%TO.C,D13*%
X189856811Y-22059311D03*
X190309359Y-22511859D03*
%TD*%
%TO.C,D330*%
X186356811Y-55239311D03*
X186809359Y-55691859D03*
%TD*%
%TO.C,D397*%
X179356811Y-62334311D03*
X179809359Y-62786859D03*
%TD*%
%TO.C,D118*%
X189856811Y-32559311D03*
X190309359Y-33011859D03*
%TD*%
%TO.C,D322*%
X200356811Y-55239311D03*
X200809359Y-55691859D03*
%TD*%
%TO.C,D112*%
X200356811Y-32559311D03*
X200809359Y-33011859D03*
%TD*%
%TO.C,D249*%
X181106811Y-46059311D03*
X181559359Y-46511859D03*
%TD*%
D12*
%TO.C,R1*%
X207600000Y-80980000D03*
X207600000Y-81620000D03*
%TD*%
%TO.C,R2*%
X208350000Y-80975000D03*
X208350000Y-81615000D03*
%TD*%
D24*
%TO.C,BT1*%
X179610000Y-75450000D03*
D25*
X200100000Y-75450000D03*
%TD*%
M02*
