%TF.GenerationSoftware,KiCad,Pcbnew,8.0.0*%
%TF.CreationDate,2024-03-20T12:42:59-05:00*%
%TF.ProjectId,tetrisBusinessCard,74657472-6973-4427-9573-696e65737343,rev?*%
%TF.SameCoordinates,Original*%
%TF.FileFunction,Legend,Bot*%
%TF.FilePolarity,Positive*%
%FSLAX46Y46*%
G04 Gerber Fmt 4.6, Leading zero omitted, Abs format (unit mm)*
G04 Created by KiCad (PCBNEW 8.0.0) date 2024-03-20 12:42:59*
%MOMM*%
%LPD*%
G01*
G04 APERTURE LIST*
%ADD10C,0.150000*%
%ADD11C,0.120000*%
G04 APERTURE END LIST*
D10*
X180395714Y-79681009D02*
X180252857Y-79728628D01*
X180252857Y-79728628D02*
X180205238Y-79776247D01*
X180205238Y-79776247D02*
X180157619Y-79871485D01*
X180157619Y-79871485D02*
X180157619Y-80014342D01*
X180157619Y-80014342D02*
X180205238Y-80109580D01*
X180205238Y-80109580D02*
X180252857Y-80157200D01*
X180252857Y-80157200D02*
X180348095Y-80204819D01*
X180348095Y-80204819D02*
X180729047Y-80204819D01*
X180729047Y-80204819D02*
X180729047Y-79204819D01*
X180729047Y-79204819D02*
X180395714Y-79204819D01*
X180395714Y-79204819D02*
X180300476Y-79252438D01*
X180300476Y-79252438D02*
X180252857Y-79300057D01*
X180252857Y-79300057D02*
X180205238Y-79395295D01*
X180205238Y-79395295D02*
X180205238Y-79490533D01*
X180205238Y-79490533D02*
X180252857Y-79585771D01*
X180252857Y-79585771D02*
X180300476Y-79633390D01*
X180300476Y-79633390D02*
X180395714Y-79681009D01*
X180395714Y-79681009D02*
X180729047Y-79681009D01*
X179871904Y-79204819D02*
X179300476Y-79204819D01*
X179586190Y-80204819D02*
X179586190Y-79204819D01*
X178443333Y-80204819D02*
X179014761Y-80204819D01*
X178729047Y-80204819D02*
X178729047Y-79204819D01*
X178729047Y-79204819D02*
X178824285Y-79347676D01*
X178824285Y-79347676D02*
X178919523Y-79442914D01*
X178919523Y-79442914D02*
X179014761Y-79490533D01*
X182931428Y-75564700D02*
X181788571Y-75564700D01*
X182359999Y-76136128D02*
X182359999Y-74993271D01*
D11*
%TO.C,BT1*%
X177410000Y-78450000D02*
X177410000Y-72450000D01*
X183110000Y-72450000D02*
X177410000Y-72450000D01*
X183110000Y-78450000D02*
X177410000Y-78450000D01*
X183110000Y-78450000D02*
G75*
G02*
X183860000Y-78950000I0J-812500D01*
G01*
X183860000Y-71950000D02*
G75*
G02*
X183110000Y-72450000I-750000J312500D01*
G01*
X183860001Y-71950000D02*
G75*
G02*
X206305670Y-75450000I10949955J-3499989D01*
G01*
X206305671Y-75450000D02*
G75*
G02*
X183860000Y-78950000I-11495715J-11D01*
G01*
%TD*%
M02*
