%TF.GenerationSoftware,KiCad,Pcbnew,8.0.3*%
%TF.CreationDate,2024-08-11T15:35:30-05:00*%
%TF.ProjectId,tetrisBusinessCard,74657472-6973-4427-9573-696e65737343,rev?*%
%TF.SameCoordinates,Original*%
%TF.FileFunction,Legend,Bot*%
%TF.FilePolarity,Positive*%
%FSLAX46Y46*%
G04 Gerber Fmt 4.6, Leading zero omitted, Abs format (unit mm)*
G04 Created by KiCad (PCBNEW 8.0.3) date 2024-08-11 15:35:30*
%MOMM*%
%LPD*%
G01*
G04 APERTURE LIST*
%ADD10C,0.150000*%
%ADD11C,0.120000*%
G04 APERTURE END LIST*
D10*
X191395714Y-86181009D02*
X191252857Y-86228628D01*
X191252857Y-86228628D02*
X191205238Y-86276247D01*
X191205238Y-86276247D02*
X191157619Y-86371485D01*
X191157619Y-86371485D02*
X191157619Y-86514342D01*
X191157619Y-86514342D02*
X191205238Y-86609580D01*
X191205238Y-86609580D02*
X191252857Y-86657200D01*
X191252857Y-86657200D02*
X191348095Y-86704819D01*
X191348095Y-86704819D02*
X191729047Y-86704819D01*
X191729047Y-86704819D02*
X191729047Y-85704819D01*
X191729047Y-85704819D02*
X191395714Y-85704819D01*
X191395714Y-85704819D02*
X191300476Y-85752438D01*
X191300476Y-85752438D02*
X191252857Y-85800057D01*
X191252857Y-85800057D02*
X191205238Y-85895295D01*
X191205238Y-85895295D02*
X191205238Y-85990533D01*
X191205238Y-85990533D02*
X191252857Y-86085771D01*
X191252857Y-86085771D02*
X191300476Y-86133390D01*
X191300476Y-86133390D02*
X191395714Y-86181009D01*
X191395714Y-86181009D02*
X191729047Y-86181009D01*
X190871904Y-85704819D02*
X190300476Y-85704819D01*
X190586190Y-86704819D02*
X190586190Y-85704819D01*
X189443333Y-86704819D02*
X190014761Y-86704819D01*
X189729047Y-86704819D02*
X189729047Y-85704819D01*
X189729047Y-85704819D02*
X189824285Y-85847676D01*
X189824285Y-85847676D02*
X189919523Y-85942914D01*
X189919523Y-85942914D02*
X190014761Y-85990533D01*
X182213428Y-75491700D02*
X181070571Y-75491700D01*
X181641999Y-76063128D02*
X181641999Y-74920271D01*
D11*
%TO.C,BT1*%
X179460000Y-73600000D02*
X179460000Y-73100000D01*
X179460000Y-76900000D02*
X179460000Y-77400000D01*
X180610000Y-73100000D02*
X179460000Y-73100000D01*
X180610000Y-73600000D02*
X180610000Y-73100000D01*
X180610000Y-76900000D02*
X180610000Y-77400000D01*
X180610000Y-77400000D02*
X179460000Y-77400000D01*
X180200000Y-73100000D02*
G75*
G02*
X200160000Y-73900000I9909758J-2152544D01*
G01*
X200160000Y-76600000D02*
G75*
G02*
X180200000Y-77400000I-10050242J1352544D01*
G01*
%TD*%
M02*
