M48
; DRILL file {KiCad 8.0.3} date 2024-08-11T15:35:16-0500
; FORMAT={-:-/ absolute / inch / decimal}
; #@! TF.CreationDate,2024-08-11T15:35:16-05:00
; #@! TF.GenerationSoftware,Kicad,Pcbnew,8.0.3
; #@! TF.FileFunction,Plated,1,2,PTH
FMAT,2
INCH
; #@! TA.AperFunction,Plated,PTH,ViaDrill
T1C0.0079
; #@! TA.AperFunction,Plated,PTH,ComponentDrill
T2C0.0256
; #@! TA.AperFunction,Plated,PTH,ComponentDrill
T3C0.0276
; #@! TA.AperFunction,Plated,PTH,ComponentDrill
T4C0.0335
%
G90
G05
T1
X6.9272Y-2.7598
X6.9567Y-2.5827
X6.9764Y-2.5984
X6.9764Y-2.685
X6.9783Y-0.8524
X6.9783Y-0.9331
X6.9783Y-1.0118
X6.9783Y-1.0906
X6.9783Y-1.1752
X6.9783Y-1.2657
X6.9783Y-1.3583
X6.9783Y-1.4449
X6.9783Y-1.5335
X6.9783Y-1.622
X6.9783Y-1.7126
X6.9783Y-1.7992
X6.9783Y-1.8839
X6.9783Y-1.9724
X6.9783Y-2.065
X6.9783Y-2.1594
X6.9783Y-2.252
X6.9783Y-2.3504
X6.9783Y-2.4409
X6.9783Y-2.5118
X7.0276Y-2.5295
X7.0453Y-2.6673
X7.0472Y-0.8543
X7.0472Y-0.9331
X7.0472Y-1.0118
X7.0472Y-1.0925
X7.0472Y-1.1772
X7.0472Y-1.2677
X7.0472Y-1.3602
X7.0472Y-1.4449
X7.0472Y-1.5335
X7.0472Y-1.622
X7.0472Y-1.7106
X7.0472Y-1.7992
X7.0472Y-1.8858
X7.0472Y-1.9724
X7.0472Y-2.065
X7.0472Y-2.1594
X7.0472Y-2.252
X7.0472Y-2.3504
X7.0472Y-2.4547
X7.0472Y-2.5138
X7.0472Y-2.5984
X7.1142Y-0.8504
X7.1161Y-2.5138
X7.1161Y-2.5984
X7.1161Y-2.6713
X7.1161Y-2.7421
X7.1161Y-2.8346
X7.1186Y-0.9331
X7.1186Y-1.0118
X7.1186Y-1.0925
X7.1186Y-1.1752
X7.1186Y-1.2677
X7.1186Y-1.3583
X7.1186Y-1.4449
X7.1186Y-1.5337
X7.1186Y-1.6181
X7.1186Y-1.7106
X7.1186Y-1.7972
X7.1186Y-1.8799
X7.1186Y-1.9705
X7.1186Y-2.061
X7.1186Y-2.1614
X7.1186Y-2.252
X7.1186Y-2.3504
X7.1186Y-2.4194
X7.1256Y-2.4495
X7.1804Y-0.8511
X7.1811Y-0.9331
X7.1811Y-1.0138
X7.1811Y-1.0925
X7.1811Y-1.1752
X7.1811Y-1.2677
X7.1811Y-1.3583
X7.1811Y-1.4449
X7.1811Y-1.5354
X7.1811Y-1.622
X7.1811Y-1.7126
X7.1811Y-1.7992
X7.1811Y-1.8839
X7.1811Y-1.9724
X7.1811Y-2.063
X7.1811Y-2.1594
X7.1811Y-2.248
X7.1811Y-2.3307
X7.1831Y-2.439
X7.1831Y-2.5138
X7.1836Y-2.5999
X7.185Y-2.6693
X7.187Y-2.7461
X7.1945Y-2.3609
X7.252Y-0.9331
X7.252Y-1.0118
X7.252Y-1.0906
X7.252Y-1.1772
X7.252Y-1.2638
X7.252Y-1.3543
X7.252Y-1.4449
X7.252Y-1.5335
X7.252Y-1.6201
X7.252Y-1.7106
X7.252Y-1.7972
X7.252Y-1.8819
X7.252Y-1.9676
X7.252Y-2.061
X7.252Y-2.1555
X7.252Y-2.2303
X7.252Y-2.3504
X7.252Y-2.4408
X7.252Y-2.5984
X7.252Y-2.687
X7.252Y-2.7421
X7.2539Y-0.8524
X7.2539Y-2.5118
X7.2634Y-2.2615
X7.2736Y-3.6319
X7.3209Y-2.5984
X7.3228Y-0.8524
X7.3228Y-2.252
X7.3228Y-2.3524
X7.3228Y-2.4409
X7.3228Y-2.5118
X7.3228Y-2.687
X7.3228Y-2.7421
X7.3248Y-0.9331
X7.3248Y-1.0079
X7.3248Y-1.0906
X7.3248Y-1.1732
X7.3248Y-1.2638
X7.3248Y-1.3543
X7.3248Y-1.439
X7.3248Y-1.5236
X7.3248Y-1.6181
X7.3248Y-1.7028
X7.3248Y-1.7972
X7.3248Y-1.8799
X7.3248Y-1.9665
X7.3248Y-2.0591
X7.3248Y-2.1378
X7.3323Y-2.1702
X7.3898Y-2.5984
X7.3917Y-0.8524
X7.3917Y-2.1634
X7.3917Y-2.252
X7.3917Y-2.3504
X7.3917Y-2.439
X7.3917Y-2.5098
X7.3917Y-2.685
X7.3917Y-2.7421
X7.3939Y-0.9311
X7.3939Y-0.9921
X7.3939Y-1.0886
X7.3939Y-1.1713
X7.3939Y-1.2657
X7.3939Y-1.3583
X7.3939Y-1.4449
X7.3939Y-1.5315
X7.3939Y-1.622
X7.3939Y-1.7106
X7.3939Y-1.8012
X7.3939Y-1.8839
X7.3939Y-1.9705
X7.3939Y-2.0415
X7.4012Y-2.0745
X7.4311Y-3.2776
X7.4587Y-2.5984
X7.4606Y-0.8524
X7.4606Y-2.0669
X7.4606Y-2.1634
X7.4606Y-2.2559
X7.4606Y-2.3504
X7.4606Y-2.439
X7.4606Y-2.5118
X7.4606Y-2.685
X7.4606Y-2.7413
X7.4646Y-0.9213
X7.4646Y-1.0039
X7.4646Y-1.0807
X7.4646Y-1.1693
X7.4646Y-1.2539
X7.4646Y-1.3484
X7.4646Y-1.435
X7.4646Y-1.5256
X7.4646Y-1.6122
X7.4646Y-1.7087
X7.4646Y-1.7933
X7.4646Y-1.878
X7.4646Y-1.9488
X7.4701Y-1.9822
X7.5Y-3.4528
X7.5295Y-0.8504
X7.5295Y-0.9331
X7.5295Y-1.0118
X7.5295Y-1.0906
X7.5295Y-1.1752
X7.5295Y-1.2657
X7.5295Y-1.3583
X7.5295Y-1.4449
X7.5295Y-1.5354
X7.5295Y-1.624
X7.5295Y-1.7106
X7.5295Y-1.7972
X7.5295Y-1.8622
X7.5295Y-1.9724
X7.5295Y-2.065
X7.5295Y-2.1594
X7.5295Y-2.252
X7.5295Y-2.3504
X7.5295Y-2.439
X7.5295Y-2.5138
X7.5295Y-2.5984
X7.5295Y-2.685
X7.5295Y-2.7413
X7.539Y-1.8946
X7.5701Y-1.8
X7.5945Y-0.8524
X7.5948Y-0.9331
X7.5948Y-1.0098
X7.5948Y-1.0906
X7.5948Y-1.1772
X7.5948Y-1.2634
X7.5948Y-1.3563
X7.5948Y-1.4429
X7.5948Y-1.5315
X7.5948Y-1.6201
X7.5948Y-1.7047
X7.5965Y-2.5984
X7.5984Y-1.8878
X7.5984Y-1.9724
X7.5984Y-2.065
X7.5984Y-2.1614
X7.5984Y-2.25
X7.5984Y-2.3504
X7.5984Y-2.439
X7.5984Y-2.5138
X7.5984Y-2.685
X7.5984Y-2.7421
X7.6079Y-1.8088
X7.6417Y-1.7092
X7.6634Y-0.8524
X7.6635Y-0.9331
X7.6635Y-1.0098
X7.6635Y-1.0886
X7.6635Y-1.1732
X7.6635Y-1.2657
X7.6635Y-1.3563
X7.6635Y-1.4429
X7.6635Y-1.5315
X7.6635Y-1.6201
X7.6651Y-2.598
X7.6673Y-1.7992
X7.6673Y-1.8839
X7.6673Y-1.9705
X7.6673Y-2.065
X7.6673Y-2.1614
X7.6673Y-2.2539
X7.6673Y-2.3524
X7.6673Y-2.439
X7.6673Y-2.5138
X7.6673Y-2.685
X7.6673Y-2.7413
X7.6768Y-1.7212
X7.7167Y-1.6143
X7.7323Y-2.685
X7.7323Y-2.7413
X7.7325Y-0.935
X7.7325Y-1.0118
X7.7325Y-1.0906
X7.7325Y-1.1752
X7.7325Y-1.2677
X7.7325Y-1.3563
X7.7325Y-1.4429
X7.7325Y-1.5315
X7.7343Y-0.8524
X7.7343Y-1.7146
X7.7343Y-1.8012
X7.7343Y-1.8858
X7.7343Y-1.9764
X7.7343Y-2.0669
X7.7343Y-2.1614
X7.7343Y-2.2539
X7.7343Y-2.3504
X7.7343Y-2.439
X7.7343Y-2.5138
X7.7343Y-2.5984
X7.7457Y-1.6326
X7.7843Y-3.4465
X7.7894Y-3.3642
X7.8014Y-0.9331
X7.8014Y-1.0138
X7.8014Y-1.0925
X7.8014Y-1.1772
X7.8014Y-1.2677
X7.8014Y-1.3583
X7.8014Y-1.4429
X7.8014Y-1.5161
X7.8031Y-0.8543
X7.8031Y-2.5984
X7.8031Y-2.685
X7.8031Y-2.7421
X7.8051Y-1.626
X7.8051Y-1.7146
X7.8051Y-1.8031
X7.8051Y-1.8878
X7.8051Y-1.9744
X7.8051Y-2.0669
X7.8051Y-2.1634
X7.8051Y-2.2539
X7.8051Y-2.3524
X7.8051Y-2.4409
X7.8051Y-2.5138
X7.8051Y-3.2087
X7.8146Y-1.544
X7.8404Y-3.2669
X7.8406Y-3.101
X7.8543Y-3.8878
X7.8684Y-1.4235
X7.8701Y-0.8524
X7.8701Y-0.935
X7.8701Y-1.0098
X7.8701Y-1.0945
X7.8701Y-1.1752
X7.8701Y-1.2677
X7.8701Y-1.3583
X7.872Y-2.5984
X7.872Y-2.685
X7.874Y-1.5335
X7.874Y-1.624
X7.874Y-1.7126
X7.874Y-1.7992
X7.874Y-1.8858
X7.874Y-1.9705
X7.874Y-2.0669
X7.874Y-2.1594
X7.874Y-2.252
X7.874Y-2.3504
X7.874Y-2.439
X7.874Y-2.5098
X7.874Y-2.7461
X7.8758Y-3.248
X7.878Y-3.7697
X7.8835Y-1.4554
X7.8839Y-3.6614
X7.8898Y-3.8425
X7.8937Y-3.4272
X7.9134Y-3.6811
X7.9291Y-3.626
X7.9409Y-1.4449
X7.9409Y-1.5335
X7.9409Y-1.622
X7.9409Y-1.7124
X7.9409Y-1.7992
X7.9409Y-1.8858
X7.9409Y-1.9724
X7.9409Y-2.065
X7.9409Y-2.1594
X7.9409Y-2.252
X7.9409Y-2.3504
X7.9409Y-2.439
X7.9409Y-2.5138
X7.9409Y-2.5984
X7.9409Y-2.685
X7.9409Y-2.7441
X7.9429Y-0.8504
X7.9431Y-0.9331
X7.9431Y-1.0118
X7.9431Y-1.0906
X7.9431Y-1.1752
X7.9431Y-1.2657
X7.9431Y-1.3387
X7.9524Y-1.3692
X7.9567Y-3.6831
X7.9606Y-3.2395
X7.9921Y-3.061
X7.9961Y-3.2559
X8.0079Y-2.685
X8.0081Y-1.2481
X8.0098Y-0.8524
X8.0098Y-0.9331
X8.0098Y-1.0118
X8.0098Y-1.0925
X8.0098Y-1.1752
X8.0098Y-1.3602
X8.0098Y-1.4429
X8.0098Y-1.5335
X8.0098Y-1.624
X8.0098Y-1.7126
X8.0098Y-1.7992
X8.0098Y-1.8839
X8.0098Y-1.9724
X8.0098Y-2.065
X8.0098Y-2.1594
X8.0098Y-2.25
X8.0098Y-2.3502
X8.0098Y-2.4397
X8.0098Y-2.5118
X8.0098Y-2.5965
X8.0118Y-2.7461
X8.0118Y-3.7677
X8.0213Y-1.2773
X8.0315Y-2.8543
X8.0512Y-3.0315
X8.059Y-3.5039
X8.061Y-3.3268
X8.0787Y-1.2677
X8.0787Y-1.3583
X8.0787Y-1.4449
X8.0787Y-1.5354
X8.0787Y-1.624
X8.0787Y-1.7126
X8.0787Y-1.8012
X8.0787Y-1.8858
X8.0787Y-1.9724
X8.0787Y-2.065
X8.0787Y-2.1594
X8.0787Y-2.252
X8.0787Y-2.3504
X8.0787Y-2.437
X8.0787Y-2.5118
X8.0787Y-2.5984
X8.0787Y-2.685
X8.0807Y-0.8543
X8.0807Y-2.7441
X8.0809Y-0.9341
X8.0809Y-1.0118
X8.0809Y-1.0906
X8.0809Y-1.1537
X8.0902Y-1.1859
X8.0906Y-3.6831
X8.0993Y-3.7619
X8.1024Y-2.9528
X8.1201Y-3.3268
X8.128Y-1.1122
X8.1281Y-3.0123
X8.1299Y-3.4252
X8.1476Y-1.1732
X8.1476Y-1.2677
X8.1476Y-1.3574
X8.1476Y-1.4449
X8.1476Y-1.5335
X8.1476Y-1.622
X8.1476Y-1.7106
X8.1476Y-1.7992
X8.1476Y-1.8839
X8.1476Y-1.9705
X8.1476Y-2.0628
X8.1476Y-2.1614
X8.1476Y-2.252
X8.1476Y-2.3504
X8.1476Y-2.437
X8.1476Y-2.5138
X8.1476Y-2.5984
X8.1476Y-2.685
X8.1476Y-2.7441
X8.1496Y-0.8504
X8.1496Y-0.9311
X8.1496Y-1.0138
X8.1496Y-3.9803
X8.1535Y-3.6122
X8.1591Y-1.1011
X8.1594Y-2.9528
X8.1594Y-3.0438
X8.1969Y-1.0276
X8.2008Y-2.9724
X8.2026Y-3.6478
X8.2028Y-3.3228
X8.2165Y-0.8543
X8.2165Y-1.0138
X8.2165Y-1.0906
X8.2165Y-1.1772
X8.2165Y-1.2657
X8.2165Y-1.3583
X8.2165Y-1.4449
X8.2165Y-1.5354
X8.2165Y-1.622
X8.2165Y-1.7106
X8.2165Y-1.7992
X8.2165Y-1.8858
X8.2165Y-1.9705
X8.2165Y-2.065
X8.2165Y-2.1594
X8.2165Y-2.2539
X8.2165Y-2.3504
X8.2165Y-2.439
X8.2165Y-2.5118
X8.2165Y-2.5984
X8.2165Y-2.685
X8.2165Y-2.7441
X8.2165Y-3.5197
X8.2185Y-0.9331
X8.2244Y-3.4154
X8.2264Y-3.4488
X8.2275Y-3.3858
X8.2441Y-3.0
X8.2539Y-3.3051
X8.2657Y-0.9252
X8.2756Y-3.7874
X8.2827Y-3.1043
X8.2854Y-0.8524
X8.315Y-3.9213
X8.3268Y-3.1693
X8.3465Y-3.4646
X8.3661Y-3.4843
X8.3661Y-3.7795
X8.3799Y-3.6772
X8.3858Y-3.622
X8.3858Y-3.8661
X8.3958Y-3.4821
X8.4055Y-3.5039
X8.407Y-3.6024
X8.43Y-3.2087
X8.437Y-3.3602
X8.4409Y-3.3898
X8.4411Y-3.4173
X8.4626Y-3.7008
X8.4646Y-3.0413
X8.4646Y-3.2283
X8.4921Y-3.4173
X8.4941Y-3.4522
X8.5162Y-3.444
X8.5524Y-2.815
X8.6476Y-3.6516
X8.6476Y-3.7421
T4
X7.0713Y-2.9626
X7.8783Y-2.9626
T2
G00X8.5406Y-3.0461
M15
G01X8.5248Y-3.0461
M16
G05
G00X8.5406Y-3.2366
M15
G01X8.5248Y-3.2366
M16
G05
T3
G00X8.6606Y-3.0339
M15
G01X8.6409Y-3.0339
M16
G05
G00X8.6606Y-3.2488
M15
G01X8.6409Y-3.2488
M16
G05
M30
