%TF.GenerationSoftware,KiCad,Pcbnew,8.0.3*%
%TF.CreationDate,2024-08-11T15:35:29-05:00*%
%TF.ProjectId,tetrisBusinessCard,74657472-6973-4427-9573-696e65737343,rev?*%
%TF.SameCoordinates,Original*%
%TF.FileFunction,Copper,L2,Bot*%
%TF.FilePolarity,Positive*%
%FSLAX46Y46*%
G04 Gerber Fmt 4.6, Leading zero omitted, Abs format (unit mm)*
G04 Created by KiCad (PCBNEW 8.0.3) date 2024-08-11 15:35:29*
%MOMM*%
%LPD*%
G01*
G04 APERTURE LIST*
%TA.AperFunction,ComponentPad*%
%ADD10O,1.700000X1.350000*%
%TD*%
%TA.AperFunction,ComponentPad*%
%ADD11O,1.500000X1.100000*%
%TD*%
%TA.AperFunction,ComponentPad*%
%ADD12R,1.600000X2.000000*%
%TD*%
%TA.AperFunction,ComponentPad*%
%ADD13O,1.600000X2.000000*%
%TD*%
%TA.AperFunction,ViaPad*%
%ADD14C,0.400000*%
%TD*%
%TA.AperFunction,Conductor*%
%ADD15C,0.200000*%
%TD*%
G04 APERTURE END LIST*
D10*
%TO.P,J1,6,Shield*%
%TO.N,GND*%
X219730000Y-82520000D03*
D11*
X216730000Y-82210000D03*
X216730000Y-77370000D03*
D10*
X219730000Y-77060000D03*
%TD*%
D12*
%TO.P,BT1,1,+*%
%TO.N,Net-(BT1-+)*%
X179610000Y-75250000D03*
D13*
%TO.P,BT1,2,-*%
%TO.N,GND*%
X200110000Y-75250000D03*
%TD*%
D14*
%TO.N,CHRLY_20*%
X179000000Y-62350000D03*
X179000000Y-36700000D03*
X179000000Y-41200000D03*
X179000000Y-50100000D03*
X179000000Y-29900000D03*
X213253415Y-88445394D03*
X179000000Y-32200000D03*
X177200000Y-68200000D03*
X179000000Y-52450000D03*
X179000000Y-59700000D03*
X178500000Y-64250000D03*
X179000000Y-21700000D03*
X179000000Y-45700000D03*
X179000000Y-57200000D03*
X179000000Y-54850000D03*
X179000000Y-43450000D03*
X179000000Y-47900000D03*
X177200000Y-66000000D03*
X179000000Y-25700000D03*
X179000000Y-23700000D03*
X179000000Y-27750000D03*
X179000000Y-38950000D03*
X179000000Y-34550000D03*
%TO.N,CHRLY_13*%
X191250000Y-36700000D03*
X189500000Y-63800000D03*
X189450000Y-66000000D03*
X191250000Y-39000000D03*
X191250000Y-41250000D03*
X191250000Y-25700000D03*
X191250000Y-47299997D03*
X191250000Y-43450000D03*
X189740138Y-50347638D03*
X191250000Y-21600000D03*
X189500000Y-68200000D03*
X191250000Y-45650000D03*
X191250000Y-29850000D03*
X191250000Y-32150000D03*
X189500000Y-52500000D03*
X189500000Y-59700000D03*
X191250000Y-34500000D03*
X189500000Y-54950000D03*
X189500000Y-57300000D03*
X189500000Y-61950000D03*
X189500000Y-69628280D03*
X191250000Y-23700000D03*
X191250000Y-27700000D03*
%TO.N,BTN_1*%
X208950000Y-87600000D03*
X190500000Y-87700000D03*
%TO.N,CHRLY_21*%
X177250000Y-62000000D03*
X177250000Y-63800000D03*
X177250000Y-29850000D03*
X177250000Y-21650000D03*
X212500000Y-88500000D03*
X177250000Y-57200000D03*
X177250000Y-59700000D03*
X177250000Y-38950000D03*
X177250000Y-43500000D03*
X177250000Y-27700000D03*
X177250000Y-50100000D03*
X177250000Y-34500000D03*
X177250000Y-47850000D03*
X177250000Y-25700000D03*
X177250000Y-45700000D03*
X177250000Y-23700000D03*
X177250000Y-54850000D03*
X177250000Y-52450000D03*
X177250000Y-36700000D03*
X177250000Y-32150000D03*
X176700000Y-65600000D03*
X177250000Y-41200000D03*
%TO.N,BATT +*%
X201400000Y-92100000D03*
X204699600Y-89000000D03*
%TO.N,CHRLY_11*%
X194653758Y-36650000D03*
X194653758Y-29800000D03*
X193240138Y-45942638D03*
X194650000Y-21650000D03*
X194653758Y-25650000D03*
X194653758Y-41150000D03*
X194653758Y-23700000D03*
X193000000Y-68200000D03*
X193000000Y-57150000D03*
X193000000Y-52450000D03*
X193000000Y-50100000D03*
X194653758Y-32150000D03*
X193000000Y-47950000D03*
X193000000Y-61950000D03*
X193000000Y-63850000D03*
X193000000Y-54900000D03*
X194653758Y-38900000D03*
X194653758Y-34450000D03*
X193000000Y-59700000D03*
X193000000Y-69649493D03*
X194100044Y-43413559D03*
X194653758Y-27650000D03*
X192950000Y-66000000D03*
%TO.N,unconnected-(U1-SWCLK-Pad24)*%
X212850000Y-93400000D03*
X219650000Y-95050000D03*
%TO.N,CHRLY_18*%
X182400000Y-39000000D03*
X182400000Y-57100000D03*
X180750000Y-69650000D03*
X180750000Y-67850000D03*
X180990138Y-62217638D03*
X182400000Y-41200000D03*
X182400000Y-45700000D03*
X180750000Y-63850000D03*
X182400000Y-36700000D03*
X182400000Y-47850000D03*
X182400000Y-23700000D03*
X182382059Y-21619148D03*
X182400000Y-43500000D03*
X182400000Y-34500000D03*
X182400000Y-54850000D03*
X180750000Y-66000000D03*
X180750000Y-72000000D03*
X182400000Y-50100000D03*
X182400000Y-27750000D03*
X182400000Y-59200000D03*
X182400000Y-29850000D03*
X182400000Y-25750000D03*
X182400000Y-52400000D03*
X213536659Y-91500000D03*
X182400000Y-32200000D03*
%TO.N,CHRLY_3*%
X208200000Y-26100000D03*
X206950000Y-32200000D03*
X206950000Y-34477903D03*
X206950000Y-47850000D03*
X198250000Y-81500000D03*
X206950000Y-69699493D03*
X206950000Y-36700000D03*
X206950000Y-54900000D03*
X206950000Y-68200000D03*
X207240138Y-27967638D03*
X206950000Y-57200000D03*
X206950000Y-66000000D03*
X206950000Y-61900000D03*
X206950000Y-29800000D03*
X206950000Y-38950000D03*
X206950000Y-41200000D03*
X206950000Y-59700000D03*
X208750000Y-23700000D03*
X206950000Y-52395710D03*
X206950000Y-43450000D03*
X206950000Y-50050000D03*
X208700000Y-21700000D03*
X206950000Y-45700000D03*
X204000000Y-72500000D03*
X206950000Y-63850000D03*
%TO.N,+1V1*%
X206250000Y-84500000D03*
X209650000Y-83950000D03*
X207100000Y-91750000D03*
X204750000Y-84500000D03*
X208350000Y-84400000D03*
%TO.N,CHRLY_19*%
X180812018Y-38955688D03*
X180812018Y-23700000D03*
X180812018Y-52350000D03*
X180812018Y-57200000D03*
X180812018Y-25700000D03*
X180812018Y-59700000D03*
X180812018Y-32200000D03*
X180812018Y-41100000D03*
X179000000Y-66000000D03*
X180812018Y-27750000D03*
X180812018Y-54900000D03*
X179000000Y-63850000D03*
X180812018Y-45650000D03*
X180812018Y-61453858D03*
X213500000Y-89000000D03*
X180812018Y-47750000D03*
X178950000Y-67750000D03*
X180812018Y-34500000D03*
X180700000Y-21600000D03*
X180812018Y-50050000D03*
X180812018Y-29850000D03*
X180812018Y-36700000D03*
X180812018Y-43450000D03*
%TO.N,CHRLY_15*%
X187750000Y-21650000D03*
X187805216Y-45750000D03*
X187805216Y-34500000D03*
X185950000Y-66000000D03*
X187805216Y-25200000D03*
X186000000Y-63800000D03*
X186000000Y-57200000D03*
X187805216Y-43450000D03*
X187805216Y-27650000D03*
X187805216Y-23650000D03*
X187805216Y-29750000D03*
X187805216Y-51853056D03*
X186240138Y-55122638D03*
X187805216Y-32150000D03*
X187805216Y-36700000D03*
X186000000Y-69649493D03*
X186000000Y-68250000D03*
X187805216Y-47850000D03*
X187805216Y-50050000D03*
X186000000Y-62000000D03*
X187805216Y-38900000D03*
X187805216Y-41200000D03*
X186000000Y-59750000D03*
%TO.N,CHRLY_6*%
X201990138Y-34777638D03*
X203450000Y-29850000D03*
X201700000Y-50100000D03*
X201700000Y-69699493D03*
X201700000Y-52450000D03*
X201700000Y-59700000D03*
X201700000Y-54850000D03*
X201700000Y-38950000D03*
X203450000Y-23700000D03*
X201700000Y-68200000D03*
X201700000Y-47900000D03*
X203450000Y-21650000D03*
X203405930Y-31701944D03*
X201700000Y-36700000D03*
X203450000Y-25700000D03*
X201700000Y-61950000D03*
X201700000Y-66000000D03*
X201700000Y-63850000D03*
X201700000Y-45700000D03*
X201700000Y-41200000D03*
X201700000Y-43494122D03*
X201700000Y-57200000D03*
X203450000Y-27750000D03*
%TO.N,BTN_4*%
X200400000Y-97600000D03*
X208977378Y-86000000D03*
%TO.N,CHRLY_16*%
X186050000Y-29800000D03*
X186050000Y-47750000D03*
X186050000Y-54300000D03*
X186050000Y-45650000D03*
X186050000Y-34400000D03*
X184490138Y-57442638D03*
X184200000Y-69649493D03*
X186000000Y-21650000D03*
X186050000Y-43250000D03*
X184200000Y-66000000D03*
X184200000Y-68250000D03*
X184200000Y-61995597D03*
X186050000Y-49950000D03*
X186050000Y-27700000D03*
X186050000Y-32100000D03*
X186050000Y-25600000D03*
X186050000Y-36550000D03*
X184250000Y-63800000D03*
X186050000Y-41100000D03*
X184200000Y-59700000D03*
X186050000Y-23700000D03*
X186050000Y-52300000D03*
X186050000Y-38700000D03*
%TO.N,CHRLY_14*%
X187750000Y-57200000D03*
X189600000Y-40950000D03*
X189600000Y-45550000D03*
X189600000Y-47700000D03*
X187750000Y-59700000D03*
X189600000Y-49500000D03*
X189600000Y-43400000D03*
X189600000Y-36450000D03*
X189500000Y-21650000D03*
X189600000Y-34250000D03*
X187990138Y-52692638D03*
X187750000Y-69649493D03*
X189600000Y-25500000D03*
X189600000Y-38750000D03*
X187750000Y-68200000D03*
X189600000Y-29700000D03*
X189600000Y-27450000D03*
X189600000Y-23400000D03*
X187700000Y-66000000D03*
X189600000Y-31850000D03*
X187750000Y-61950000D03*
X187750000Y-54950000D03*
X187750000Y-63750000D03*
%TO.N,Net-(U1-SQPI_SS_N)*%
X203100000Y-82700000D03*
X209400000Y-76200000D03*
%TO.N,BTN_5*%
X213000000Y-98200000D03*
X203500000Y-95700000D03*
X215700000Y-86800000D03*
X210200000Y-96200000D03*
X205723045Y-95551404D03*
X214400000Y-86100000D03*
%TO.N,BTN_2*%
X184750000Y-92250000D03*
X208900200Y-86750000D03*
%TO.N,CHRLY_8*%
X199900000Y-29850000D03*
X198250000Y-45800000D03*
X198250000Y-47950000D03*
X199900000Y-23750000D03*
X198250000Y-41300000D03*
X199900000Y-25650000D03*
X198250000Y-63850000D03*
X199900000Y-34500000D03*
X199900000Y-32200000D03*
X198250000Y-52500000D03*
X198200000Y-69649493D03*
X199856811Y-36156811D03*
X199900000Y-27800000D03*
X198250000Y-59750000D03*
X199900000Y-21650000D03*
X198250000Y-57250000D03*
X198250000Y-43550000D03*
X198200000Y-68200000D03*
X198490138Y-39217638D03*
X198250000Y-62000000D03*
X198250000Y-50150000D03*
X198250000Y-54950000D03*
X198200000Y-66000000D03*
%TO.N,BTN_3*%
X200250000Y-93000000D03*
X215750000Y-87685226D03*
X208346996Y-92653004D03*
X214403643Y-86800000D03*
%TO.N,CHRLY_17*%
X184200000Y-41150000D03*
X184200000Y-34400000D03*
X197850000Y-85450000D03*
X184200000Y-36700000D03*
X184200000Y-25700000D03*
X182550000Y-69750000D03*
X182450000Y-63850000D03*
X184200000Y-52350000D03*
X184200000Y-38950000D03*
X184200000Y-54750000D03*
X182463989Y-66038702D03*
X184200000Y-45650000D03*
X182500000Y-67800000D03*
X208700000Y-89400000D03*
X182450000Y-61950000D03*
X184200000Y-23700000D03*
X184200000Y-49977906D03*
X184200000Y-56649997D03*
X184250000Y-21650000D03*
X184200000Y-43450000D03*
X188750000Y-83250000D03*
X184200000Y-32100000D03*
X184200000Y-29900000D03*
X184200000Y-47800000D03*
X184200000Y-27700000D03*
X200500000Y-87050000D03*
X182740138Y-59967638D03*
%TO.N,GND*%
X202200000Y-82282844D03*
X211500000Y-80500000D03*
X201000000Y-93500000D03*
X206500000Y-87000000D03*
X202100000Y-93550000D03*
X200099999Y-95750000D03*
X199500000Y-98750000D03*
X214950000Y-94000000D03*
X205500000Y-93550000D03*
X212500000Y-96000000D03*
X197721348Y-87541994D03*
X207250000Y-75000000D03*
X206453187Y-76512500D03*
X210381076Y-78850000D03*
%TO.N,CHRLY_10*%
X194750000Y-45700000D03*
X194750000Y-57250000D03*
X196404662Y-27700000D03*
X194750000Y-68200000D03*
X194750000Y-54900000D03*
X196404662Y-38900000D03*
X196404662Y-32200000D03*
X196404662Y-29850000D03*
X196404662Y-34450000D03*
X194750000Y-61950000D03*
X196003406Y-41003406D03*
X194692527Y-65988058D03*
X196450000Y-21650000D03*
X194750000Y-63850000D03*
X194750000Y-50050000D03*
X194750000Y-47850000D03*
X194750000Y-52450000D03*
X194750000Y-69628280D03*
X196404662Y-36650000D03*
X196404662Y-25700000D03*
X194990138Y-43717638D03*
X194750000Y-59750000D03*
X196404662Y-23750000D03*
%TO.N,unconnected-(U1-SWDIO-Pad25)*%
X219650000Y-92750000D03*
X213000000Y-92000000D03*
%TO.N,CHRLY_2*%
X208700000Y-39000000D03*
X208700000Y-52450000D03*
X208700000Y-59700000D03*
X208700000Y-47900000D03*
X208700000Y-63800000D03*
X208700000Y-54850000D03*
X208700000Y-61950000D03*
X208700000Y-41200000D03*
X208700000Y-25750000D03*
X209950000Y-23500000D03*
X210450000Y-21650000D03*
X208700000Y-68200000D03*
X208700000Y-36700000D03*
X208700000Y-29900000D03*
X208700000Y-45700000D03*
X208700000Y-34500000D03*
X208700000Y-43450000D03*
X208700000Y-50050000D03*
X208700000Y-66000000D03*
X208700000Y-27700000D03*
X205800000Y-75000000D03*
X208700000Y-57250000D03*
X208700000Y-69699493D03*
X199145619Y-82978891D03*
X208700000Y-32150000D03*
%TO.N,CHRLY_12*%
X191250000Y-57200000D03*
X191250000Y-66000000D03*
X191250000Y-52450000D03*
X192906811Y-32091464D03*
X191490138Y-48122638D03*
X191250000Y-50100000D03*
X192906811Y-38900000D03*
X192906811Y-43300000D03*
X192906811Y-41150000D03*
X192906811Y-23700000D03*
X192906811Y-27700000D03*
X192906811Y-36650000D03*
X192906811Y-34450000D03*
X191250000Y-68200000D03*
X191250000Y-69628280D03*
X191250000Y-54850000D03*
X192279728Y-45720272D03*
X191250000Y-59700000D03*
X192906811Y-29900000D03*
X191250000Y-63850000D03*
X192906811Y-25650000D03*
X192900000Y-21650000D03*
X191250000Y-61950000D03*
%TO.N,CHRLY_9*%
X196450000Y-54900000D03*
X198154853Y-25750000D03*
X196450000Y-59700000D03*
X196450000Y-61950000D03*
X198154853Y-27750000D03*
X196450000Y-50200000D03*
X196450000Y-43550000D03*
X198154853Y-23700000D03*
X198154853Y-34500000D03*
X196400000Y-68200000D03*
X196740138Y-41467638D03*
X196400000Y-69628280D03*
X198154853Y-36650000D03*
X198154853Y-29900000D03*
X196450000Y-52500000D03*
X198200000Y-21700000D03*
X198154853Y-32200000D03*
X196450000Y-57250000D03*
X198154853Y-38509134D03*
X196450000Y-66000000D03*
X196450000Y-63850000D03*
X196450000Y-45750000D03*
X196450000Y-47900000D03*
%TO.N,CHRLY_7*%
X200000000Y-50050000D03*
X201755216Y-27700000D03*
X200240138Y-36967638D03*
X200000000Y-63750000D03*
X200000000Y-41250000D03*
X200000000Y-45700000D03*
X199950000Y-68200000D03*
X201755216Y-23700000D03*
X200000000Y-43500000D03*
X200000000Y-52500000D03*
X200000000Y-54850000D03*
X199950000Y-66000000D03*
X200000000Y-47900000D03*
X201755216Y-34003056D03*
X200000000Y-57200000D03*
X200000000Y-59700000D03*
X201750000Y-21600000D03*
X201755216Y-25700000D03*
X201755216Y-29850000D03*
X201755216Y-32150000D03*
X200000000Y-69750000D03*
X200000000Y-61950000D03*
X200000000Y-38950000D03*
%TO.N,CHRLY_1*%
X204500000Y-77000000D03*
X200044116Y-82500000D03*
%TO.N,CHRLY_4*%
X205200000Y-52450000D03*
X207000000Y-23650000D03*
X205200000Y-61900000D03*
X205200000Y-41250000D03*
X199150000Y-78765686D03*
X205200000Y-34500000D03*
X205200000Y-63800000D03*
X205200000Y-47900000D03*
X205200000Y-36700000D03*
X205200000Y-45750000D03*
X205490138Y-30122638D03*
X205200000Y-59700000D03*
X205200000Y-66000000D03*
X205200000Y-54850000D03*
X205200000Y-32200000D03*
X205200000Y-43500000D03*
X203000000Y-77750000D03*
X205250000Y-69699493D03*
X205200000Y-57200000D03*
X207000000Y-21600000D03*
X205200000Y-68200000D03*
X207000000Y-25750000D03*
X205200000Y-50100000D03*
X205200000Y-39000000D03*
X206450000Y-28250000D03*
%TO.N,CHRLY_5*%
X203450000Y-65950000D03*
X205250000Y-21700000D03*
X203450000Y-34550000D03*
X203450000Y-45700000D03*
X203450000Y-59694808D03*
X203500000Y-69750000D03*
X205255216Y-23727079D03*
X205255216Y-25700000D03*
X203450000Y-54850000D03*
X203450000Y-63800000D03*
X203400000Y-68200000D03*
X205255216Y-29303056D03*
X203740138Y-32442638D03*
X203450000Y-38950000D03*
X203450000Y-36650000D03*
X203450000Y-52450000D03*
X203450000Y-47850000D03*
X203450000Y-57150000D03*
X203450000Y-41250000D03*
X203450000Y-61968916D03*
X205255216Y-27700000D03*
X203450000Y-50100000D03*
X203450000Y-43500000D03*
%TO.N,Net-(C17-Pad1)*%
X207000000Y-101100000D03*
X211200000Y-99600000D03*
%TO.N,Net-(R3-Pad2)*%
X215000000Y-82000000D03*
X215000000Y-77250000D03*
%TO.N,BTN_6*%
X214300000Y-85350000D03*
X216312636Y-87476796D03*
%TO.N,+3V3*%
X207250000Y-77312500D03*
X208300000Y-75500000D03*
%TO.N,CHRLY_22*%
X212000000Y-88000000D03*
X175950000Y-70100000D03*
%TO.N,Net-(J1-VBUS)*%
X214121268Y-81500000D03*
X217230000Y-71500000D03*
%TD*%
D15*
%TO.N,CHRLY_20*%
X213250000Y-88442893D02*
X213250000Y-70650000D01*
X179000000Y-54850000D02*
X179000000Y-57200000D01*
X178200000Y-70650000D02*
X177200000Y-69650000D01*
X179000000Y-61800000D02*
X179000000Y-61900000D01*
X177200000Y-66000000D02*
X177200000Y-67500000D01*
X179000000Y-27750000D02*
X179000000Y-29900000D01*
X179000000Y-25700000D02*
X179000000Y-27750000D01*
X179000000Y-38950000D02*
X179000000Y-41200000D01*
X179000000Y-23700000D02*
X179000000Y-25700000D01*
X179000000Y-61800000D02*
X179000000Y-62350000D01*
X179000000Y-29900000D02*
X179000000Y-32200000D01*
X178500000Y-62400000D02*
X178500000Y-64250000D01*
X179000000Y-34550000D02*
X179000000Y-36700000D01*
X177200000Y-67500000D02*
X177200000Y-68200000D01*
X179000000Y-41200000D02*
X179000000Y-43450000D01*
X179000000Y-50100000D02*
X179000000Y-52450000D01*
X179000000Y-43450000D02*
X179000000Y-45700000D01*
X179000000Y-61900000D02*
X178500000Y-62400000D01*
X177200000Y-69650000D02*
X177200000Y-67500000D01*
X213253415Y-88445394D02*
X213252501Y-88445394D01*
X179000000Y-21700000D02*
X179000000Y-23700000D01*
X179000000Y-36700000D02*
X179000000Y-38950000D01*
X179000000Y-45700000D02*
X179000000Y-47900000D01*
X213252501Y-88445394D02*
X213250000Y-88442893D01*
X179000000Y-32200000D02*
X179000000Y-34550000D01*
X179000000Y-59700000D02*
X179000000Y-61800000D01*
X179000000Y-57200000D02*
X179000000Y-59700000D01*
X213250000Y-70650000D02*
X178200000Y-70650000D01*
X179000000Y-52450000D02*
X179000000Y-54850000D01*
X179000000Y-47900000D02*
X179000000Y-50100000D01*
%TO.N,CHRLY_13*%
X189500000Y-68200000D02*
X189500000Y-67900000D01*
X189500000Y-67900000D02*
X189500000Y-66700000D01*
X189500000Y-66700000D02*
X189500000Y-66050000D01*
X191250000Y-41250000D02*
X191250000Y-39000000D01*
X189500000Y-61950000D02*
X189500000Y-59700000D01*
X191250000Y-47299997D02*
X191250000Y-47150000D01*
X191250000Y-34500000D02*
X191250000Y-32150000D01*
X189500000Y-57300000D02*
X189500000Y-54950000D01*
X191250000Y-39000000D02*
X191250000Y-36700000D01*
X189500000Y-66050000D02*
X189450000Y-66000000D01*
X191250000Y-32150000D02*
X191250000Y-29850000D01*
X189500000Y-59700000D02*
X189500000Y-57300000D01*
X189740138Y-50347638D02*
X189500000Y-50587776D01*
X191250000Y-27700000D02*
X191250000Y-25700000D01*
X189500000Y-64500000D02*
X189500000Y-63800000D01*
X191250000Y-29850000D02*
X191250000Y-27700000D01*
X189500000Y-64500000D02*
X189500000Y-61950000D01*
X191250000Y-45650000D02*
X191250000Y-43450000D01*
X191250000Y-36700000D02*
X191250000Y-34500000D01*
X191250000Y-47150000D02*
X191250000Y-45650000D01*
X189500000Y-67900000D02*
X189500000Y-69628280D01*
X191250000Y-25700000D02*
X191250000Y-23700000D01*
X189500000Y-50587776D02*
X189500000Y-52500000D01*
X189500000Y-54950000D02*
X189500000Y-52500000D01*
X189500000Y-66700000D02*
X189500000Y-64500000D01*
X191250000Y-43450000D02*
X191250000Y-41250000D01*
X191250000Y-23700000D02*
X191250000Y-21600000D01*
%TO.N,BTN_1*%
X207786397Y-94000000D02*
X199813603Y-94000000D01*
X199813603Y-94000000D02*
X197300000Y-91486397D01*
X211100000Y-90686397D02*
X207786397Y-94000000D01*
X197300000Y-91486397D02*
X197300000Y-87700000D01*
X197300000Y-87700000D02*
X190500000Y-87700000D01*
X211100000Y-89750000D02*
X208950000Y-87600000D01*
X211100000Y-90686397D02*
X211100000Y-89750000D01*
%TO.N,CHRLY_21*%
X177250000Y-27700000D02*
X177250000Y-29850000D01*
X177250000Y-59700000D02*
X177250000Y-62000000D01*
X177250000Y-47850000D02*
X177250000Y-50100000D01*
X177250000Y-65050000D02*
X176700000Y-65600000D01*
X177250000Y-21650000D02*
X177250000Y-23700000D01*
X177250000Y-32150000D02*
X177250000Y-34500000D01*
X177250000Y-41200000D02*
X177250000Y-43500000D01*
X177250000Y-43500000D02*
X177250000Y-45700000D01*
X177250000Y-36700000D02*
X177250000Y-38950000D01*
X177250000Y-38950000D02*
X177250000Y-41200000D01*
X177250000Y-64150000D02*
X177250000Y-65050000D01*
X177250000Y-52450000D02*
X177250000Y-54850000D01*
X178034314Y-71050000D02*
X176700000Y-69715686D01*
X212500000Y-88500000D02*
X212850000Y-88150000D01*
X177250000Y-50100000D02*
X177250000Y-52450000D01*
X177250000Y-23700000D02*
X177250000Y-25700000D01*
X177250000Y-63800000D02*
X177250000Y-64150000D01*
X177250000Y-54850000D02*
X177250000Y-57200000D01*
X177250000Y-34500000D02*
X177250000Y-36700000D01*
X176700000Y-65600000D02*
X176700000Y-69649997D01*
X176700000Y-69649997D02*
X176699997Y-69650000D01*
X177250000Y-29850000D02*
X177250000Y-32150000D01*
X176700000Y-69715686D02*
X176700000Y-69649997D01*
X212850000Y-71050000D02*
X178034314Y-71050000D01*
X177250000Y-45700000D02*
X177250000Y-47850000D01*
X212850000Y-88150000D02*
X212850000Y-71050000D01*
X177250000Y-57200000D02*
X177250000Y-59700000D01*
X177250000Y-62000000D02*
X177250000Y-63800000D01*
X177250000Y-25700000D02*
X177250000Y-27700000D01*
%TO.N,BATT +*%
X204500000Y-89000000D02*
X204699600Y-89000000D01*
X201400000Y-92100000D02*
X204500000Y-89000000D01*
%TO.N,CHRLY_11*%
X193000000Y-47950000D02*
X193000000Y-46182776D01*
X194653758Y-27650000D02*
X194653758Y-25650000D01*
X194653758Y-25650000D02*
X194653758Y-23700000D01*
X193000000Y-66350000D02*
X193000000Y-66050000D01*
X194653758Y-21653758D02*
X194650000Y-21650000D01*
X194653758Y-32150000D02*
X194653758Y-29800000D01*
X193000000Y-67600000D02*
X193000000Y-69649493D01*
X193000000Y-67600000D02*
X193000000Y-66350000D01*
X193000000Y-46182776D02*
X193240138Y-45942638D01*
X193000000Y-61950000D02*
X193000000Y-59700000D01*
X193000000Y-68200000D02*
X193000000Y-67600000D01*
X193000000Y-66050000D02*
X192950000Y-66000000D01*
X194653758Y-29800000D02*
X194653758Y-27650000D01*
X193000000Y-66350000D02*
X193000000Y-63850000D01*
X193000000Y-59700000D02*
X193000000Y-57150000D01*
X194653758Y-34450000D02*
X194653758Y-32150000D01*
X194653758Y-36650000D02*
X194653758Y-34450000D01*
X193000000Y-54900000D02*
X193000000Y-52450000D01*
X194653758Y-41150000D02*
X194653758Y-38900000D01*
X194653758Y-42859845D02*
X194653758Y-41150000D01*
X193000000Y-63850000D02*
X193000000Y-61950000D01*
X194653758Y-23700000D02*
X194653758Y-21653758D01*
X193000000Y-50100000D02*
X193000000Y-47950000D01*
X193000000Y-52450000D02*
X193000000Y-50100000D01*
X193000000Y-57150000D02*
X193000000Y-54900000D01*
X194100044Y-43413559D02*
X194653758Y-42859845D01*
X194653758Y-38900000D02*
X194653758Y-36650000D01*
%TO.N,unconnected-(U1-SWCLK-Pad24)*%
X217750000Y-93150000D02*
X219650000Y-95050000D01*
X216484314Y-93000000D02*
X216634314Y-93150000D01*
X216634314Y-93150000D02*
X217750000Y-93150000D01*
X212850000Y-93400000D02*
X213250000Y-93000000D01*
X213250000Y-93000000D02*
X216484314Y-93000000D01*
%TO.N,CHRLY_18*%
X182400000Y-54850000D02*
X182400000Y-52400000D01*
X211500000Y-88207107D02*
X212750000Y-89457107D01*
X182400000Y-47850000D02*
X182400000Y-45700000D01*
X180750000Y-67850000D02*
X180750000Y-66700000D01*
X180750000Y-62457776D02*
X180990138Y-62217638D01*
X211800000Y-75713603D02*
X204400000Y-83113603D01*
X212750000Y-89457107D02*
X213250000Y-89457107D01*
X182400000Y-21637089D02*
X182382059Y-21619148D01*
X182400000Y-39000000D02*
X182400000Y-36700000D01*
X182400000Y-45700000D02*
X182400000Y-43500000D01*
X180750000Y-66700000D02*
X180750000Y-66000000D01*
X182400000Y-59200000D02*
X182400000Y-57100000D01*
X182400000Y-32200000D02*
X182400000Y-29850000D01*
X180750000Y-66550000D02*
X180750000Y-64600000D01*
X211800000Y-73500000D02*
X211800000Y-75713603D01*
X180750000Y-64600000D02*
X180750000Y-63850000D01*
X182400000Y-36700000D02*
X182400000Y-34500000D01*
X182400000Y-23700000D02*
X182400000Y-21637089D01*
X210300000Y-72000000D02*
X211800000Y-73500000D01*
X182400000Y-43500000D02*
X182400000Y-41200000D01*
X180750000Y-72000000D02*
X210300000Y-72000000D01*
X182400000Y-34500000D02*
X182400000Y-32200000D01*
X180750000Y-64600000D02*
X180750000Y-62457776D01*
X182400000Y-50100000D02*
X182400000Y-47850000D01*
X213250000Y-89457107D02*
X213536659Y-89743766D01*
X182400000Y-41200000D02*
X182400000Y-39000000D01*
X204400000Y-83113603D02*
X204400000Y-83392935D01*
X182400000Y-25750000D02*
X182400000Y-23700000D01*
X182400000Y-29850000D02*
X182400000Y-27750000D01*
X182400000Y-57100000D02*
X182400000Y-54850000D01*
X182400000Y-27750000D02*
X182400000Y-25750000D01*
X204400000Y-83392935D02*
X206007065Y-85000000D01*
X213536659Y-89743766D02*
X213536659Y-91500000D01*
X211500000Y-85750000D02*
X211500000Y-88207107D01*
X180750000Y-67850000D02*
X180750000Y-69650000D01*
X182400000Y-52400000D02*
X182400000Y-50100000D01*
X180750000Y-66700000D02*
X180750000Y-66550000D01*
X210750000Y-85000000D02*
X211500000Y-85750000D01*
X206007065Y-85000000D02*
X210750000Y-85000000D01*
%TO.N,CHRLY_3*%
X208750000Y-25300000D02*
X208750000Y-23700000D01*
X197250000Y-72500000D02*
X204000000Y-72500000D01*
X206950000Y-52395710D02*
X206950000Y-54900000D01*
X198250000Y-81500000D02*
X197250000Y-80500000D01*
X206950000Y-54900000D02*
X206950000Y-57200000D01*
X208750000Y-21750000D02*
X208700000Y-21700000D01*
X208200000Y-25613603D02*
X208513603Y-25300000D01*
X206950000Y-61900000D02*
X206950000Y-63850000D01*
X206950000Y-69699493D02*
X206950000Y-67800000D01*
X208750000Y-23700000D02*
X208750000Y-21750000D01*
X206950000Y-41200000D02*
X206950000Y-43450000D01*
X206950000Y-67800000D02*
X206950000Y-68200000D01*
X206950000Y-50050000D02*
X206950000Y-52395710D01*
X206950000Y-38950000D02*
X206950000Y-41200000D01*
X206950000Y-66000000D02*
X206950000Y-66250000D01*
X206950000Y-57200000D02*
X206950000Y-59700000D01*
X197250000Y-80500000D02*
X197250000Y-72500000D01*
X208200000Y-26100000D02*
X208200000Y-25613603D01*
X206950000Y-45700000D02*
X206950000Y-47850000D01*
X206950000Y-29800000D02*
X206950000Y-32200000D01*
X206950000Y-32200000D02*
X206950000Y-34477903D01*
X207240138Y-27967638D02*
X206950000Y-28257776D01*
X206950000Y-34477903D02*
X206950000Y-36700000D01*
X206950000Y-36700000D02*
X206950000Y-38950000D01*
X206950000Y-43450000D02*
X206950000Y-45700000D01*
X206950000Y-63850000D02*
X206950000Y-66250000D01*
X206950000Y-28257776D02*
X206950000Y-29800000D01*
X206950000Y-59700000D02*
X206950000Y-61900000D01*
X206950000Y-66250000D02*
X206950000Y-67800000D01*
X208513603Y-25300000D02*
X208750000Y-25300000D01*
X206950000Y-47850000D02*
X206950000Y-50050000D01*
%TO.N,+1V1*%
X207600000Y-91250000D02*
X207600000Y-87350000D01*
X207100000Y-91750000D02*
X207600000Y-91250000D01*
X208800000Y-83950000D02*
X209650000Y-83950000D01*
X207600000Y-87350000D02*
X204750000Y-84500000D01*
X206250000Y-84500000D02*
X208246400Y-84500000D01*
X208350000Y-84400000D02*
X208800000Y-83950000D01*
%TO.N,CHRLY_19*%
X180812018Y-27750000D02*
X180812018Y-25700000D01*
X180812018Y-32200000D02*
X180812018Y-29850000D01*
X180812018Y-25700000D02*
X180812018Y-23700000D01*
X180812018Y-34500000D02*
X180812018Y-32200000D01*
X180812018Y-47750000D02*
X180812018Y-45650000D01*
X213753415Y-86856879D02*
X213671268Y-86774732D01*
X180812018Y-61453858D02*
X180812018Y-59700000D01*
X180812018Y-52350000D02*
X180812018Y-50050000D01*
X178950000Y-63900000D02*
X179000000Y-63850000D01*
X213753415Y-88746585D02*
X213753415Y-86856879D01*
X180812018Y-54900000D02*
X180812018Y-52350000D01*
X180812018Y-50050000D02*
X180812018Y-47750000D01*
X213671268Y-86774732D02*
X213671268Y-70250000D01*
X180812018Y-38955688D02*
X180812018Y-36700000D01*
X179850000Y-70250000D02*
X178950000Y-69350000D01*
X178950000Y-66300000D02*
X178950000Y-66050000D01*
X180812018Y-41100000D02*
X180812018Y-38955688D01*
X180812018Y-45650000D02*
X180812018Y-43450000D01*
X180812018Y-23700000D02*
X180812018Y-21712018D01*
X180812018Y-59700000D02*
X180812018Y-57200000D01*
X180812018Y-21712018D02*
X180700000Y-21600000D01*
X180812018Y-57200000D02*
X180812018Y-54900000D01*
X178950000Y-69350000D02*
X178950000Y-67750000D01*
X213671268Y-70250000D02*
X179850000Y-70250000D01*
X178950000Y-66300000D02*
X178950000Y-63900000D01*
X178950000Y-67750000D02*
X178950000Y-66300000D01*
X213500000Y-89000000D02*
X213753415Y-88746585D01*
X180812018Y-36700000D02*
X180812018Y-34500000D01*
X180812018Y-29850000D02*
X180812018Y-27750000D01*
X180812018Y-43450000D02*
X180812018Y-41100000D01*
X178950000Y-66050000D02*
X179000000Y-66000000D01*
%TO.N,CHRLY_15*%
X187805216Y-41200000D02*
X187805216Y-38900000D01*
X187805216Y-50050000D02*
X187805216Y-47850000D01*
X186000000Y-66050000D02*
X185950000Y-66000000D01*
X187805216Y-29750000D02*
X187805216Y-27650000D01*
X187805216Y-23650000D02*
X187805216Y-21705216D01*
X187805216Y-38900000D02*
X187805216Y-36700000D01*
X186000000Y-67850000D02*
X186000000Y-69649493D01*
X187805216Y-43450000D02*
X187805216Y-41200000D01*
X186000000Y-67850000D02*
X186000000Y-66050000D01*
X186000000Y-63800000D02*
X186000000Y-64400000D01*
X186000000Y-62000000D02*
X186000000Y-59750000D01*
X186000000Y-65950000D02*
X185950000Y-66000000D01*
X186000000Y-64400000D02*
X186000000Y-62000000D01*
X187805216Y-36700000D02*
X187805216Y-34500000D01*
X186000000Y-64400000D02*
X186000000Y-65950000D01*
X187805216Y-34500000D02*
X187805216Y-32150000D01*
X187805216Y-27650000D02*
X187805216Y-25200000D01*
X187805216Y-32150000D02*
X187805216Y-29750000D01*
X187805216Y-47850000D02*
X187805216Y-45750000D01*
X186000000Y-55362776D02*
X186240138Y-55122638D01*
X186000000Y-57200000D02*
X186000000Y-55362776D01*
X186000000Y-59750000D02*
X186000000Y-57200000D01*
X187805216Y-51853056D02*
X187805216Y-50050000D01*
X187805216Y-45750000D02*
X187805216Y-43450000D01*
X187805216Y-21705216D02*
X187750000Y-21650000D01*
X186000000Y-68250000D02*
X186000000Y-67850000D01*
X187805216Y-25200000D02*
X187805216Y-23650000D01*
%TO.N,CHRLY_6*%
X201700000Y-57200000D02*
X201700000Y-59700000D01*
X203450000Y-23700000D02*
X203450000Y-21650000D01*
X201700000Y-66350000D02*
X201700000Y-66000000D01*
X201700000Y-67550000D02*
X201700000Y-66350000D01*
X201700000Y-45700000D02*
X201700000Y-47900000D01*
X201990138Y-34777638D02*
X201700000Y-35067776D01*
X201700000Y-47900000D02*
X201700000Y-50100000D01*
X201700000Y-68200000D02*
X201700000Y-67550000D01*
X201700000Y-61950000D02*
X201700000Y-63850000D01*
X201700000Y-36700000D02*
X201700000Y-38950000D01*
X201700000Y-63850000D02*
X201700000Y-66350000D01*
X201700000Y-69699493D02*
X201700000Y-67550000D01*
X203405930Y-31701944D02*
X203450000Y-31657874D01*
X201700000Y-59700000D02*
X201700000Y-61950000D01*
X201700000Y-38950000D02*
X201700000Y-41200000D01*
X203450000Y-27750000D02*
X203450000Y-25700000D01*
X203450000Y-31657874D02*
X203450000Y-29850000D01*
X203450000Y-25700000D02*
X203450000Y-23700000D01*
X201700000Y-54850000D02*
X201700000Y-57200000D01*
X203450000Y-29850000D02*
X203450000Y-27750000D01*
X201700000Y-41200000D02*
X201700000Y-43494122D01*
X201700000Y-52450000D02*
X201700000Y-54850000D01*
X201700000Y-35067776D02*
X201700000Y-36700000D01*
X201700000Y-50100000D02*
X201700000Y-52450000D01*
X201700000Y-43494122D02*
X201700000Y-45700000D01*
%TO.N,BTN_4*%
X207715000Y-97600000D02*
X212350000Y-92965000D01*
X211100000Y-86350000D02*
X210750000Y-86000000D01*
X212350000Y-89622793D02*
X211100000Y-88372793D01*
X211100000Y-88372793D02*
X211100000Y-86350000D01*
X210750000Y-86000000D02*
X208977378Y-86000000D01*
X200400000Y-97600000D02*
X207715000Y-97600000D01*
X212350000Y-92965000D02*
X212350000Y-89622793D01*
%TO.N,CHRLY_16*%
X186050000Y-27700000D02*
X186050000Y-25600000D01*
X184200000Y-63850000D02*
X184250000Y-63800000D01*
X186050000Y-47750000D02*
X186050000Y-45650000D01*
X186050000Y-34400000D02*
X186050000Y-32100000D01*
X186050000Y-29800000D02*
X186050000Y-27700000D01*
X184200000Y-68250000D02*
X184200000Y-67850000D01*
X184200000Y-57732776D02*
X184490138Y-57442638D01*
X186050000Y-25600000D02*
X186050000Y-23700000D01*
X186050000Y-41100000D02*
X186050000Y-38700000D01*
X184200000Y-66450000D02*
X184200000Y-64100000D01*
X186050000Y-52300000D02*
X186050000Y-49950000D01*
X186050000Y-36550000D02*
X186050000Y-34400000D01*
X184200000Y-59700000D02*
X184200000Y-57732776D01*
X186050000Y-49950000D02*
X186050000Y-47750000D01*
X186050000Y-23700000D02*
X186050000Y-21700000D01*
X186050000Y-21700000D02*
X186000000Y-21650000D01*
X186050000Y-38700000D02*
X186050000Y-36550000D01*
X184200000Y-66450000D02*
X184200000Y-66000000D01*
X186050000Y-43250000D02*
X186050000Y-41100000D01*
X186050000Y-54300000D02*
X186050000Y-52300000D01*
X184200000Y-64100000D02*
X184200000Y-63850000D01*
X184200000Y-61995597D02*
X184200000Y-59700000D01*
X186050000Y-45650000D02*
X186050000Y-43250000D01*
X186050000Y-32100000D02*
X186050000Y-29800000D01*
X184200000Y-67850000D02*
X184200000Y-66450000D01*
X184200000Y-64100000D02*
X184200000Y-61995597D01*
X184200000Y-67850000D02*
X184200000Y-69649493D01*
%TO.N,CHRLY_14*%
X187750000Y-61950000D02*
X187750000Y-59700000D01*
X189600000Y-31850000D02*
X189600000Y-29700000D01*
X187750000Y-66550000D02*
X187750000Y-64550000D01*
X187750000Y-68200000D02*
X187750000Y-67900000D01*
X189600000Y-43400000D02*
X189600000Y-40950000D01*
X187750000Y-59700000D02*
X187750000Y-57200000D01*
X187750000Y-54950000D02*
X187750000Y-52932776D01*
X189600000Y-40950000D02*
X189600000Y-38750000D01*
X189600000Y-27450000D02*
X189600000Y-25500000D01*
X189600000Y-45550000D02*
X189600000Y-43400000D01*
X187750000Y-66550000D02*
X187750000Y-66050000D01*
X189600000Y-38750000D02*
X189600000Y-36450000D01*
X189600000Y-34250000D02*
X189600000Y-31850000D01*
X189600000Y-47700000D02*
X189600000Y-45550000D01*
X187750000Y-67900000D02*
X187750000Y-66550000D01*
X187750000Y-52932776D02*
X187990138Y-52692638D01*
X189600000Y-49500000D02*
X189600000Y-47700000D01*
X189600000Y-21750000D02*
X189500000Y-21650000D01*
X189600000Y-36450000D02*
X189600000Y-34250000D01*
X189600000Y-29700000D02*
X189600000Y-27450000D01*
X189600000Y-25500000D02*
X189600000Y-23400000D01*
X187750000Y-64550000D02*
X187750000Y-61950000D01*
X189600000Y-23400000D02*
X189600000Y-21750000D01*
X187750000Y-57200000D02*
X187750000Y-54950000D01*
X187750000Y-66050000D02*
X187700000Y-66000000D01*
X187750000Y-64550000D02*
X187750000Y-63750000D01*
X187750000Y-67900000D02*
X187750000Y-69649493D01*
%TO.N,Net-(U1-SQPI_SS_N)*%
X203100000Y-82500000D02*
X203100000Y-82700000D01*
X209400000Y-76200000D02*
X203100000Y-82500000D01*
%TO.N,BTN_5*%
X215000000Y-86100000D02*
X215700000Y-86800000D01*
X214400000Y-86100000D02*
X215000000Y-86100000D01*
X212200000Y-98200000D02*
X210200000Y-96200000D01*
X203648596Y-95551404D02*
X203500000Y-95700000D01*
X213000000Y-98200000D02*
X212200000Y-98200000D01*
X205723045Y-95551404D02*
X203648596Y-95551404D01*
%TO.N,BTN_2*%
X186900000Y-94400000D02*
X207952083Y-94400000D01*
X207952083Y-94400000D02*
X211950000Y-90402083D01*
X208900200Y-86782001D02*
X208900200Y-86750000D01*
X211950000Y-89831801D02*
X208900200Y-86782001D01*
X184750000Y-92250000D02*
X186900000Y-94400000D01*
X211950000Y-90402083D02*
X211950000Y-89831801D01*
%TO.N,CHRLY_8*%
X198250000Y-39457776D02*
X198250000Y-41300000D01*
X198250000Y-57250000D02*
X198250000Y-59750000D01*
X198200000Y-67800000D02*
X198200000Y-69649493D01*
X198250000Y-41300000D02*
X198250000Y-43550000D01*
X198250000Y-59750000D02*
X198250000Y-62000000D01*
X198250000Y-47950000D02*
X198250000Y-50150000D01*
X198250000Y-63850000D02*
X198250000Y-66400000D01*
X198200000Y-67800000D02*
X198200000Y-66450000D01*
X198200000Y-66450000D02*
X198200000Y-66000000D01*
X198250000Y-52500000D02*
X198250000Y-54950000D01*
X199900000Y-36113622D02*
X199900000Y-34500000D01*
X198200000Y-68200000D02*
X198200000Y-67800000D01*
X198250000Y-62000000D02*
X198250000Y-63850000D01*
X199856811Y-36156811D02*
X199900000Y-36113622D01*
X199900000Y-32200000D02*
X199900000Y-29850000D01*
X199900000Y-25650000D02*
X199900000Y-23750000D01*
X198250000Y-66400000D02*
X198200000Y-66450000D01*
X198250000Y-45800000D02*
X198250000Y-47950000D01*
X198490138Y-39217638D02*
X198250000Y-39457776D01*
X198250000Y-54950000D02*
X198250000Y-57250000D01*
X199900000Y-29850000D02*
X199900000Y-27800000D01*
X198250000Y-50150000D02*
X198250000Y-52500000D01*
X199900000Y-34500000D02*
X199900000Y-32200000D01*
X199900000Y-23750000D02*
X199900000Y-21650000D01*
X199900000Y-27800000D02*
X199900000Y-25650000D01*
X198250000Y-43550000D02*
X198250000Y-45800000D01*
%TO.N,BTN_3*%
X208346996Y-92653004D02*
X206096996Y-92653004D01*
X200300000Y-92950000D02*
X200250000Y-93000000D01*
X214403643Y-86800000D02*
X214864774Y-86800000D01*
X205800000Y-92950000D02*
X200300000Y-92950000D01*
X214864774Y-86800000D02*
X215750000Y-87685226D01*
X206096996Y-92653004D02*
X205800000Y-92950000D01*
%TO.N,CHRLY_17*%
X182500000Y-62000000D02*
X182450000Y-61950000D01*
X184200000Y-41150000D02*
X184200000Y-38950000D01*
X200507107Y-92550000D02*
X200457107Y-92500000D01*
X184200000Y-29900000D02*
X184200000Y-27700000D01*
X182500000Y-66550000D02*
X182500000Y-64150000D01*
X207304103Y-92253004D02*
X205931310Y-92253004D01*
X182500000Y-66550000D02*
X182500000Y-66074713D01*
X184200000Y-32100000D02*
X184200000Y-29900000D01*
X198400000Y-91384314D02*
X198400000Y-89150000D01*
X208700000Y-89400000D02*
X208700000Y-90857107D01*
X184200000Y-45650000D02*
X184200000Y-43450000D01*
X198400000Y-89150000D02*
X200500000Y-87050000D01*
X184200000Y-34400000D02*
X184200000Y-32100000D01*
X184200000Y-38950000D02*
X184200000Y-36700000D01*
X184200000Y-56649997D02*
X184200000Y-54750000D01*
X184200000Y-49977906D02*
X184200000Y-47800000D01*
X205931310Y-92253004D02*
X205634314Y-92550000D01*
X182500000Y-63900000D02*
X182450000Y-63850000D01*
X200457107Y-92500000D02*
X199515686Y-92500000D01*
X184200000Y-23700000D02*
X184200000Y-21700000D01*
X182500000Y-60207776D02*
X182500000Y-62300000D01*
X182500000Y-67400000D02*
X182500000Y-69700000D01*
X184200000Y-47800000D02*
X184200000Y-45650000D01*
X182500000Y-62300000D02*
X182500000Y-62000000D01*
X184200000Y-21700000D02*
X184250000Y-21650000D01*
X208700000Y-90857107D02*
X207304103Y-92253004D01*
X184200000Y-43450000D02*
X184200000Y-41150000D01*
X182500000Y-64150000D02*
X182500000Y-62300000D01*
X205634314Y-92550000D02*
X200507107Y-92550000D01*
X184200000Y-52350000D02*
X184200000Y-49977906D01*
X184200000Y-25700000D02*
X184200000Y-23700000D01*
X184200000Y-27700000D02*
X184200000Y-25700000D01*
X182500000Y-66074713D02*
X182463989Y-66038702D01*
X199515686Y-92500000D02*
X198400000Y-91384314D01*
X184200000Y-36700000D02*
X184200000Y-34400000D01*
X195650000Y-83250000D02*
X197850000Y-85450000D01*
X184200000Y-54750000D02*
X184200000Y-52350000D01*
X182500000Y-64150000D02*
X182500000Y-63900000D01*
X182500000Y-69700000D02*
X182550000Y-69750000D01*
X182740138Y-59967638D02*
X182500000Y-60207776D01*
X188750000Y-83250000D02*
X195650000Y-83250000D01*
X182500000Y-67400000D02*
X182500000Y-66550000D01*
X182500000Y-67800000D02*
X182500000Y-67400000D01*
%TO.N,GND*%
X211500000Y-79968924D02*
X210381076Y-78850000D01*
X198745619Y-82188696D02*
X198750000Y-82184315D01*
X197700000Y-87200000D02*
X198414576Y-86485424D01*
X207250000Y-75000000D02*
X206750000Y-74500000D01*
X198414576Y-86485424D02*
X198414576Y-86350000D01*
X198750000Y-83290379D02*
X198645619Y-83185998D01*
X201000000Y-93500000D02*
X199950000Y-93500000D01*
X199500000Y-96349999D02*
X200099999Y-95750000D01*
X199950000Y-93500000D02*
X197700000Y-91250000D01*
X205500000Y-93550000D02*
X202100000Y-93550000D01*
X202575000Y-83075000D02*
X206500000Y-87000000D01*
X202200000Y-82282844D02*
X202567156Y-82282844D01*
X202575000Y-82275000D02*
X202575000Y-83075000D01*
X198750000Y-85257107D02*
X198750000Y-83290379D01*
X206453187Y-78396813D02*
X202575000Y-82275000D01*
X206453187Y-76512500D02*
X206453187Y-78396813D01*
X214500000Y-94000000D02*
X214950000Y-94000000D01*
X197650000Y-80150000D02*
X197650000Y-77900000D01*
X198414576Y-86350000D02*
X198014576Y-85950000D01*
X198750000Y-82184315D02*
X198750000Y-81250000D01*
X206750000Y-74500000D02*
X200860000Y-74500000D01*
X198645619Y-83185998D02*
X198645619Y-82771784D01*
X198750000Y-81250000D02*
X197650000Y-80150000D01*
X198745619Y-82671784D02*
X198745619Y-82188696D01*
X211500000Y-80500000D02*
X211500000Y-79968924D01*
X199500000Y-98750000D02*
X199500000Y-96349999D01*
X198014576Y-85950000D02*
X198057107Y-85950000D01*
X200860000Y-74500000D02*
X200110000Y-75250000D01*
X202567156Y-82282844D02*
X202575000Y-82275000D01*
X198414576Y-86585424D02*
X198414576Y-86350000D01*
X212500000Y-96000000D02*
X214500000Y-94000000D01*
X197650000Y-77900000D02*
X200100000Y-75450000D01*
X198057107Y-85950000D02*
X198750000Y-85257107D01*
X198645619Y-82771784D02*
X198745619Y-82671784D01*
X197700000Y-91250000D02*
X197700000Y-87200000D01*
%TO.N,CHRLY_10*%
X196404662Y-27700000D02*
X196404662Y-25700000D01*
X194750000Y-54900000D02*
X194750000Y-52450000D01*
X194750000Y-61950000D02*
X194750000Y-59750000D01*
X194750000Y-47850000D02*
X194750000Y-45700000D01*
X194750000Y-52450000D02*
X194750000Y-50050000D01*
X196404662Y-25700000D02*
X196404662Y-23750000D01*
X196404662Y-34450000D02*
X196404662Y-32200000D01*
X196404662Y-21695338D02*
X196450000Y-21650000D01*
X196404662Y-40602150D02*
X196404662Y-38900000D01*
X196404662Y-23750000D02*
X196404662Y-21695338D01*
X194750000Y-59750000D02*
X194750000Y-57250000D01*
X196404662Y-32200000D02*
X196404662Y-29850000D01*
X194750000Y-68200000D02*
X194750000Y-67850000D01*
X196003406Y-41003406D02*
X196404662Y-40602150D01*
X196404662Y-38900000D02*
X196404662Y-36650000D01*
X194750000Y-57250000D02*
X194750000Y-54900000D01*
X194750000Y-50050000D02*
X194750000Y-47850000D01*
X194750000Y-66350000D02*
X194750000Y-63850000D01*
X194750000Y-67850000D02*
X194750000Y-69628280D01*
X194750000Y-43957776D02*
X194990138Y-43717638D01*
X194750000Y-66350000D02*
X194750000Y-66045531D01*
X196404662Y-29850000D02*
X196404662Y-27700000D01*
X194750000Y-66045531D02*
X194692527Y-65988058D01*
X196404662Y-36650000D02*
X196404662Y-34450000D01*
X194750000Y-63850000D02*
X194750000Y-61950000D01*
X194750000Y-45700000D02*
X194750000Y-43957776D01*
X194750000Y-67850000D02*
X194750000Y-66350000D01*
%TO.N,unconnected-(U1-SWDIO-Pad25)*%
X216800000Y-92750000D02*
X219650000Y-92750000D01*
X213000000Y-92000000D02*
X216050000Y-92000000D01*
X216050000Y-92000000D02*
X216800000Y-92750000D01*
%TO.N,CHRLY_2*%
X203700000Y-77092893D02*
X204746446Y-76046447D01*
X208700000Y-43450000D02*
X208700000Y-45700000D01*
X208700000Y-34500000D02*
X208700000Y-36700000D01*
X208700000Y-69699493D02*
X208700000Y-67550000D01*
X204753553Y-76046447D02*
X205800000Y-75000000D01*
X208700000Y-50050000D02*
X208700000Y-52450000D01*
X208700000Y-66300000D02*
X208700000Y-66000000D01*
X208700000Y-27700000D02*
X208700000Y-29900000D01*
X208700000Y-29900000D02*
X208700000Y-32150000D01*
X208700000Y-61950000D02*
X208700000Y-63800000D01*
X209950000Y-23500000D02*
X210450000Y-23000000D01*
X208700000Y-59700000D02*
X208700000Y-61950000D01*
X208700000Y-63800000D02*
X208700000Y-66300000D01*
X208700000Y-67550000D02*
X208700000Y-66300000D01*
X208700000Y-45700000D02*
X208700000Y-47900000D01*
X203700000Y-77800000D02*
X203700000Y-77092893D01*
X208700000Y-68200000D02*
X208700000Y-67550000D01*
X208700000Y-39000000D02*
X208700000Y-41200000D01*
X210450000Y-23000000D02*
X210450000Y-21650000D01*
X208700000Y-25750000D02*
X208700000Y-27700000D01*
X204746446Y-76046447D02*
X204753553Y-76046447D01*
X208700000Y-41200000D02*
X208700000Y-43450000D01*
X199145619Y-82354381D02*
X203700000Y-77800000D01*
X208700000Y-36700000D02*
X208700000Y-39000000D01*
X199145619Y-82978891D02*
X199145619Y-82354381D01*
X208700000Y-32150000D02*
X208700000Y-34500000D01*
X208700000Y-47900000D02*
X208700000Y-50050000D01*
X208700000Y-52450000D02*
X208700000Y-54850000D01*
X208700000Y-57250000D02*
X208700000Y-59700000D01*
X208700000Y-54850000D02*
X208700000Y-57250000D01*
%TO.N,CHRLY_12*%
X191250000Y-50100000D02*
X191250000Y-48362776D01*
X191250000Y-59700000D02*
X191250000Y-57200000D01*
X192906811Y-36650000D02*
X192906811Y-34450000D01*
X192906811Y-27700000D02*
X192906811Y-25650000D01*
X191250000Y-68200000D02*
X191250000Y-67800000D01*
X192906811Y-38900000D02*
X192906811Y-36650000D01*
X192906811Y-29900000D02*
X192906811Y-27700000D01*
X191250000Y-67800000D02*
X191250000Y-66350000D01*
X192906811Y-43300000D02*
X192906811Y-41150000D01*
X192906811Y-23700000D02*
X192906811Y-21656811D01*
X192906811Y-45093189D02*
X192906811Y-43300000D01*
X192906811Y-32091464D02*
X192906811Y-29900000D01*
X192906811Y-21656811D02*
X192900000Y-21650000D01*
X191250000Y-61950000D02*
X191250000Y-59700000D01*
X192279728Y-45720272D02*
X192906811Y-45093189D01*
X191250000Y-48362776D02*
X191490138Y-48122638D01*
X192906811Y-34450000D02*
X192906811Y-32091464D01*
X191250000Y-66350000D02*
X191250000Y-63850000D01*
X191250000Y-66350000D02*
X191250000Y-66000000D01*
X191250000Y-67800000D02*
X191250000Y-69628280D01*
X191250000Y-52450000D02*
X191250000Y-50100000D01*
X191250000Y-63850000D02*
X191250000Y-61950000D01*
X191250000Y-57200000D02*
X191250000Y-54850000D01*
X191250000Y-54850000D02*
X191250000Y-52450000D01*
X192906811Y-25650000D02*
X192906811Y-23700000D01*
X192906811Y-41150000D02*
X192906811Y-38900000D01*
%TO.N,CHRLY_9*%
X196450000Y-45750000D02*
X196450000Y-47900000D01*
X196450000Y-59700000D02*
X196450000Y-61950000D01*
X196400000Y-68200000D02*
X196400000Y-67600000D01*
X196450000Y-57250000D02*
X196450000Y-59700000D01*
X198154853Y-29900000D02*
X198154853Y-27750000D01*
X196400000Y-66450000D02*
X196400000Y-66050000D01*
X196450000Y-52500000D02*
X196450000Y-54900000D01*
X196450000Y-43550000D02*
X196450000Y-45750000D01*
X198154853Y-25750000D02*
X198154853Y-23700000D01*
X198154853Y-21745147D02*
X198200000Y-21700000D01*
X198154853Y-32200000D02*
X198154853Y-29900000D01*
X198154853Y-34500000D02*
X198154853Y-32200000D01*
X196450000Y-50200000D02*
X196450000Y-52500000D01*
X198154853Y-27750000D02*
X198154853Y-25750000D01*
X196450000Y-47900000D02*
X196450000Y-50200000D01*
X196450000Y-54900000D02*
X196450000Y-57250000D01*
X196450000Y-66400000D02*
X196400000Y-66450000D01*
X198154853Y-38509134D02*
X198154853Y-36650000D01*
X196450000Y-63850000D02*
X196450000Y-66400000D01*
X198154853Y-36650000D02*
X198154853Y-34500000D01*
X198154853Y-23700000D02*
X198154853Y-21745147D01*
X196400000Y-67600000D02*
X196400000Y-69628280D01*
X196450000Y-61950000D02*
X196450000Y-63850000D01*
X196450000Y-41757776D02*
X196450000Y-43550000D01*
X196400000Y-66050000D02*
X196450000Y-66000000D01*
X196740138Y-41467638D02*
X196450000Y-41757776D01*
X196400000Y-67600000D02*
X196400000Y-66450000D01*
%TO.N,CHRLY_7*%
X200000000Y-63750000D02*
X200000000Y-66250000D01*
X200000000Y-45700000D02*
X200000000Y-47900000D01*
X201755216Y-34003056D02*
X201755216Y-32150000D01*
X200000000Y-69750000D02*
X200000000Y-68750000D01*
X199950000Y-67750000D02*
X199950000Y-68700000D01*
X201755216Y-21605216D02*
X201750000Y-21600000D01*
X200000000Y-50050000D02*
X200000000Y-52500000D01*
X200000000Y-54850000D02*
X200000000Y-57200000D01*
X201755216Y-27700000D02*
X201755216Y-25700000D01*
X200000000Y-57200000D02*
X200000000Y-59700000D01*
X200000000Y-47900000D02*
X200000000Y-50050000D01*
X200000000Y-37207776D02*
X200000000Y-38950000D01*
X200240138Y-36967638D02*
X200000000Y-37207776D01*
X199950000Y-68200000D02*
X199950000Y-67750000D01*
X200000000Y-38950000D02*
X200000000Y-41250000D01*
X200000000Y-52500000D02*
X200000000Y-54850000D01*
X200000000Y-66250000D02*
X199950000Y-66300000D01*
X201755216Y-25700000D02*
X201755216Y-23700000D01*
X200000000Y-41250000D02*
X200000000Y-43500000D01*
X199950000Y-68700000D02*
X200000000Y-68750000D01*
X201755216Y-23700000D02*
X201755216Y-21605216D01*
X200000000Y-61950000D02*
X200000000Y-63750000D01*
X199950000Y-66300000D02*
X199950000Y-66000000D01*
X200000000Y-59700000D02*
X200000000Y-61950000D01*
X201755216Y-29850000D02*
X201755216Y-27700000D01*
X199950000Y-67750000D02*
X199950000Y-66300000D01*
X200000000Y-43500000D02*
X200000000Y-45700000D01*
X201755216Y-32150000D02*
X201755216Y-29850000D01*
%TO.N,CHRLY_1*%
X204500000Y-77000000D02*
X204100000Y-77400000D01*
X204100000Y-78444116D02*
X200044116Y-82500000D01*
X204100000Y-77400000D02*
X204100000Y-78444116D01*
%TO.N,CHRLY_4*%
X205200000Y-67650000D02*
X205200000Y-66250000D01*
X205200000Y-68200000D02*
X205200000Y-67650000D01*
X201984314Y-78765686D02*
X199150000Y-78765686D01*
X205200000Y-59700000D02*
X205200000Y-61900000D01*
X205200000Y-39000000D02*
X205200000Y-41250000D01*
X205200000Y-32200000D02*
X205200000Y-34500000D01*
X207000000Y-27250000D02*
X207000000Y-25750000D01*
X203000000Y-77750000D02*
X201984314Y-78765686D01*
X205200000Y-63800000D02*
X205200000Y-66250000D01*
X205250000Y-67700000D02*
X205200000Y-67650000D01*
X205200000Y-50100000D02*
X205200000Y-52450000D01*
X205200000Y-61900000D02*
X205200000Y-63800000D01*
X205200000Y-54850000D02*
X205200000Y-57200000D01*
X205200000Y-45750000D02*
X205200000Y-47900000D01*
X207000000Y-23650000D02*
X207000000Y-21600000D01*
X206450000Y-27563603D02*
X206763603Y-27250000D01*
X205200000Y-30412776D02*
X205200000Y-32200000D01*
X205200000Y-43500000D02*
X205200000Y-45750000D01*
X205200000Y-66250000D02*
X205200000Y-66000000D01*
X205200000Y-41250000D02*
X205200000Y-43500000D01*
X205200000Y-57200000D02*
X205200000Y-59700000D01*
X205200000Y-36700000D02*
X205200000Y-39000000D01*
X207000000Y-25750000D02*
X207000000Y-23650000D01*
X205200000Y-52450000D02*
X205200000Y-54850000D01*
X206450000Y-28250000D02*
X206450000Y-27563603D01*
X205200000Y-34500000D02*
X205200000Y-36700000D01*
X206763603Y-27250000D02*
X207000000Y-27250000D01*
X205250000Y-69699493D02*
X205250000Y-67700000D01*
X205200000Y-47900000D02*
X205200000Y-50100000D01*
X205490138Y-30122638D02*
X205200000Y-30412776D01*
%TO.N,CHRLY_5*%
X205255216Y-23727079D02*
X205255216Y-21705216D01*
X205255216Y-25700000D02*
X205255216Y-23727079D01*
X203500000Y-69750000D02*
X203500000Y-68300000D01*
X203450000Y-57150000D02*
X203450000Y-59694808D01*
X203400000Y-66000000D02*
X203450000Y-65950000D01*
X203450000Y-63800000D02*
X203450000Y-66200000D01*
X203450000Y-59694808D02*
X203450000Y-61968916D01*
X203450000Y-66200000D02*
X203400000Y-66250000D01*
X205255216Y-29303056D02*
X205255216Y-27700000D01*
X205255216Y-27700000D02*
X205255216Y-25700000D01*
X203450000Y-36650000D02*
X203450000Y-38950000D01*
X203450000Y-34550000D02*
X203450000Y-36650000D01*
X203450000Y-43500000D02*
X203450000Y-45700000D01*
X203450000Y-61968916D02*
X203450000Y-63800000D01*
X203450000Y-45700000D02*
X203450000Y-47850000D01*
X205255216Y-21705216D02*
X205250000Y-21700000D01*
X203450000Y-32732776D02*
X203450000Y-34550000D01*
X203450000Y-54850000D02*
X203450000Y-57150000D01*
X203740138Y-32442638D02*
X203450000Y-32732776D01*
X203450000Y-52450000D02*
X203450000Y-54850000D01*
X203450000Y-38950000D02*
X203450000Y-41250000D01*
X203400000Y-68200000D02*
X203400000Y-66250000D01*
X203450000Y-41250000D02*
X203450000Y-43500000D01*
X203500000Y-68300000D02*
X203400000Y-68200000D01*
X203450000Y-47850000D02*
X203450000Y-50100000D01*
X203400000Y-66250000D02*
X203400000Y-66000000D01*
X203450000Y-50100000D02*
X203450000Y-52450000D01*
%TO.N,Net-(C17-Pad1)*%
X207000000Y-101100000D02*
X209700000Y-101100000D01*
X209700000Y-101100000D02*
X211200000Y-99600000D01*
%TO.N,Net-(R3-Pad2)*%
X215000000Y-82000000D02*
X215000000Y-77250000D01*
%TO.N,BTN_6*%
X216312636Y-87476796D02*
X216312636Y-86463801D01*
X216312636Y-86463801D02*
X215198835Y-85350000D01*
X215198835Y-85350000D02*
X214300000Y-85350000D01*
%TO.N,+3V3*%
X208300000Y-75500000D02*
X208300000Y-76262500D01*
X208300000Y-76262500D02*
X207250000Y-77312500D01*
%TO.N,CHRLY_22*%
X175950000Y-70100000D02*
X177350000Y-71500000D01*
X212000000Y-88000000D02*
X212400000Y-87600000D01*
X212400000Y-87600000D02*
X212400000Y-72700000D01*
X212350000Y-72650000D02*
X212450000Y-72650000D01*
X211200000Y-71500000D02*
X212350000Y-72650000D01*
X177350000Y-71500000D02*
X211200000Y-71500000D01*
X212400000Y-72700000D02*
X212350000Y-72650000D01*
%TO.N,Net-(J1-VBUS)*%
X214121268Y-81500000D02*
X214121268Y-74608732D01*
X214121268Y-74608732D02*
X217230000Y-71500000D01*
%TD*%
M02*
